G04*
G04 #@! TF.GenerationSoftware,Altium Limited,Altium Designer,22.8.2 (66)*
G04*
G04 Layer_Color=32768*
%FSLAX25Y25*%
%MOIN*%
G70*
G04*
G04 #@! TF.SameCoordinates,1DA06848-B02D-40B0-91E6-948BEBB4C5FF*
G04*
G04*
G04 #@! TF.FilePolarity,Positive*
G04*
G01*
G75*
%ADD14C,0.00394*%
%ADD50C,0.00197*%
D14*
X330709Y305118D02*
Y309055D01*
X328740Y307087D02*
X332677D01*
X330709Y320866D02*
Y324803D01*
X328740Y322835D02*
X332677D01*
X330709Y265748D02*
Y269685D01*
X328740Y267717D02*
X332677D01*
X262500Y242677D02*
Y303012D01*
X288681D01*
Y242677D02*
Y303012D01*
X262500Y242677D02*
X288681D01*
X330709Y407480D02*
Y411417D01*
X328740Y409449D02*
X332677D01*
X446850Y244094D02*
X450787D01*
X448819Y242126D02*
Y246063D01*
Y375984D02*
Y379921D01*
X446850Y377953D02*
X450787D01*
X428228Y425197D02*
X432165D01*
X430197Y423228D02*
Y427165D01*
X400827Y325236D02*
Y329173D01*
X398858Y327205D02*
X402795D01*
D50*
X455115Y355290D02*
G03*
X458366Y358858I-197J3445D01*
G01*
X439272Y358932D02*
G03*
X442520Y355290I3445J-197D01*
G01*
Y400689D02*
G03*
X439272Y397047I197J-3445D01*
G01*
X458366Y397121D02*
G03*
X455115Y400689I-3448J123D01*
G01*
X254921Y316653D02*
Y352638D01*
Y316653D02*
X264764D01*
Y352638D01*
X254921D02*
X264764D01*
X290728Y372047D02*
Y415354D01*
X256398Y415353D02*
X290728D01*
X256398Y372047D02*
Y415354D01*
Y372045D02*
X290728D01*
X451063Y416181D02*
X462323D01*
X451063Y439961D02*
X462323D01*
X451063Y416181D02*
Y439961D01*
X462323Y416181D02*
Y439961D01*
X351476Y301969D02*
Y312205D01*
X309941D02*
X351476D01*
X309941Y301969D02*
X351476D01*
X309941D02*
Y312205D01*
X351476Y317717D02*
Y327953D01*
X309941D02*
X351476D01*
X309941Y317717D02*
X351476D01*
X309941D02*
Y327953D01*
X311614Y247047D02*
X349803D01*
X311614Y288386D02*
X349803D01*
Y247047D02*
Y288386D01*
X311614Y247047D02*
Y288386D01*
Y449213D02*
X349803D01*
X311614Y369685D02*
X349803D01*
X311614D02*
Y449213D01*
X349803Y369685D02*
Y449213D01*
X440866Y249488D02*
X456772D01*
X440866Y238701D02*
Y249488D01*
Y238701D02*
X456772D01*
Y249488D01*
X442520Y355290D02*
X455115D01*
X442520Y400689D02*
X455115D01*
X458366Y358858D02*
Y397047D01*
X439272Y358858D02*
Y397047D01*
X422244Y430590D02*
X438150D01*
X422244Y419803D02*
Y430590D01*
Y419803D02*
X438150D01*
Y430590D01*
M02*
