G04*
G04 #@! TF.GenerationSoftware,Altium Limited,Altium Designer,22.8.2 (66)*
G04*
G04 Layer_Color=65535*
%FSLAX25Y25*%
%MOIN*%
G70*
G04*
G04 #@! TF.SameCoordinates,1DA06848-B02D-40B0-91E6-948BEBB4C5FF*
G04*
G04*
G04 #@! TF.FilePolarity,Positive*
G04*
G01*
G75*
%ADD10C,0.00591*%
%ADD11C,0.02362*%
%ADD12C,0.00984*%
%ADD13C,0.00787*%
%ADD14C,0.00394*%
G36*
X455046Y445938D02*
X455095Y445933D01*
X455144Y445927D01*
X455210Y445917D01*
X455275Y445906D01*
X455412Y445867D01*
X455559Y445813D01*
X455635Y445780D01*
X455707Y445742D01*
X455772Y445693D01*
X455838Y445638D01*
X455843Y445633D01*
X455854Y445627D01*
X455870Y445605D01*
X455892Y445583D01*
X455914Y445556D01*
X455941Y445518D01*
X455974Y445480D01*
X456007Y445436D01*
X456067Y445327D01*
X456121Y445201D01*
X456138Y445136D01*
X456154Y445059D01*
X456165Y444988D01*
X456171Y444906D01*
Y444896D01*
Y444863D01*
X456165Y444819D01*
X456154Y444759D01*
X456143Y444688D01*
X456121Y444612D01*
X456089Y444530D01*
X456050Y444448D01*
X456045Y444437D01*
X456029Y444410D01*
X455996Y444366D01*
X455952Y444306D01*
X455892Y444235D01*
X455810Y444147D01*
X455712Y444049D01*
X455597Y443946D01*
X455586Y443935D01*
X455559Y443913D01*
X455521Y443875D01*
X455472Y443831D01*
X455423Y443782D01*
X455373Y443733D01*
X455330Y443689D01*
X455297Y443645D01*
Y443640D01*
X455286Y443629D01*
X455275Y443607D01*
X455259Y443585D01*
X455242Y443552D01*
X455226Y443514D01*
X455193Y443427D01*
Y443421D01*
X455188Y443405D01*
X455182Y443372D01*
X455177Y443334D01*
X455171Y443279D01*
X455166Y443208D01*
X455161Y443126D01*
Y443034D01*
X454713D01*
Y443039D01*
Y443050D01*
Y443083D01*
X454707Y443126D01*
Y443170D01*
Y443176D01*
Y443181D01*
Y443214D01*
X454713Y443268D01*
X454718Y443334D01*
X454724Y443405D01*
X454740Y443481D01*
X454756Y443563D01*
X454784Y443640D01*
X454789Y443645D01*
X454795Y443667D01*
X454811Y443694D01*
X454827Y443733D01*
X454855Y443776D01*
X454887Y443831D01*
X454926Y443885D01*
X454969Y443940D01*
X454975Y443946D01*
X454986Y443962D01*
X455013Y443984D01*
X455046Y444022D01*
X455090Y444066D01*
X455150Y444120D01*
X455221Y444186D01*
X455302Y444262D01*
X455308D01*
X455313Y444273D01*
X455341Y444295D01*
X455384Y444339D01*
X455434Y444382D01*
X455488Y444437D01*
X455537Y444497D01*
X455586Y444552D01*
X455619Y444601D01*
X455625Y444606D01*
X455630Y444623D01*
X455641Y444650D01*
X455657Y444683D01*
X455674Y444726D01*
X455685Y444770D01*
X455690Y444825D01*
X455696Y444879D01*
Y444885D01*
Y444890D01*
X455690Y444923D01*
X455685Y444977D01*
X455668Y445038D01*
X455647Y445114D01*
X455608Y445190D01*
X455554Y445272D01*
X455483Y445354D01*
X455472Y445365D01*
X455444Y445387D01*
X455401Y445420D01*
X455341Y445458D01*
X455264Y445496D01*
X455177Y445529D01*
X455073Y445551D01*
X454964Y445562D01*
X454937D01*
X454915Y445556D01*
X454860Y445551D01*
X454789Y445540D01*
X454713Y445512D01*
X454631Y445480D01*
X454549Y445436D01*
X454467Y445370D01*
X454456Y445360D01*
X454434Y445338D01*
X454402Y445289D01*
X454363Y445229D01*
X454320Y445147D01*
X454276Y445048D01*
X454238Y444928D01*
X454211Y444792D01*
X453735Y444852D01*
Y444857D01*
X453741Y444874D01*
Y444901D01*
X453752Y444939D01*
X453757Y444983D01*
X453774Y445032D01*
X453785Y445087D01*
X453806Y445152D01*
X453856Y445278D01*
X453921Y445414D01*
X454003Y445545D01*
X454058Y445605D01*
X454112Y445660D01*
X454118Y445665D01*
X454129Y445671D01*
X454145Y445687D01*
X454172Y445704D01*
X454205Y445725D01*
X454243Y445747D01*
X454287Y445775D01*
X454336Y445802D01*
X454396Y445829D01*
X454462Y445857D01*
X454527Y445878D01*
X454604Y445900D01*
X454767Y445933D01*
X454860Y445938D01*
X454953Y445944D01*
X455008D01*
X455046Y445938D01*
D02*
G37*
G36*
X453091Y443301D02*
Y443296D01*
Y443279D01*
Y443258D01*
Y443225D01*
X453086Y443181D01*
Y443137D01*
X453075Y443034D01*
X453064Y442913D01*
X453042Y442788D01*
X453009Y442673D01*
X452971Y442564D01*
Y442559D01*
X452966Y442553D01*
X452949Y442520D01*
X452922Y442477D01*
X452884Y442417D01*
X452829Y442357D01*
X452769Y442291D01*
X452693Y442226D01*
X452605Y442171D01*
X452594Y442166D01*
X452562Y442149D01*
X452512Y442127D01*
X452441Y442105D01*
X452354Y442078D01*
X452256Y442056D01*
X452147Y442040D01*
X452027Y442034D01*
X451977D01*
X451945Y442040D01*
X451901Y442045D01*
X451857Y442051D01*
X451743Y442073D01*
X451622Y442105D01*
X451497Y442155D01*
X451431Y442187D01*
X451371Y442226D01*
X451317Y442269D01*
X451262Y442318D01*
X451257Y442324D01*
X451251Y442329D01*
X451240Y442351D01*
X451224Y442373D01*
X451202Y442400D01*
X451180Y442439D01*
X451158Y442482D01*
X451131Y442531D01*
X451109Y442586D01*
X451087Y442652D01*
X451065Y442717D01*
X451044Y442793D01*
X451033Y442875D01*
X451016Y442968D01*
X451011Y443061D01*
Y443165D01*
X451464Y443230D01*
Y443225D01*
Y443214D01*
Y443192D01*
X451470Y443159D01*
X451475Y443126D01*
Y443088D01*
X451491Y442995D01*
X451508Y442897D01*
X451541Y442799D01*
X451573Y442711D01*
X451595Y442673D01*
X451622Y442640D01*
X451628Y442635D01*
X451650Y442619D01*
X451683Y442591D01*
X451726Y442564D01*
X451786Y442531D01*
X451852Y442510D01*
X451934Y442488D01*
X452021Y442482D01*
X452054D01*
X452086Y442488D01*
X452136Y442493D01*
X452185Y442504D01*
X452239Y442515D01*
X452294Y442537D01*
X452349Y442564D01*
X452354Y442570D01*
X452371Y442581D01*
X452392Y442602D01*
X452425Y442624D01*
X452452Y442662D01*
X452485Y442701D01*
X452512Y442744D01*
X452534Y442799D01*
Y442804D01*
X452545Y442826D01*
X452551Y442864D01*
X452562Y442913D01*
X452572Y442979D01*
X452578Y443061D01*
X452589Y443159D01*
Y443274D01*
Y445878D01*
X453091D01*
Y443301D01*
D02*
G37*
G36*
X455161Y442100D02*
X454631D01*
Y442630D01*
X455161D01*
Y442100D01*
D02*
G37*
G36*
X468291Y237801D02*
Y237796D01*
Y237779D01*
Y237757D01*
Y237725D01*
X468286Y237681D01*
Y237637D01*
X468275Y237534D01*
X468264Y237414D01*
X468242Y237288D01*
X468209Y237173D01*
X468171Y237064D01*
Y237059D01*
X468166Y237053D01*
X468149Y237020D01*
X468122Y236977D01*
X468084Y236917D01*
X468029Y236857D01*
X467969Y236791D01*
X467893Y236726D01*
X467805Y236671D01*
X467794Y236666D01*
X467762Y236649D01*
X467712Y236627D01*
X467641Y236606D01*
X467554Y236578D01*
X467456Y236556D01*
X467347Y236540D01*
X467227Y236535D01*
X467177D01*
X467145Y236540D01*
X467101Y236545D01*
X467057Y236551D01*
X466943Y236573D01*
X466822Y236606D01*
X466697Y236655D01*
X466631Y236687D01*
X466571Y236726D01*
X466517Y236769D01*
X466462Y236818D01*
X466457Y236824D01*
X466451Y236829D01*
X466440Y236851D01*
X466424Y236873D01*
X466402Y236900D01*
X466380Y236939D01*
X466358Y236982D01*
X466331Y237031D01*
X466309Y237086D01*
X466287Y237152D01*
X466265Y237217D01*
X466244Y237293D01*
X466233Y237375D01*
X466216Y237468D01*
X466211Y237561D01*
Y237665D01*
X466664Y237730D01*
Y237725D01*
Y237714D01*
Y237692D01*
X466670Y237659D01*
X466675Y237627D01*
Y237588D01*
X466691Y237495D01*
X466708Y237397D01*
X466741Y237299D01*
X466773Y237211D01*
X466795Y237173D01*
X466822Y237140D01*
X466828Y237135D01*
X466850Y237119D01*
X466883Y237091D01*
X466926Y237064D01*
X466986Y237031D01*
X467052Y237010D01*
X467134Y236988D01*
X467221Y236982D01*
X467254D01*
X467286Y236988D01*
X467336Y236993D01*
X467385Y237004D01*
X467439Y237015D01*
X467494Y237037D01*
X467549Y237064D01*
X467554Y237070D01*
X467570Y237081D01*
X467592Y237102D01*
X467625Y237124D01*
X467652Y237162D01*
X467685Y237201D01*
X467712Y237244D01*
X467734Y237299D01*
Y237304D01*
X467745Y237326D01*
X467751Y237364D01*
X467762Y237414D01*
X467772Y237479D01*
X467778Y237561D01*
X467789Y237659D01*
Y237774D01*
Y240378D01*
X468291D01*
Y237801D01*
D02*
G37*
G36*
X470666Y236600D02*
X470202D01*
Y239554D01*
X470197Y239548D01*
X470169Y239527D01*
X470137Y239494D01*
X470082Y239456D01*
X470022Y239406D01*
X469946Y239352D01*
X469858Y239292D01*
X469760Y239232D01*
X469755D01*
X469749Y239226D01*
X469716Y239204D01*
X469662Y239177D01*
X469596Y239144D01*
X469520Y239106D01*
X469438Y239068D01*
X469356Y239030D01*
X469274Y238997D01*
Y239445D01*
X469279D01*
X469290Y239456D01*
X469312Y239461D01*
X469340Y239477D01*
X469372Y239494D01*
X469411Y239516D01*
X469503Y239570D01*
X469613Y239630D01*
X469722Y239707D01*
X469836Y239794D01*
X469951Y239887D01*
X469956Y239892D01*
X469962Y239898D01*
X469978Y239914D01*
X470000Y239931D01*
X470049Y239985D01*
X470115Y240051D01*
X470180Y240127D01*
X470251Y240214D01*
X470311Y240302D01*
X470366Y240395D01*
X470666D01*
Y236600D01*
D02*
G37*
G36*
X316197Y455160D02*
X316241D01*
X316295Y455155D01*
X316355Y455149D01*
X316415Y455144D01*
X316552Y455122D01*
X316699Y455089D01*
X316841Y455045D01*
X316978Y454985D01*
X316983D01*
X316994Y454974D01*
X317010Y454963D01*
X317032Y454953D01*
X317092Y454909D01*
X317163Y454849D01*
X317245Y454772D01*
X317321Y454685D01*
X317398Y454576D01*
X317458Y454456D01*
Y454450D01*
X317463Y454439D01*
X317469Y454418D01*
X317480Y454390D01*
X317491Y454357D01*
X317502Y454314D01*
X317518Y454265D01*
X317529Y454205D01*
X317540Y454139D01*
X317556Y454068D01*
X317567Y453992D01*
X317578Y453910D01*
X317589Y453817D01*
X317595Y453719D01*
X317600Y453615D01*
Y453506D01*
Y451322D01*
X317098D01*
Y453506D01*
Y453511D01*
Y453527D01*
Y453555D01*
Y453588D01*
X317092Y453626D01*
Y453675D01*
X317087Y453779D01*
X317076Y453899D01*
X317059Y454019D01*
X317038Y454134D01*
X317027Y454183D01*
X317010Y454232D01*
X317005Y454243D01*
X316994Y454270D01*
X316967Y454308D01*
X316934Y454363D01*
X316896Y454418D01*
X316841Y454478D01*
X316775Y454538D01*
X316699Y454587D01*
X316688Y454592D01*
X316661Y454609D01*
X316612Y454625D01*
X316546Y454647D01*
X316470Y454674D01*
X316371Y454691D01*
X316268Y454707D01*
X316153Y454712D01*
X316098D01*
X316066Y454707D01*
X316017D01*
X315967Y454701D01*
X315847Y454680D01*
X315716Y454652D01*
X315591Y454609D01*
X315471Y454549D01*
X315416Y454510D01*
X315367Y454467D01*
X315361Y454461D01*
X315356Y454456D01*
X315345Y454439D01*
X315329Y454418D01*
X315312Y454385D01*
X315290Y454352D01*
X315269Y454303D01*
X315247Y454254D01*
X315225Y454194D01*
X315209Y454123D01*
X315187Y454041D01*
X315170Y453953D01*
X315154Y453855D01*
X315143Y453751D01*
X315132Y453631D01*
Y453506D01*
Y451322D01*
X314630D01*
Y453506D01*
Y453511D01*
Y453533D01*
Y453560D01*
Y453598D01*
X314635Y453648D01*
Y453702D01*
X314641Y453768D01*
X314646Y453833D01*
X314663Y453981D01*
X314684Y454134D01*
X314717Y454281D01*
X314739Y454352D01*
X314761Y454418D01*
Y454423D01*
X314766Y454434D01*
X314777Y454450D01*
X314788Y454472D01*
X314821Y454532D01*
X314870Y454609D01*
X314935Y454696D01*
X315012Y454783D01*
X315110Y454876D01*
X315230Y454958D01*
X315236D01*
X315247Y454969D01*
X315263Y454974D01*
X315290Y454991D01*
X315323Y455007D01*
X315367Y455024D01*
X315410Y455040D01*
X315465Y455062D01*
X315525Y455084D01*
X315591Y455100D01*
X315662Y455116D01*
X315744Y455133D01*
X315826Y455144D01*
X315913Y455155D01*
X316109Y455165D01*
X316159D01*
X316197Y455160D01*
D02*
G37*
G36*
X314051Y455095D02*
Y455073D01*
Y455040D01*
X314046Y454996D01*
X314040Y454947D01*
X314029Y454892D01*
X314018Y454838D01*
X313996Y454778D01*
Y454772D01*
X313991Y454767D01*
X313980Y454734D01*
X313958Y454685D01*
X313925Y454620D01*
X313882Y454543D01*
X313827Y454456D01*
X313767Y454368D01*
X313691Y454276D01*
Y454270D01*
X313680Y454265D01*
X313652Y454232D01*
X313603Y454183D01*
X313532Y454112D01*
X313450Y454030D01*
X313347Y453932D01*
X313221Y453822D01*
X313085Y453708D01*
X313079Y453702D01*
X313057Y453686D01*
X313024Y453659D01*
X312986Y453626D01*
X312937Y453582D01*
X312877Y453533D01*
X312817Y453478D01*
X312746Y453418D01*
X312610Y453287D01*
X312473Y453156D01*
X312407Y453091D01*
X312348Y453025D01*
X312293Y452965D01*
X312249Y452905D01*
Y452900D01*
X312238Y452894D01*
X312227Y452878D01*
X312216Y452856D01*
X312178Y452796D01*
X312135Y452725D01*
X312096Y452638D01*
X312058Y452545D01*
X312036Y452441D01*
X312025Y452343D01*
Y452337D01*
Y452332D01*
X312031Y452299D01*
X312036Y452244D01*
X312053Y452184D01*
X312074Y452108D01*
X312113Y452032D01*
X312162Y451955D01*
X312227Y451879D01*
X312238Y451868D01*
X312266Y451846D01*
X312304Y451819D01*
X312364Y451780D01*
X312440Y451748D01*
X312528Y451715D01*
X312631Y451693D01*
X312746Y451687D01*
X312779D01*
X312801Y451693D01*
X312866Y451698D01*
X312943Y451715D01*
X313024Y451737D01*
X313117Y451775D01*
X313205Y451824D01*
X313287Y451890D01*
X313298Y451900D01*
X313319Y451928D01*
X313352Y451971D01*
X313385Y452037D01*
X313423Y452113D01*
X313456Y452212D01*
X313478Y452321D01*
X313489Y452447D01*
X313964Y452397D01*
Y452392D01*
X313958Y452376D01*
Y452348D01*
X313953Y452310D01*
X313942Y452266D01*
X313931Y452217D01*
X313914Y452157D01*
X313898Y452097D01*
X313854Y451966D01*
X313789Y451835D01*
X313751Y451769D01*
X313702Y451704D01*
X313652Y451644D01*
X313598Y451589D01*
X313592Y451584D01*
X313581Y451578D01*
X313565Y451562D01*
X313538Y451546D01*
X313505Y451524D01*
X313467Y451502D01*
X313423Y451475D01*
X313369Y451447D01*
X313308Y451420D01*
X313243Y451393D01*
X313172Y451371D01*
X313095Y451349D01*
X313014Y451333D01*
X312926Y451316D01*
X312833Y451311D01*
X312735Y451305D01*
X312681D01*
X312642Y451311D01*
X312599Y451316D01*
X312544Y451322D01*
X312484Y451333D01*
X312424Y451343D01*
X312282Y451382D01*
X312140Y451436D01*
X312069Y451469D01*
X311998Y451507D01*
X311932Y451556D01*
X311873Y451611D01*
X311867Y451616D01*
X311856Y451622D01*
X311845Y451644D01*
X311823Y451666D01*
X311796Y451693D01*
X311769Y451731D01*
X311741Y451769D01*
X311709Y451819D01*
X311654Y451922D01*
X311599Y452053D01*
X311578Y452119D01*
X311567Y452195D01*
X311556Y452272D01*
X311550Y452354D01*
Y452365D01*
Y452392D01*
X311556Y452435D01*
X311561Y452496D01*
X311572Y452561D01*
X311594Y452638D01*
X311616Y452719D01*
X311649Y452801D01*
X311654Y452812D01*
X311665Y452840D01*
X311687Y452883D01*
X311720Y452943D01*
X311763Y453009D01*
X311818Y453091D01*
X311883Y453173D01*
X311960Y453265D01*
X311971Y453276D01*
X311998Y453309D01*
X312025Y453336D01*
X312053Y453364D01*
X312085Y453397D01*
X312129Y453440D01*
X312173Y453484D01*
X312227Y453533D01*
X312282Y453588D01*
X312348Y453648D01*
X312419Y453708D01*
X312495Y453779D01*
X312582Y453850D01*
X312670Y453926D01*
X312675Y453932D01*
X312686Y453942D01*
X312708Y453959D01*
X312735Y453981D01*
X312768Y454013D01*
X312806Y454046D01*
X312894Y454117D01*
X312986Y454199D01*
X313074Y454281D01*
X313150Y454352D01*
X313183Y454379D01*
X313210Y454407D01*
X313216Y454412D01*
X313232Y454428D01*
X313254Y454450D01*
X313281Y454483D01*
X313308Y454521D01*
X313341Y454560D01*
X313407Y454652D01*
X311545D01*
Y455100D01*
X314051D01*
Y455095D01*
D02*
G37*
G36*
X314470Y292494D02*
Y292489D01*
Y292467D01*
Y292440D01*
Y292402D01*
X314465Y292352D01*
Y292298D01*
X314459Y292232D01*
X314454Y292167D01*
X314438Y292019D01*
X314416Y291866D01*
X314383Y291719D01*
X314361Y291648D01*
X314339Y291582D01*
Y291577D01*
X314334Y291566D01*
X314323Y291550D01*
X314312Y291528D01*
X314279Y291468D01*
X314230Y291391D01*
X314164Y291304D01*
X314088Y291217D01*
X313990Y291124D01*
X313870Y291042D01*
X313864D01*
X313853Y291031D01*
X313837Y291026D01*
X313810Y291009D01*
X313777Y290993D01*
X313733Y290976D01*
X313689Y290960D01*
X313635Y290938D01*
X313575Y290916D01*
X313509Y290900D01*
X313438Y290884D01*
X313356Y290867D01*
X313275Y290856D01*
X313187Y290845D01*
X312991Y290834D01*
X312941D01*
X312903Y290840D01*
X312860D01*
X312805Y290845D01*
X312745Y290851D01*
X312685Y290856D01*
X312548Y290878D01*
X312401Y290911D01*
X312259Y290955D01*
X312122Y291015D01*
X312117D01*
X312106Y291026D01*
X312090Y291037D01*
X312068Y291047D01*
X312008Y291091D01*
X311937Y291151D01*
X311855Y291228D01*
X311778Y291315D01*
X311702Y291424D01*
X311642Y291544D01*
Y291550D01*
X311636Y291561D01*
X311631Y291582D01*
X311620Y291610D01*
X311609Y291643D01*
X311598Y291686D01*
X311582Y291735D01*
X311571Y291795D01*
X311560Y291861D01*
X311544Y291932D01*
X311533Y292008D01*
X311522Y292090D01*
X311511Y292183D01*
X311506Y292281D01*
X311500Y292385D01*
Y292494D01*
Y294678D01*
X312002D01*
Y292494D01*
Y292489D01*
Y292473D01*
Y292445D01*
Y292412D01*
X312008Y292374D01*
Y292325D01*
X312013Y292221D01*
X312024Y292101D01*
X312040Y291981D01*
X312062Y291866D01*
X312073Y291817D01*
X312090Y291768D01*
X312095Y291757D01*
X312106Y291730D01*
X312133Y291692D01*
X312166Y291637D01*
X312204Y291582D01*
X312259Y291522D01*
X312325Y291462D01*
X312401Y291413D01*
X312412Y291408D01*
X312439Y291391D01*
X312488Y291375D01*
X312554Y291353D01*
X312630Y291326D01*
X312729Y291309D01*
X312832Y291293D01*
X312947Y291288D01*
X313001D01*
X313034Y291293D01*
X313083D01*
X313133Y291299D01*
X313253Y291320D01*
X313384Y291348D01*
X313509Y291391D01*
X313629Y291452D01*
X313684Y291490D01*
X313733Y291533D01*
X313739Y291539D01*
X313744Y291544D01*
X313755Y291561D01*
X313771Y291582D01*
X313788Y291615D01*
X313810Y291648D01*
X313831Y291697D01*
X313853Y291746D01*
X313875Y291806D01*
X313892Y291877D01*
X313913Y291959D01*
X313930Y292047D01*
X313946Y292145D01*
X313957Y292249D01*
X313968Y292369D01*
Y292494D01*
Y294678D01*
X314470D01*
Y292494D01*
D02*
G37*
G36*
X316862Y290900D02*
X316398D01*
Y293854D01*
X316392Y293848D01*
X316365Y293827D01*
X316332Y293794D01*
X316278Y293756D01*
X316217Y293706D01*
X316141Y293652D01*
X316054Y293592D01*
X315955Y293532D01*
X315950D01*
X315944Y293526D01*
X315912Y293504D01*
X315857Y293477D01*
X315792Y293444D01*
X315715Y293406D01*
X315633Y293368D01*
X315551Y293330D01*
X315469Y293297D01*
Y293745D01*
X315475D01*
X315486Y293756D01*
X315508Y293761D01*
X315535Y293777D01*
X315568Y293794D01*
X315606Y293816D01*
X315699Y293870D01*
X315808Y293930D01*
X315917Y294007D01*
X316032Y294094D01*
X316146Y294187D01*
X316152Y294192D01*
X316157Y294198D01*
X316174Y294214D01*
X316196Y294231D01*
X316245Y294285D01*
X316310Y294351D01*
X316376Y294427D01*
X316447Y294514D01*
X316507Y294602D01*
X316561Y294695D01*
X316862D01*
Y290900D01*
D02*
G37*
G36*
X314758Y318089D02*
X314801Y318084D01*
X314856Y318078D01*
X314916Y318067D01*
X314976Y318057D01*
X315118Y318018D01*
X315260Y317964D01*
X315331Y317931D01*
X315402Y317893D01*
X315468Y317844D01*
X315528Y317789D01*
X315533Y317783D01*
X315544Y317778D01*
X315555Y317756D01*
X315577Y317734D01*
X315604Y317707D01*
X315631Y317669D01*
X315659Y317631D01*
X315691Y317582D01*
X315746Y317478D01*
X315800Y317347D01*
X315822Y317281D01*
X315833Y317205D01*
X315844Y317128D01*
X315850Y317046D01*
Y317036D01*
Y317008D01*
X315844Y316965D01*
X315839Y316904D01*
X315828Y316839D01*
X315806Y316762D01*
X315784Y316681D01*
X315751Y316599D01*
X315746Y316588D01*
X315735Y316560D01*
X315713Y316517D01*
X315680Y316457D01*
X315637Y316391D01*
X315582Y316309D01*
X315517Y316227D01*
X315440Y316135D01*
X315429Y316124D01*
X315402Y316091D01*
X315375Y316064D01*
X315347Y316036D01*
X315315Y316003D01*
X315271Y315960D01*
X315227Y315916D01*
X315173Y315867D01*
X315118Y315812D01*
X315053Y315752D01*
X314982Y315692D01*
X314905Y315621D01*
X314818Y315550D01*
X314730Y315474D01*
X314725Y315468D01*
X314714Y315458D01*
X314692Y315441D01*
X314665Y315419D01*
X314632Y315387D01*
X314594Y315354D01*
X314507Y315283D01*
X314414Y315201D01*
X314326Y315119D01*
X314250Y315048D01*
X314217Y315021D01*
X314190Y314993D01*
X314184Y314988D01*
X314168Y314972D01*
X314146Y314950D01*
X314119Y314917D01*
X314092Y314879D01*
X314059Y314841D01*
X313993Y314748D01*
X315855D01*
Y314300D01*
X313349D01*
Y314305D01*
Y314327D01*
Y314360D01*
X313354Y314404D01*
X313360Y314453D01*
X313371Y314508D01*
X313382Y314562D01*
X313404Y314622D01*
Y314628D01*
X313409Y314633D01*
X313420Y314666D01*
X313442Y314715D01*
X313475Y314780D01*
X313518Y314857D01*
X313573Y314944D01*
X313633Y315032D01*
X313709Y315125D01*
Y315130D01*
X313720Y315135D01*
X313748Y315168D01*
X313797Y315217D01*
X313868Y315288D01*
X313950Y315370D01*
X314053Y315468D01*
X314179Y315578D01*
X314315Y315692D01*
X314321Y315698D01*
X314343Y315714D01*
X314375Y315741D01*
X314414Y315774D01*
X314463Y315818D01*
X314523Y315867D01*
X314583Y315922D01*
X314654Y315982D01*
X314790Y316113D01*
X314927Y316244D01*
X314992Y316309D01*
X315053Y316375D01*
X315107Y316435D01*
X315151Y316495D01*
Y316500D01*
X315162Y316506D01*
X315173Y316522D01*
X315184Y316544D01*
X315222Y316604D01*
X315265Y316675D01*
X315304Y316762D01*
X315342Y316855D01*
X315364Y316959D01*
X315375Y317057D01*
Y317063D01*
Y317068D01*
X315369Y317101D01*
X315364Y317156D01*
X315347Y317216D01*
X315325Y317292D01*
X315287Y317369D01*
X315238Y317445D01*
X315173Y317521D01*
X315162Y317532D01*
X315134Y317554D01*
X315096Y317582D01*
X315036Y317620D01*
X314960Y317652D01*
X314872Y317685D01*
X314769Y317707D01*
X314654Y317712D01*
X314621D01*
X314599Y317707D01*
X314534Y317702D01*
X314457Y317685D01*
X314375Y317663D01*
X314283Y317625D01*
X314195Y317576D01*
X314113Y317511D01*
X314103Y317500D01*
X314081Y317472D01*
X314048Y317429D01*
X314015Y317363D01*
X313977Y317287D01*
X313944Y317188D01*
X313922Y317079D01*
X313911Y316954D01*
X313436Y317003D01*
Y317008D01*
X313442Y317024D01*
Y317052D01*
X313447Y317090D01*
X313458Y317134D01*
X313469Y317183D01*
X313486Y317243D01*
X313502Y317303D01*
X313546Y317434D01*
X313611Y317565D01*
X313649Y317631D01*
X313698Y317696D01*
X313748Y317756D01*
X313802Y317811D01*
X313808Y317816D01*
X313819Y317822D01*
X313835Y317838D01*
X313862Y317854D01*
X313895Y317876D01*
X313933Y317898D01*
X313977Y317925D01*
X314032Y317953D01*
X314092Y317980D01*
X314157Y318007D01*
X314228Y318029D01*
X314304Y318051D01*
X314386Y318067D01*
X314474Y318084D01*
X314567Y318089D01*
X314665Y318095D01*
X314720D01*
X314758Y318089D01*
D02*
G37*
G36*
X311596Y318073D02*
X311646D01*
X311760Y318067D01*
X311880Y318051D01*
X312011Y318035D01*
X312131Y318007D01*
X312192Y317991D01*
X312241Y317975D01*
X312246D01*
X312251Y317969D01*
X312284Y317953D01*
X312333Y317931D01*
X312393Y317893D01*
X312459Y317844D01*
X312530Y317778D01*
X312596Y317702D01*
X312661Y317614D01*
Y317609D01*
X312667Y317603D01*
X312688Y317570D01*
X312710Y317516D01*
X312743Y317445D01*
X312770Y317363D01*
X312797Y317265D01*
X312814Y317161D01*
X312819Y317046D01*
Y317041D01*
Y317030D01*
Y317008D01*
X312814Y316981D01*
Y316943D01*
X312808Y316904D01*
X312787Y316812D01*
X312754Y316702D01*
X312710Y316588D01*
X312645Y316473D01*
X312601Y316419D01*
X312557Y316364D01*
X312552Y316358D01*
X312546Y316353D01*
X312530Y316337D01*
X312508Y316320D01*
X312481Y316298D01*
X312448Y316277D01*
X312404Y316249D01*
X312361Y316216D01*
X312306Y316189D01*
X312246Y316162D01*
X312181Y316129D01*
X312110Y316102D01*
X312028Y316080D01*
X311946Y316053D01*
X311853Y316036D01*
X311755Y316020D01*
X311766Y316014D01*
X311787Y316003D01*
X311820Y315982D01*
X311864Y315960D01*
X311962Y315900D01*
X312011Y315862D01*
X312055Y315829D01*
X312066Y315818D01*
X312093Y315791D01*
X312137Y315747D01*
X312192Y315692D01*
X312251Y315616D01*
X312322Y315534D01*
X312393Y315436D01*
X312470Y315326D01*
X313120Y314300D01*
X312497D01*
X312000Y315086D01*
Y315092D01*
X311989Y315103D01*
X311979Y315119D01*
X311962Y315141D01*
X311924Y315201D01*
X311875Y315277D01*
X311815Y315359D01*
X311755Y315447D01*
X311695Y315528D01*
X311640Y315605D01*
X311635Y315610D01*
X311618Y315632D01*
X311591Y315665D01*
X311553Y315703D01*
X311471Y315785D01*
X311427Y315823D01*
X311383Y315856D01*
X311378Y315862D01*
X311367Y315867D01*
X311345Y315878D01*
X311312Y315894D01*
X311280Y315911D01*
X311241Y315927D01*
X311154Y315954D01*
X311149D01*
X311138Y315960D01*
X311116D01*
X311089Y315965D01*
X311050Y315971D01*
X311007D01*
X310947Y315976D01*
X310302D01*
Y314300D01*
X309800D01*
Y318078D01*
X311553D01*
X311596Y318073D01*
D02*
G37*
G36*
X315162Y330100D02*
X314698D01*
Y333054D01*
X314692Y333048D01*
X314665Y333027D01*
X314632Y332994D01*
X314578Y332956D01*
X314517Y332906D01*
X314441Y332852D01*
X314354Y332792D01*
X314255Y332732D01*
X314250D01*
X314244Y332726D01*
X314212Y332704D01*
X314157Y332677D01*
X314092Y332644D01*
X314015Y332606D01*
X313933Y332568D01*
X313851Y332530D01*
X313769Y332497D01*
Y332945D01*
X313775D01*
X313786Y332956D01*
X313808Y332961D01*
X313835Y332977D01*
X313868Y332994D01*
X313906Y333016D01*
X313999Y333070D01*
X314108Y333130D01*
X314217Y333207D01*
X314332Y333294D01*
X314446Y333387D01*
X314452Y333392D01*
X314457Y333398D01*
X314474Y333414D01*
X314496Y333431D01*
X314545Y333485D01*
X314610Y333551D01*
X314676Y333627D01*
X314747Y333715D01*
X314807Y333802D01*
X314861Y333895D01*
X315162D01*
Y330100D01*
D02*
G37*
G36*
X311596Y333873D02*
X311646D01*
X311760Y333867D01*
X311880Y333851D01*
X312011Y333835D01*
X312131Y333807D01*
X312192Y333791D01*
X312241Y333775D01*
X312246D01*
X312251Y333769D01*
X312284Y333753D01*
X312333Y333731D01*
X312393Y333693D01*
X312459Y333644D01*
X312530Y333578D01*
X312596Y333502D01*
X312661Y333414D01*
Y333409D01*
X312667Y333403D01*
X312688Y333370D01*
X312710Y333316D01*
X312743Y333245D01*
X312770Y333163D01*
X312797Y333065D01*
X312814Y332961D01*
X312819Y332846D01*
Y332841D01*
Y332830D01*
Y332808D01*
X312814Y332781D01*
Y332743D01*
X312808Y332704D01*
X312787Y332612D01*
X312754Y332502D01*
X312710Y332388D01*
X312645Y332273D01*
X312601Y332219D01*
X312557Y332164D01*
X312552Y332158D01*
X312546Y332153D01*
X312530Y332137D01*
X312508Y332120D01*
X312481Y332098D01*
X312448Y332077D01*
X312404Y332049D01*
X312361Y332016D01*
X312306Y331989D01*
X312246Y331962D01*
X312181Y331929D01*
X312110Y331902D01*
X312028Y331880D01*
X311946Y331853D01*
X311853Y331836D01*
X311755Y331820D01*
X311766Y331814D01*
X311787Y331803D01*
X311820Y331782D01*
X311864Y331760D01*
X311962Y331700D01*
X312011Y331662D01*
X312055Y331629D01*
X312066Y331618D01*
X312093Y331591D01*
X312137Y331547D01*
X312192Y331492D01*
X312251Y331416D01*
X312322Y331334D01*
X312393Y331236D01*
X312470Y331126D01*
X313120Y330100D01*
X312497D01*
X312000Y330886D01*
Y330892D01*
X311989Y330903D01*
X311979Y330919D01*
X311962Y330941D01*
X311924Y331001D01*
X311875Y331077D01*
X311815Y331159D01*
X311755Y331247D01*
X311695Y331329D01*
X311640Y331405D01*
X311635Y331410D01*
X311618Y331432D01*
X311591Y331465D01*
X311553Y331503D01*
X311471Y331585D01*
X311427Y331623D01*
X311383Y331656D01*
X311378Y331662D01*
X311367Y331667D01*
X311345Y331678D01*
X311312Y331694D01*
X311280Y331711D01*
X311241Y331727D01*
X311154Y331754D01*
X311149D01*
X311138Y331760D01*
X311116D01*
X311089Y331765D01*
X311050Y331771D01*
X311007D01*
X310947Y331776D01*
X310302D01*
Y330100D01*
X309800D01*
Y333878D01*
X311553D01*
X311596Y333873D01*
D02*
G37*
G36*
X267738Y309289D02*
X267782Y309284D01*
X267836Y309278D01*
X267897Y309267D01*
X267957Y309257D01*
X268098Y309218D01*
X268240Y309164D01*
X268312Y309131D01*
X268382Y309093D01*
X268448Y309044D01*
X268508Y308989D01*
X268513Y308983D01*
X268524Y308978D01*
X268535Y308956D01*
X268557Y308934D01*
X268584Y308907D01*
X268612Y308869D01*
X268639Y308831D01*
X268672Y308782D01*
X268726Y308678D01*
X268781Y308547D01*
X268803Y308481D01*
X268814Y308405D01*
X268825Y308328D01*
X268830Y308246D01*
Y308236D01*
Y308208D01*
X268825Y308165D01*
X268819Y308104D01*
X268808Y308039D01*
X268787Y307962D01*
X268765Y307881D01*
X268732Y307799D01*
X268726Y307788D01*
X268716Y307760D01*
X268694Y307717D01*
X268661Y307657D01*
X268617Y307591D01*
X268563Y307509D01*
X268497Y307427D01*
X268421Y307335D01*
X268410Y307324D01*
X268382Y307291D01*
X268355Y307264D01*
X268328Y307236D01*
X268295Y307204D01*
X268251Y307160D01*
X268208Y307116D01*
X268153Y307067D01*
X268098Y307012D01*
X268033Y306952D01*
X267962Y306892D01*
X267886Y306821D01*
X267798Y306750D01*
X267711Y306674D01*
X267705Y306668D01*
X267694Y306658D01*
X267673Y306641D01*
X267645Y306619D01*
X267613Y306587D01*
X267574Y306554D01*
X267487Y306483D01*
X267394Y306401D01*
X267307Y306319D01*
X267230Y306248D01*
X267198Y306221D01*
X267170Y306193D01*
X267165Y306188D01*
X267148Y306172D01*
X267127Y306150D01*
X267099Y306117D01*
X267072Y306079D01*
X267039Y306041D01*
X266974Y305948D01*
X268836D01*
Y305500D01*
X266330D01*
Y305505D01*
Y305527D01*
Y305560D01*
X266335Y305604D01*
X266340Y305653D01*
X266351Y305708D01*
X266362Y305762D01*
X266384Y305822D01*
Y305828D01*
X266389Y305833D01*
X266401Y305866D01*
X266422Y305915D01*
X266455Y305980D01*
X266499Y306057D01*
X266553Y306144D01*
X266613Y306232D01*
X266690Y306325D01*
Y306330D01*
X266701Y306335D01*
X266728Y306368D01*
X266777Y306417D01*
X266848Y306488D01*
X266930Y306570D01*
X267034Y306668D01*
X267159Y306778D01*
X267296Y306892D01*
X267301Y306898D01*
X267323Y306914D01*
X267356Y306941D01*
X267394Y306974D01*
X267443Y307018D01*
X267503Y307067D01*
X267563Y307122D01*
X267634Y307182D01*
X267771Y307313D01*
X267907Y307444D01*
X267973Y307509D01*
X268033Y307575D01*
X268088Y307635D01*
X268131Y307695D01*
Y307700D01*
X268142Y307706D01*
X268153Y307722D01*
X268164Y307744D01*
X268202Y307804D01*
X268246Y307875D01*
X268284Y307962D01*
X268322Y308055D01*
X268344Y308159D01*
X268355Y308257D01*
Y308263D01*
Y308268D01*
X268350Y308301D01*
X268344Y308356D01*
X268328Y308416D01*
X268306Y308492D01*
X268268Y308569D01*
X268219Y308645D01*
X268153Y308721D01*
X268142Y308732D01*
X268115Y308754D01*
X268077Y308782D01*
X268017Y308820D01*
X267940Y308852D01*
X267853Y308885D01*
X267749Y308907D01*
X267634Y308912D01*
X267602D01*
X267580Y308907D01*
X267514Y308902D01*
X267438Y308885D01*
X267356Y308863D01*
X267263Y308825D01*
X267176Y308776D01*
X267094Y308711D01*
X267083Y308700D01*
X267061Y308672D01*
X267028Y308629D01*
X266996Y308563D01*
X266957Y308487D01*
X266925Y308388D01*
X266903Y308279D01*
X266892Y308154D01*
X266417Y308203D01*
Y308208D01*
X266422Y308225D01*
Y308252D01*
X266428Y308290D01*
X266439Y308334D01*
X266450Y308383D01*
X266466Y308443D01*
X266482Y308503D01*
X266526Y308634D01*
X266592Y308765D01*
X266630Y308831D01*
X266679Y308896D01*
X266728Y308956D01*
X266783Y309011D01*
X266788Y309016D01*
X266799Y309022D01*
X266815Y309038D01*
X266843Y309054D01*
X266876Y309076D01*
X266914Y309098D01*
X266957Y309125D01*
X267012Y309153D01*
X267072Y309180D01*
X267138Y309207D01*
X267209Y309229D01*
X267285Y309251D01*
X267367Y309267D01*
X267454Y309284D01*
X267547Y309289D01*
X267645Y309295D01*
X267700D01*
X267738Y309289D01*
D02*
G37*
G36*
X264195Y309338D02*
X264244D01*
X264293Y309333D01*
X264358Y309322D01*
X264424Y309311D01*
X264566Y309284D01*
X264730Y309240D01*
X264888Y309175D01*
X264970Y309136D01*
X265052Y309093D01*
X265057Y309087D01*
X265068Y309082D01*
X265090Y309065D01*
X265123Y309049D01*
X265156Y309022D01*
X265199Y308989D01*
X265292Y308912D01*
X265390Y308814D01*
X265500Y308694D01*
X265603Y308552D01*
X265691Y308394D01*
Y308388D01*
X265702Y308372D01*
X265712Y308350D01*
X265723Y308317D01*
X265745Y308274D01*
X265762Y308225D01*
X265784Y308165D01*
X265805Y308099D01*
X265822Y308028D01*
X265844Y307951D01*
X265865Y307870D01*
X265882Y307782D01*
X265904Y307591D01*
X265915Y307389D01*
Y307384D01*
Y307367D01*
Y307346D01*
Y307313D01*
X265909Y307269D01*
Y307220D01*
X265904Y307165D01*
X265898Y307111D01*
X265882Y306980D01*
X265855Y306838D01*
X265822Y306690D01*
X265773Y306548D01*
Y306543D01*
X265767Y306532D01*
X265756Y306510D01*
X265745Y306488D01*
X265729Y306455D01*
X265712Y306417D01*
X265669Y306330D01*
X265609Y306226D01*
X265532Y306117D01*
X265445Y306008D01*
X265347Y305899D01*
X265352D01*
X265363Y305888D01*
X265379Y305877D01*
X265407Y305860D01*
X265434Y305838D01*
X265472Y305817D01*
X265554Y305767D01*
X265652Y305708D01*
X265762Y305647D01*
X265876Y305598D01*
X265985Y305549D01*
X265838Y305205D01*
X265833D01*
X265822Y305211D01*
X265800Y305222D01*
X265767Y305233D01*
X265729Y305249D01*
X265685Y305271D01*
X265636Y305293D01*
X265581Y305320D01*
X265461Y305385D01*
X265325Y305462D01*
X265177Y305560D01*
X265024Y305669D01*
X265019D01*
X265008Y305658D01*
X264981Y305647D01*
X264954Y305631D01*
X264910Y305615D01*
X264866Y305593D01*
X264812Y305576D01*
X264752Y305555D01*
X264686Y305533D01*
X264615Y305511D01*
X264457Y305473D01*
X264282Y305445D01*
X264189Y305440D01*
X264096Y305434D01*
X264047D01*
X264009Y305440D01*
X263965D01*
X263911Y305445D01*
X263851Y305456D01*
X263785Y305467D01*
X263643Y305494D01*
X263485Y305538D01*
X263321Y305598D01*
X263245Y305637D01*
X263163Y305680D01*
X263157Y305686D01*
X263146Y305691D01*
X263124Y305708D01*
X263097Y305724D01*
X263059Y305751D01*
X263021Y305784D01*
X262928Y305860D01*
X262824Y305959D01*
X262720Y306079D01*
X262617Y306215D01*
X262524Y306374D01*
Y306379D01*
X262513Y306395D01*
X262502Y306417D01*
X262491Y306450D01*
X262475Y306494D01*
X262453Y306543D01*
X262431Y306603D01*
X262415Y306668D01*
X262393Y306739D01*
X262371Y306816D01*
X262355Y306898D01*
X262333Y306991D01*
X262311Y307182D01*
X262300Y307384D01*
Y307389D01*
Y307411D01*
Y307438D01*
X262305Y307476D01*
Y307526D01*
X262311Y307586D01*
X262316Y307651D01*
X262327Y307722D01*
X262355Y307881D01*
X262393Y308050D01*
X262447Y308230D01*
X262524Y308405D01*
X262529Y308410D01*
X262535Y308427D01*
X262546Y308448D01*
X262567Y308481D01*
X262589Y308519D01*
X262617Y308563D01*
X262693Y308667D01*
X262780Y308776D01*
X262895Y308891D01*
X263021Y309005D01*
X263168Y309104D01*
X263174Y309109D01*
X263190Y309115D01*
X263212Y309125D01*
X263245Y309142D01*
X263283Y309158D01*
X263327Y309180D01*
X263381Y309202D01*
X263441Y309224D01*
X263512Y309246D01*
X263583Y309267D01*
X263741Y309306D01*
X263916Y309333D01*
X264009Y309344D01*
X264156D01*
X264195Y309338D01*
D02*
G37*
G36*
X445042Y403100D02*
X444578D01*
Y406054D01*
X444573Y406048D01*
X444545Y406027D01*
X444513Y405994D01*
X444458Y405956D01*
X444398Y405906D01*
X444321Y405852D01*
X444234Y405792D01*
X444136Y405732D01*
X444130D01*
X444125Y405726D01*
X444092Y405704D01*
X444038Y405677D01*
X443972Y405644D01*
X443896Y405606D01*
X443814Y405568D01*
X443732Y405530D01*
X443650Y405497D01*
Y405945D01*
X443655D01*
X443666Y405956D01*
X443688Y405961D01*
X443715Y405977D01*
X443748Y405994D01*
X443786Y406016D01*
X443879Y406070D01*
X443988Y406130D01*
X444098Y406207D01*
X444212Y406294D01*
X444327Y406387D01*
X444332Y406392D01*
X444338Y406398D01*
X444354Y406414D01*
X444376Y406431D01*
X444425Y406485D01*
X444491Y406551D01*
X444556Y406627D01*
X444627Y406714D01*
X444687Y406802D01*
X444742Y406895D01*
X445042D01*
Y403100D01*
D02*
G37*
G36*
X441095Y406938D02*
X441144D01*
X441193Y406933D01*
X441258Y406922D01*
X441324Y406911D01*
X441466Y406884D01*
X441630Y406840D01*
X441788Y406775D01*
X441870Y406736D01*
X441952Y406693D01*
X441957Y406687D01*
X441968Y406682D01*
X441990Y406665D01*
X442023Y406649D01*
X442056Y406622D01*
X442099Y406589D01*
X442192Y406512D01*
X442290Y406414D01*
X442400Y406294D01*
X442503Y406152D01*
X442591Y405994D01*
Y405988D01*
X442602Y405972D01*
X442613Y405950D01*
X442623Y405917D01*
X442645Y405874D01*
X442662Y405825D01*
X442684Y405764D01*
X442705Y405699D01*
X442722Y405628D01*
X442743Y405551D01*
X442765Y405470D01*
X442782Y405382D01*
X442804Y405191D01*
X442814Y404989D01*
Y404984D01*
Y404967D01*
Y404946D01*
Y404913D01*
X442809Y404869D01*
Y404820D01*
X442804Y404765D01*
X442798Y404711D01*
X442782Y404580D01*
X442755Y404438D01*
X442722Y404290D01*
X442673Y404148D01*
Y404143D01*
X442667Y404132D01*
X442656Y404110D01*
X442645Y404088D01*
X442629Y404056D01*
X442613Y404017D01*
X442569Y403930D01*
X442509Y403826D01*
X442432Y403717D01*
X442345Y403608D01*
X442247Y403499D01*
X442252D01*
X442263Y403488D01*
X442279Y403477D01*
X442307Y403460D01*
X442334Y403439D01*
X442372Y403417D01*
X442454Y403368D01*
X442552Y403307D01*
X442662Y403247D01*
X442776Y403198D01*
X442885Y403149D01*
X442738Y402805D01*
X442733D01*
X442722Y402811D01*
X442700Y402821D01*
X442667Y402833D01*
X442629Y402849D01*
X442585Y402871D01*
X442536Y402892D01*
X442482Y402920D01*
X442361Y402985D01*
X442225Y403062D01*
X442077Y403160D01*
X441924Y403269D01*
X441919D01*
X441908Y403258D01*
X441881Y403247D01*
X441854Y403231D01*
X441810Y403215D01*
X441766Y403193D01*
X441712Y403176D01*
X441651Y403155D01*
X441586Y403133D01*
X441515Y403111D01*
X441357Y403073D01*
X441182Y403045D01*
X441089Y403040D01*
X440996Y403034D01*
X440947D01*
X440909Y403040D01*
X440865D01*
X440811Y403045D01*
X440751Y403056D01*
X440685Y403067D01*
X440543Y403094D01*
X440385Y403138D01*
X440221Y403198D01*
X440145Y403236D01*
X440063Y403280D01*
X440057Y403286D01*
X440046Y403291D01*
X440025Y403307D01*
X439997Y403324D01*
X439959Y403351D01*
X439921Y403384D01*
X439828Y403460D01*
X439724Y403559D01*
X439620Y403679D01*
X439517Y403815D01*
X439424Y403974D01*
Y403979D01*
X439413Y403995D01*
X439402Y404017D01*
X439391Y404050D01*
X439375Y404094D01*
X439353Y404143D01*
X439331Y404203D01*
X439315Y404268D01*
X439293Y404339D01*
X439271Y404416D01*
X439255Y404498D01*
X439233Y404591D01*
X439211Y404782D01*
X439200Y404984D01*
Y404989D01*
Y405011D01*
Y405038D01*
X439206Y405077D01*
Y405126D01*
X439211Y405186D01*
X439216Y405251D01*
X439227Y405322D01*
X439255Y405481D01*
X439293Y405650D01*
X439347Y405830D01*
X439424Y406005D01*
X439429Y406010D01*
X439435Y406027D01*
X439446Y406048D01*
X439467Y406081D01*
X439489Y406119D01*
X439517Y406163D01*
X439593Y406267D01*
X439680Y406376D01*
X439795Y406491D01*
X439921Y406605D01*
X440068Y406704D01*
X440074Y406709D01*
X440090Y406714D01*
X440112Y406725D01*
X440145Y406742D01*
X440183Y406758D01*
X440227Y406780D01*
X440281Y406802D01*
X440341Y406824D01*
X440412Y406846D01*
X440483Y406867D01*
X440641Y406906D01*
X440816Y406933D01*
X440909Y406944D01*
X441056D01*
X441095Y406938D01*
D02*
G37*
G36*
X258819Y358589D02*
X258890Y358578D01*
X258977Y358562D01*
X259075Y358535D01*
X259173Y358502D01*
X259272Y358458D01*
X259277D01*
X259283Y358453D01*
X259315Y358436D01*
X259365Y358404D01*
X259419Y358365D01*
X259485Y358311D01*
X259550Y358251D01*
X259616Y358180D01*
X259670Y358098D01*
X259676Y358087D01*
X259692Y358060D01*
X259714Y358011D01*
X259741Y357950D01*
X259769Y357879D01*
X259790Y357798D01*
X259807Y357705D01*
X259812Y357612D01*
Y357601D01*
Y357568D01*
X259807Y357524D01*
X259796Y357465D01*
X259780Y357394D01*
X259752Y357317D01*
X259719Y357241D01*
X259676Y357164D01*
X259670Y357153D01*
X259654Y357131D01*
X259621Y357093D01*
X259577Y357049D01*
X259523Y357000D01*
X259457Y356946D01*
X259381Y356897D01*
X259288Y356848D01*
X259294D01*
X259304Y356842D01*
X259321Y356837D01*
X259343Y356831D01*
X259403Y356809D01*
X259479Y356776D01*
X259567Y356733D01*
X259654Y356678D01*
X259736Y356607D01*
X259812Y356525D01*
X259818Y356514D01*
X259840Y356482D01*
X259872Y356427D01*
X259905Y356356D01*
X259938Y356269D01*
X259971Y356165D01*
X259993Y356045D01*
X259998Y355914D01*
Y355908D01*
Y355892D01*
Y355865D01*
X259993Y355832D01*
X259987Y355788D01*
X259976Y355739D01*
X259965Y355684D01*
X259954Y355625D01*
X259911Y355493D01*
X259878Y355422D01*
X259845Y355357D01*
X259801Y355286D01*
X259752Y355215D01*
X259698Y355144D01*
X259632Y355079D01*
X259627Y355073D01*
X259616Y355062D01*
X259594Y355046D01*
X259567Y355024D01*
X259534Y354997D01*
X259490Y354969D01*
X259441Y354937D01*
X259381Y354909D01*
X259321Y354876D01*
X259250Y354844D01*
X259179Y354816D01*
X259097Y354789D01*
X259010Y354767D01*
X258917Y354751D01*
X258824Y354740D01*
X258720Y354734D01*
X258671D01*
X258638Y354740D01*
X258595Y354745D01*
X258546Y354751D01*
X258491Y354762D01*
X258431Y354773D01*
X258300Y354805D01*
X258163Y354860D01*
X258092Y354893D01*
X258027Y354931D01*
X257961Y354980D01*
X257896Y355029D01*
X257890Y355035D01*
X257879Y355046D01*
X257863Y355062D01*
X257847Y355084D01*
X257819Y355111D01*
X257792Y355149D01*
X257759Y355188D01*
X257727Y355237D01*
X257694Y355291D01*
X257661Y355346D01*
X257601Y355477D01*
X257552Y355630D01*
X257536Y355712D01*
X257524Y355799D01*
X257989Y355859D01*
Y355854D01*
X257994Y355843D01*
X258000Y355821D01*
X258005Y355794D01*
X258011Y355761D01*
X258021Y355723D01*
X258049Y355641D01*
X258087Y355543D01*
X258136Y355450D01*
X258191Y355362D01*
X258256Y355286D01*
X258267Y355280D01*
X258289Y355259D01*
X258333Y355231D01*
X258387Y355204D01*
X258453Y355171D01*
X258535Y355144D01*
X258628Y355122D01*
X258726Y355117D01*
X258758D01*
X258780Y355122D01*
X258840Y355128D01*
X258917Y355144D01*
X259004Y355171D01*
X259097Y355209D01*
X259190Y355264D01*
X259277Y355341D01*
X259288Y355351D01*
X259315Y355384D01*
X259348Y355433D01*
X259392Y355499D01*
X259436Y355581D01*
X259468Y355674D01*
X259496Y355783D01*
X259507Y355903D01*
Y355908D01*
Y355919D01*
Y355936D01*
X259501Y355958D01*
X259496Y356018D01*
X259479Y356089D01*
X259457Y356176D01*
X259419Y356263D01*
X259365Y356351D01*
X259294Y356433D01*
X259283Y356444D01*
X259255Y356465D01*
X259212Y356498D01*
X259152Y356536D01*
X259075Y356575D01*
X258982Y356607D01*
X258879Y356629D01*
X258764Y356640D01*
X258715D01*
X258677Y356635D01*
X258628Y356629D01*
X258573Y356618D01*
X258507Y356607D01*
X258436Y356591D01*
X258491Y357000D01*
X258518D01*
X258540Y356995D01*
X258611D01*
X258671Y357006D01*
X258742Y357017D01*
X258824Y357033D01*
X258917Y357060D01*
X259004Y357099D01*
X259097Y357148D01*
X259103D01*
X259108Y357153D01*
X259135Y357175D01*
X259173Y357213D01*
X259217Y357262D01*
X259261Y357333D01*
X259299Y357415D01*
X259326Y357508D01*
X259337Y357563D01*
Y357623D01*
Y357628D01*
Y357634D01*
Y357666D01*
X259326Y357710D01*
X259315Y357770D01*
X259294Y357836D01*
X259266Y357907D01*
X259223Y357978D01*
X259162Y358043D01*
X259157Y358049D01*
X259130Y358070D01*
X259092Y358098D01*
X259042Y358131D01*
X258977Y358158D01*
X258900Y358185D01*
X258813Y358207D01*
X258715Y358212D01*
X258671D01*
X258622Y358202D01*
X258557Y358191D01*
X258486Y358169D01*
X258415Y358141D01*
X258338Y358098D01*
X258267Y358043D01*
X258262Y358038D01*
X258240Y358011D01*
X258207Y357972D01*
X258169Y357918D01*
X258131Y357847D01*
X258092Y357759D01*
X258060Y357656D01*
X258038Y357536D01*
X257574Y357617D01*
Y357623D01*
X257579Y357639D01*
X257585Y357661D01*
X257590Y357694D01*
X257601Y357732D01*
X257617Y357776D01*
X257650Y357879D01*
X257705Y358000D01*
X257770Y358120D01*
X257852Y358234D01*
X257956Y358338D01*
X257961Y358344D01*
X257972Y358349D01*
X257989Y358360D01*
X258011Y358376D01*
X258038Y358398D01*
X258076Y358420D01*
X258114Y358442D01*
X258163Y358469D01*
X258273Y358513D01*
X258398Y358557D01*
X258546Y358584D01*
X258622Y358595D01*
X258758D01*
X258819Y358589D01*
D02*
G37*
G36*
X256891Y356001D02*
Y355996D01*
Y355979D01*
Y355958D01*
Y355925D01*
X256886Y355881D01*
Y355837D01*
X256875Y355734D01*
X256864Y355613D01*
X256842Y355488D01*
X256809Y355373D01*
X256771Y355264D01*
Y355259D01*
X256766Y355253D01*
X256749Y355220D01*
X256722Y355177D01*
X256684Y355117D01*
X256629Y355057D01*
X256569Y354991D01*
X256493Y354926D01*
X256405Y354871D01*
X256394Y354866D01*
X256362Y354849D01*
X256312Y354827D01*
X256241Y354805D01*
X256154Y354778D01*
X256056Y354756D01*
X255947Y354740D01*
X255826Y354734D01*
X255777D01*
X255745Y354740D01*
X255701Y354745D01*
X255657Y354751D01*
X255543Y354773D01*
X255422Y354805D01*
X255297Y354855D01*
X255231Y354887D01*
X255171Y354926D01*
X255117Y354969D01*
X255062Y355018D01*
X255057Y355024D01*
X255051Y355029D01*
X255040Y355051D01*
X255024Y355073D01*
X255002Y355100D01*
X254980Y355138D01*
X254958Y355182D01*
X254931Y355231D01*
X254909Y355286D01*
X254887Y355351D01*
X254866Y355417D01*
X254844Y355493D01*
X254833Y355575D01*
X254816Y355668D01*
X254811Y355761D01*
Y355865D01*
X255264Y355930D01*
Y355925D01*
Y355914D01*
Y355892D01*
X255270Y355859D01*
X255275Y355826D01*
Y355788D01*
X255291Y355695D01*
X255308Y355597D01*
X255341Y355499D01*
X255373Y355412D01*
X255395Y355373D01*
X255422Y355341D01*
X255428Y355335D01*
X255450Y355319D01*
X255483Y355291D01*
X255526Y355264D01*
X255586Y355231D01*
X255652Y355209D01*
X255734Y355188D01*
X255821Y355182D01*
X255854D01*
X255887Y355188D01*
X255936Y355193D01*
X255985Y355204D01*
X256039Y355215D01*
X256094Y355237D01*
X256149Y355264D01*
X256154Y355270D01*
X256171Y355280D01*
X256192Y355302D01*
X256225Y355324D01*
X256252Y355362D01*
X256285Y355401D01*
X256312Y355444D01*
X256334Y355499D01*
Y355504D01*
X256345Y355526D01*
X256351Y355564D01*
X256362Y355613D01*
X256372Y355679D01*
X256378Y355761D01*
X256389Y355859D01*
Y355974D01*
Y358578D01*
X256891D01*
Y356001D01*
D02*
G37*
G36*
X258391Y418701D02*
Y418696D01*
Y418679D01*
Y418657D01*
Y418625D01*
X258386Y418581D01*
Y418537D01*
X258375Y418434D01*
X258364Y418314D01*
X258342Y418188D01*
X258309Y418073D01*
X258271Y417964D01*
Y417959D01*
X258266Y417953D01*
X258249Y417920D01*
X258222Y417877D01*
X258184Y417817D01*
X258129Y417757D01*
X258069Y417691D01*
X257993Y417626D01*
X257905Y417571D01*
X257894Y417565D01*
X257862Y417549D01*
X257812Y417527D01*
X257741Y417506D01*
X257654Y417478D01*
X257556Y417456D01*
X257447Y417440D01*
X257327Y417435D01*
X257277D01*
X257245Y417440D01*
X257201Y417445D01*
X257157Y417451D01*
X257043Y417473D01*
X256922Y417506D01*
X256797Y417555D01*
X256731Y417587D01*
X256671Y417626D01*
X256617Y417669D01*
X256562Y417718D01*
X256557Y417724D01*
X256551Y417729D01*
X256540Y417751D01*
X256524Y417773D01*
X256502Y417800D01*
X256480Y417838D01*
X256458Y417882D01*
X256431Y417931D01*
X256409Y417986D01*
X256387Y418051D01*
X256365Y418117D01*
X256344Y418193D01*
X256333Y418275D01*
X256316Y418368D01*
X256311Y418461D01*
Y418565D01*
X256764Y418630D01*
Y418625D01*
Y418614D01*
Y418592D01*
X256770Y418559D01*
X256775Y418527D01*
Y418488D01*
X256791Y418395D01*
X256808Y418297D01*
X256840Y418199D01*
X256873Y418112D01*
X256895Y418073D01*
X256922Y418041D01*
X256928Y418035D01*
X256950Y418019D01*
X256982Y417991D01*
X257026Y417964D01*
X257086Y417931D01*
X257152Y417909D01*
X257234Y417888D01*
X257321Y417882D01*
X257354D01*
X257386Y417888D01*
X257436Y417893D01*
X257485Y417904D01*
X257539Y417915D01*
X257594Y417937D01*
X257649Y417964D01*
X257654Y417970D01*
X257670Y417980D01*
X257692Y418002D01*
X257725Y418024D01*
X257752Y418062D01*
X257785Y418101D01*
X257812Y418144D01*
X257834Y418199D01*
Y418204D01*
X257845Y418226D01*
X257851Y418264D01*
X257862Y418314D01*
X257873Y418379D01*
X257878Y418461D01*
X257889Y418559D01*
Y418674D01*
Y421278D01*
X258391D01*
Y418701D01*
D02*
G37*
G36*
X260362Y421289D02*
X260406Y421284D01*
X260460Y421278D01*
X260521Y421267D01*
X260581Y421256D01*
X260723Y421218D01*
X260865Y421164D01*
X260935Y421131D01*
X261006Y421093D01*
X261072Y421043D01*
X261132Y420989D01*
X261138Y420984D01*
X261149Y420978D01*
X261159Y420956D01*
X261181Y420934D01*
X261209Y420907D01*
X261236Y420869D01*
X261263Y420831D01*
X261296Y420782D01*
X261350Y420678D01*
X261405Y420547D01*
X261427Y420481D01*
X261438Y420405D01*
X261449Y420328D01*
X261454Y420246D01*
Y420235D01*
Y420208D01*
X261449Y420164D01*
X261443Y420104D01*
X261432Y420039D01*
X261411Y419963D01*
X261389Y419881D01*
X261356Y419799D01*
X261350Y419788D01*
X261340Y419760D01*
X261318Y419717D01*
X261285Y419657D01*
X261241Y419591D01*
X261187Y419509D01*
X261121Y419427D01*
X261045Y419335D01*
X261034Y419324D01*
X261006Y419291D01*
X260979Y419264D01*
X260952Y419236D01*
X260919Y419204D01*
X260876Y419160D01*
X260832Y419116D01*
X260777Y419067D01*
X260723Y419012D01*
X260657Y418952D01*
X260586Y418892D01*
X260510Y418821D01*
X260422Y418750D01*
X260335Y418674D01*
X260330Y418668D01*
X260319Y418657D01*
X260297Y418641D01*
X260269Y418619D01*
X260237Y418586D01*
X260198Y418554D01*
X260111Y418483D01*
X260018Y418401D01*
X259931Y418319D01*
X259855Y418248D01*
X259822Y418221D01*
X259794Y418193D01*
X259789Y418188D01*
X259773Y418172D01*
X259751Y418150D01*
X259723Y418117D01*
X259696Y418079D01*
X259663Y418041D01*
X259598Y417948D01*
X261460D01*
Y417500D01*
X258954D01*
Y417506D01*
Y417527D01*
Y417560D01*
X258959Y417604D01*
X258964Y417653D01*
X258975Y417707D01*
X258986Y417762D01*
X259008Y417822D01*
Y417828D01*
X259014Y417833D01*
X259025Y417866D01*
X259046Y417915D01*
X259079Y417980D01*
X259123Y418057D01*
X259177Y418144D01*
X259238Y418232D01*
X259314Y418325D01*
Y418330D01*
X259325Y418335D01*
X259352Y418368D01*
X259401Y418417D01*
X259472Y418488D01*
X259554Y418570D01*
X259658Y418668D01*
X259784Y418778D01*
X259920Y418892D01*
X259925Y418898D01*
X259947Y418914D01*
X259980Y418941D01*
X260018Y418974D01*
X260067Y419018D01*
X260127Y419067D01*
X260188Y419122D01*
X260259Y419182D01*
X260395Y419313D01*
X260531Y419444D01*
X260597Y419509D01*
X260657Y419575D01*
X260712Y419635D01*
X260755Y419695D01*
Y419700D01*
X260766Y419706D01*
X260777Y419722D01*
X260788Y419744D01*
X260826Y419804D01*
X260870Y419875D01*
X260908Y419963D01*
X260946Y420055D01*
X260968Y420159D01*
X260979Y420257D01*
Y420263D01*
Y420268D01*
X260974Y420301D01*
X260968Y420356D01*
X260952Y420416D01*
X260930Y420492D01*
X260892Y420569D01*
X260843Y420645D01*
X260777Y420721D01*
X260766Y420732D01*
X260739Y420754D01*
X260701Y420782D01*
X260641Y420820D01*
X260564Y420852D01*
X260477Y420885D01*
X260373Y420907D01*
X260259Y420913D01*
X260226D01*
X260204Y420907D01*
X260138Y420902D01*
X260062Y420885D01*
X259980Y420863D01*
X259887Y420825D01*
X259800Y420776D01*
X259718Y420711D01*
X259707Y420700D01*
X259685Y420672D01*
X259652Y420629D01*
X259620Y420563D01*
X259581Y420487D01*
X259549Y420388D01*
X259527Y420279D01*
X259516Y420154D01*
X259041Y420203D01*
Y420208D01*
X259046Y420225D01*
Y420252D01*
X259052Y420290D01*
X259063Y420334D01*
X259074Y420383D01*
X259090Y420443D01*
X259106Y420503D01*
X259150Y420634D01*
X259216Y420765D01*
X259254Y420831D01*
X259303Y420896D01*
X259352Y420956D01*
X259407Y421011D01*
X259412Y421016D01*
X259423Y421022D01*
X259439Y421038D01*
X259467Y421055D01*
X259500Y421076D01*
X259538Y421098D01*
X259581Y421125D01*
X259636Y421153D01*
X259696Y421180D01*
X259762Y421207D01*
X259833Y421229D01*
X259909Y421251D01*
X259991Y421267D01*
X260078Y421284D01*
X260171Y421289D01*
X260269Y421295D01*
X260324D01*
X260362Y421289D01*
D02*
G37*
G36*
X270373Y452338D02*
X270422Y452333D01*
X270482Y452327D01*
X270542Y452322D01*
X270613Y452306D01*
X270760Y452273D01*
X270924Y452224D01*
X271006Y452191D01*
X271083Y452153D01*
X271159Y452104D01*
X271235Y452055D01*
X271241Y452049D01*
X271252Y452043D01*
X271274Y452027D01*
X271301Y452000D01*
X271328Y451973D01*
X271367Y451934D01*
X271405Y451891D01*
X271448Y451847D01*
X271492Y451792D01*
X271536Y451727D01*
X271585Y451661D01*
X271629Y451590D01*
X271667Y451509D01*
X271710Y451427D01*
X271743Y451339D01*
X271776Y451241D01*
X271285Y451126D01*
Y451132D01*
X271279Y451143D01*
X271268Y451164D01*
X271257Y451192D01*
X271246Y451225D01*
X271230Y451268D01*
X271186Y451356D01*
X271132Y451454D01*
X271066Y451552D01*
X270984Y451645D01*
X270897Y451727D01*
X270886Y451738D01*
X270853Y451760D01*
X270799Y451787D01*
X270728Y451825D01*
X270635Y451858D01*
X270531Y451891D01*
X270406Y451912D01*
X270269Y451918D01*
X270225D01*
X270198Y451912D01*
X270160D01*
X270116Y451907D01*
X270012Y451891D01*
X269898Y451869D01*
X269778Y451831D01*
X269652Y451776D01*
X269537Y451705D01*
X269532D01*
X269527Y451694D01*
X269488Y451667D01*
X269439Y451623D01*
X269379Y451558D01*
X269308Y451476D01*
X269243Y451383D01*
X269182Y451268D01*
X269128Y451143D01*
Y451137D01*
X269122Y451126D01*
X269117Y451110D01*
X269111Y451083D01*
X269101Y451050D01*
X269090Y451012D01*
X269073Y450919D01*
X269052Y450810D01*
X269030Y450690D01*
X269019Y450558D01*
X269013Y450417D01*
Y450411D01*
Y450395D01*
Y450367D01*
Y450335D01*
X269019Y450296D01*
Y450247D01*
X269024Y450193D01*
X269030Y450133D01*
X269046Y450001D01*
X269073Y449860D01*
X269106Y449718D01*
X269150Y449576D01*
Y449570D01*
X269155Y449559D01*
X269166Y449543D01*
X269177Y449516D01*
X269210Y449450D01*
X269259Y449374D01*
X269319Y449286D01*
X269395Y449193D01*
X269483Y449112D01*
X269586Y449035D01*
X269592D01*
X269603Y449030D01*
X269619Y449019D01*
X269641Y449008D01*
X269668Y448997D01*
X269701Y448981D01*
X269778Y448948D01*
X269876Y448915D01*
X269985Y448888D01*
X270105Y448866D01*
X270231Y448860D01*
X270269D01*
X270302Y448866D01*
X270340D01*
X270378Y448871D01*
X270477Y448893D01*
X270591Y448920D01*
X270706Y448964D01*
X270826Y449024D01*
X270886Y449057D01*
X270941Y449101D01*
X270946Y449106D01*
X270952Y449112D01*
X270968Y449128D01*
X270990Y449144D01*
X271012Y449172D01*
X271039Y449204D01*
X271072Y449237D01*
X271099Y449281D01*
X271132Y449330D01*
X271170Y449384D01*
X271203Y449439D01*
X271235Y449505D01*
X271263Y449576D01*
X271290Y449652D01*
X271317Y449734D01*
X271339Y449821D01*
X271842Y449696D01*
Y449690D01*
X271836Y449668D01*
X271825Y449636D01*
X271809Y449592D01*
X271792Y449543D01*
X271771Y449483D01*
X271743Y449417D01*
X271710Y449346D01*
X271634Y449193D01*
X271536Y449041D01*
X271476Y448964D01*
X271416Y448888D01*
X271350Y448822D01*
X271274Y448757D01*
X271268Y448751D01*
X271257Y448740D01*
X271230Y448729D01*
X271203Y448707D01*
X271159Y448680D01*
X271115Y448653D01*
X271055Y448626D01*
X270995Y448598D01*
X270924Y448565D01*
X270848Y448538D01*
X270766Y448511D01*
X270678Y448484D01*
X270586Y448462D01*
X270487Y448451D01*
X270384Y448440D01*
X270274Y448434D01*
X270214D01*
X270171Y448440D01*
X270122D01*
X270062Y448445D01*
X269996Y448456D01*
X269920Y448467D01*
X269761Y448494D01*
X269598Y448538D01*
X269434Y448598D01*
X269357Y448636D01*
X269281Y448680D01*
X269275Y448686D01*
X269264Y448691D01*
X269243Y448707D01*
X269221Y448729D01*
X269188Y448751D01*
X269150Y448784D01*
X269106Y448822D01*
X269062Y448866D01*
X269019Y448915D01*
X268970Y448964D01*
X268871Y449090D01*
X268778Y449237D01*
X268697Y449401D01*
Y449406D01*
X268686Y449423D01*
X268680Y449450D01*
X268664Y449483D01*
X268653Y449527D01*
X268636Y449581D01*
X268615Y449641D01*
X268598Y449707D01*
X268582Y449778D01*
X268560Y449860D01*
X268533Y450029D01*
X268511Y450220D01*
X268500Y450417D01*
Y450422D01*
Y450444D01*
Y450477D01*
X268506Y450515D01*
Y450569D01*
X268511Y450624D01*
X268516Y450695D01*
X268527Y450766D01*
X268555Y450924D01*
X268593Y451099D01*
X268647Y451274D01*
X268724Y451443D01*
X268729Y451448D01*
X268735Y451465D01*
X268746Y451487D01*
X268767Y451514D01*
X268789Y451552D01*
X268817Y451596D01*
X268888Y451694D01*
X268981Y451803D01*
X269090Y451912D01*
X269215Y452022D01*
X269363Y452114D01*
X269368Y452120D01*
X269385Y452125D01*
X269406Y452136D01*
X269434Y452153D01*
X269477Y452169D01*
X269521Y452185D01*
X269576Y452207D01*
X269636Y452229D01*
X269701Y452251D01*
X269772Y452273D01*
X269925Y452306D01*
X270100Y452333D01*
X270280Y452344D01*
X270335D01*
X270373Y452338D01*
D02*
G37*
G36*
X274593Y451787D02*
X273081D01*
X272879Y450766D01*
X272884Y450771D01*
X272895Y450777D01*
X272912Y450788D01*
X272939Y450804D01*
X272972Y450820D01*
X273010Y450842D01*
X273097Y450886D01*
X273206Y450930D01*
X273327Y450968D01*
X273458Y450995D01*
X273523Y451006D01*
X273643D01*
X273676Y451001D01*
X273720Y450995D01*
X273769Y450990D01*
X273823Y450979D01*
X273884Y450962D01*
X274015Y450924D01*
X274086Y450897D01*
X274157Y450859D01*
X274227Y450820D01*
X274299Y450777D01*
X274364Y450722D01*
X274430Y450662D01*
X274435Y450657D01*
X274446Y450646D01*
X274462Y450629D01*
X274484Y450602D01*
X274512Y450564D01*
X274539Y450526D01*
X274571Y450477D01*
X274604Y450422D01*
X274632Y450362D01*
X274664Y450296D01*
X274692Y450220D01*
X274719Y450143D01*
X274741Y450062D01*
X274757Y449969D01*
X274768Y449876D01*
X274774Y449778D01*
Y449772D01*
Y449756D01*
Y449728D01*
X274768Y449690D01*
X274763Y449647D01*
X274757Y449598D01*
X274746Y449537D01*
X274735Y449477D01*
X274703Y449335D01*
X274648Y449188D01*
X274615Y449112D01*
X274571Y449041D01*
X274528Y448964D01*
X274473Y448893D01*
X274468Y448888D01*
X274457Y448871D01*
X274435Y448849D01*
X274408Y448822D01*
X274370Y448789D01*
X274326Y448746D01*
X274271Y448707D01*
X274211Y448664D01*
X274146Y448620D01*
X274069Y448582D01*
X273987Y448544D01*
X273900Y448505D01*
X273807Y448478D01*
X273703Y448456D01*
X273594Y448440D01*
X273480Y448434D01*
X273430D01*
X273392Y448440D01*
X273348Y448445D01*
X273299Y448451D01*
X273239Y448456D01*
X273179Y448473D01*
X273043Y448505D01*
X272906Y448555D01*
X272835Y448587D01*
X272764Y448626D01*
X272699Y448669D01*
X272633Y448718D01*
X272628Y448724D01*
X272617Y448729D01*
X272606Y448751D01*
X272584Y448773D01*
X272557Y448800D01*
X272530Y448833D01*
X272497Y448877D01*
X272469Y448926D01*
X272437Y448975D01*
X272404Y449035D01*
X272344Y449166D01*
X272295Y449319D01*
X272278Y449401D01*
X272267Y449488D01*
X272753Y449527D01*
Y449521D01*
Y449510D01*
X272759Y449494D01*
X272764Y449466D01*
X272781Y449406D01*
X272802Y449325D01*
X272835Y449243D01*
X272879Y449150D01*
X272934Y449068D01*
X272999Y448991D01*
X273010Y448986D01*
X273032Y448964D01*
X273076Y448937D01*
X273135Y448904D01*
X273201Y448871D01*
X273283Y448844D01*
X273376Y448822D01*
X273480Y448817D01*
X273512D01*
X273534Y448822D01*
X273600Y448828D01*
X273676Y448849D01*
X273769Y448877D01*
X273862Y448920D01*
X273960Y448986D01*
X274004Y449024D01*
X274047Y449068D01*
X274053Y449073D01*
X274058Y449079D01*
X274069Y449095D01*
X274086Y449112D01*
X274124Y449172D01*
X274167Y449248D01*
X274206Y449341D01*
X274244Y449455D01*
X274271Y449592D01*
X274282Y449663D01*
Y449739D01*
Y449745D01*
Y449756D01*
Y449778D01*
X274277Y449805D01*
Y449838D01*
X274271Y449876D01*
X274255Y449963D01*
X274227Y450067D01*
X274189Y450171D01*
X274135Y450269D01*
X274058Y450362D01*
Y450367D01*
X274047Y450373D01*
X274020Y450400D01*
X273971Y450438D01*
X273905Y450482D01*
X273818Y450520D01*
X273720Y450558D01*
X273605Y450586D01*
X273540Y450597D01*
X273436D01*
X273392Y450591D01*
X273338Y450586D01*
X273272Y450569D01*
X273206Y450553D01*
X273135Y450526D01*
X273065Y450493D01*
X273059Y450487D01*
X273037Y450477D01*
X273005Y450449D01*
X272961Y450422D01*
X272917Y450384D01*
X272873Y450335D01*
X272824Y450285D01*
X272786Y450225D01*
X272349Y450285D01*
X272715Y452229D01*
X274593D01*
Y451787D01*
D02*
G37*
G36*
X388573Y444438D02*
X388622Y444433D01*
X388682Y444427D01*
X388742Y444422D01*
X388813Y444406D01*
X388960Y444373D01*
X389124Y444324D01*
X389206Y444291D01*
X389283Y444253D01*
X389359Y444204D01*
X389436Y444155D01*
X389441Y444149D01*
X389452Y444143D01*
X389474Y444127D01*
X389501Y444100D01*
X389528Y444073D01*
X389566Y444034D01*
X389605Y443991D01*
X389648Y443947D01*
X389692Y443892D01*
X389736Y443827D01*
X389785Y443761D01*
X389829Y443690D01*
X389867Y443609D01*
X389911Y443527D01*
X389943Y443439D01*
X389976Y443341D01*
X389485Y443226D01*
Y443232D01*
X389479Y443243D01*
X389468Y443264D01*
X389457Y443292D01*
X389446Y443325D01*
X389430Y443368D01*
X389386Y443456D01*
X389332Y443554D01*
X389266Y443652D01*
X389184Y443745D01*
X389097Y443827D01*
X389086Y443838D01*
X389053Y443860D01*
X388999Y443887D01*
X388928Y443925D01*
X388835Y443958D01*
X388731Y443991D01*
X388605Y444012D01*
X388469Y444018D01*
X388425D01*
X388398Y444012D01*
X388360D01*
X388316Y444007D01*
X388212Y443991D01*
X388098Y443969D01*
X387978Y443931D01*
X387852Y443876D01*
X387737Y443805D01*
X387732D01*
X387726Y443794D01*
X387688Y443767D01*
X387639Y443723D01*
X387579Y443658D01*
X387508Y443576D01*
X387443Y443483D01*
X387383Y443368D01*
X387328Y443243D01*
Y443237D01*
X387322Y443226D01*
X387317Y443210D01*
X387312Y443183D01*
X387301Y443150D01*
X387290Y443112D01*
X387273Y443019D01*
X387251Y442910D01*
X387230Y442790D01*
X387219Y442658D01*
X387213Y442517D01*
Y442511D01*
Y442495D01*
Y442467D01*
Y442435D01*
X387219Y442396D01*
Y442347D01*
X387224Y442293D01*
X387230Y442233D01*
X387246Y442101D01*
X387273Y441959D01*
X387306Y441818D01*
X387350Y441676D01*
Y441670D01*
X387355Y441659D01*
X387366Y441643D01*
X387377Y441616D01*
X387410Y441550D01*
X387459Y441474D01*
X387519Y441386D01*
X387595Y441293D01*
X387683Y441212D01*
X387787Y441135D01*
X387792D01*
X387803Y441130D01*
X387819Y441119D01*
X387841Y441108D01*
X387868Y441097D01*
X387901Y441081D01*
X387978Y441048D01*
X388076Y441015D01*
X388185Y440988D01*
X388305Y440966D01*
X388431Y440960D01*
X388469D01*
X388502Y440966D01*
X388540D01*
X388578Y440971D01*
X388677Y440993D01*
X388791Y441020D01*
X388906Y441064D01*
X389026Y441124D01*
X389086Y441157D01*
X389141Y441201D01*
X389146Y441206D01*
X389152Y441212D01*
X389168Y441228D01*
X389190Y441244D01*
X389212Y441272D01*
X389239Y441304D01*
X389272Y441337D01*
X389299Y441381D01*
X389332Y441430D01*
X389370Y441484D01*
X389403Y441539D01*
X389436Y441605D01*
X389463Y441676D01*
X389490Y441752D01*
X389517Y441834D01*
X389539Y441921D01*
X390041Y441796D01*
Y441790D01*
X390036Y441768D01*
X390025Y441736D01*
X390009Y441692D01*
X389992Y441643D01*
X389970Y441583D01*
X389943Y441517D01*
X389911Y441446D01*
X389834Y441293D01*
X389736Y441141D01*
X389676Y441064D01*
X389616Y440988D01*
X389550Y440922D01*
X389474Y440857D01*
X389468Y440851D01*
X389457Y440840D01*
X389430Y440829D01*
X389403Y440807D01*
X389359Y440780D01*
X389315Y440753D01*
X389255Y440726D01*
X389195Y440698D01*
X389124Y440665D01*
X389048Y440638D01*
X388966Y440611D01*
X388878Y440584D01*
X388786Y440562D01*
X388687Y440551D01*
X388584Y440540D01*
X388474Y440534D01*
X388414D01*
X388371Y440540D01*
X388322D01*
X388262Y440545D01*
X388196Y440556D01*
X388120Y440567D01*
X387961Y440594D01*
X387797Y440638D01*
X387634Y440698D01*
X387557Y440736D01*
X387481Y440780D01*
X387475Y440786D01*
X387464Y440791D01*
X387443Y440807D01*
X387421Y440829D01*
X387388Y440851D01*
X387350Y440884D01*
X387306Y440922D01*
X387262Y440966D01*
X387219Y441015D01*
X387170Y441064D01*
X387071Y441190D01*
X386979Y441337D01*
X386897Y441501D01*
Y441506D01*
X386886Y441523D01*
X386880Y441550D01*
X386864Y441583D01*
X386853Y441627D01*
X386837Y441681D01*
X386815Y441741D01*
X386798Y441807D01*
X386782Y441878D01*
X386760Y441959D01*
X386733Y442129D01*
X386711Y442320D01*
X386700Y442517D01*
Y442522D01*
Y442544D01*
Y442577D01*
X386705Y442615D01*
Y442669D01*
X386711Y442724D01*
X386716Y442795D01*
X386727Y442866D01*
X386755Y443024D01*
X386793Y443199D01*
X386847Y443374D01*
X386924Y443543D01*
X386929Y443548D01*
X386935Y443565D01*
X386946Y443587D01*
X386967Y443614D01*
X386989Y443652D01*
X387017Y443696D01*
X387088Y443794D01*
X387180Y443903D01*
X387290Y444012D01*
X387415Y444122D01*
X387563Y444214D01*
X387568Y444220D01*
X387584Y444225D01*
X387606Y444236D01*
X387634Y444253D01*
X387677Y444269D01*
X387721Y444285D01*
X387776Y444307D01*
X387836Y444329D01*
X387901Y444351D01*
X387972Y444373D01*
X388125Y444406D01*
X388300Y444433D01*
X388480Y444444D01*
X388535D01*
X388573Y444438D01*
D02*
G37*
G36*
X391767Y444389D02*
X391838Y444378D01*
X391925Y444362D01*
X392023Y444335D01*
X392122Y444302D01*
X392220Y444258D01*
X392226D01*
X392231Y444253D01*
X392264Y444236D01*
X392313Y444204D01*
X392368Y444165D01*
X392433Y444111D01*
X392498Y444051D01*
X392564Y443980D01*
X392619Y443898D01*
X392624Y443887D01*
X392640Y443860D01*
X392662Y443811D01*
X392690Y443750D01*
X392717Y443679D01*
X392739Y443598D01*
X392755Y443505D01*
X392761Y443412D01*
Y443401D01*
Y443368D01*
X392755Y443325D01*
X392744Y443264D01*
X392728Y443193D01*
X392701Y443117D01*
X392668Y443041D01*
X392624Y442964D01*
X392619Y442953D01*
X392602Y442931D01*
X392569Y442893D01*
X392526Y442849D01*
X392471Y442800D01*
X392406Y442746D01*
X392329Y442697D01*
X392236Y442648D01*
X392242D01*
X392253Y442642D01*
X392269Y442637D01*
X392291Y442631D01*
X392351Y442609D01*
X392427Y442577D01*
X392515Y442533D01*
X392602Y442478D01*
X392684Y442407D01*
X392761Y442325D01*
X392766Y442314D01*
X392788Y442282D01*
X392821Y442227D01*
X392853Y442156D01*
X392886Y442069D01*
X392919Y441965D01*
X392941Y441845D01*
X392946Y441714D01*
Y441708D01*
Y441692D01*
Y441665D01*
X392941Y441632D01*
X392935Y441588D01*
X392924Y441539D01*
X392914Y441484D01*
X392903Y441425D01*
X392859Y441293D01*
X392826Y441222D01*
X392793Y441157D01*
X392750Y441086D01*
X392701Y441015D01*
X392646Y440944D01*
X392580Y440878D01*
X392575Y440873D01*
X392564Y440862D01*
X392542Y440846D01*
X392515Y440824D01*
X392482Y440797D01*
X392439Y440769D01*
X392389Y440736D01*
X392329Y440709D01*
X392269Y440676D01*
X392198Y440644D01*
X392127Y440616D01*
X392045Y440589D01*
X391958Y440567D01*
X391865Y440551D01*
X391772Y440540D01*
X391669Y440534D01*
X391619D01*
X391587Y440540D01*
X391543Y440545D01*
X391494Y440551D01*
X391439Y440562D01*
X391379Y440573D01*
X391248Y440605D01*
X391112Y440660D01*
X391041Y440693D01*
X390975Y440731D01*
X390910Y440780D01*
X390844Y440829D01*
X390839Y440835D01*
X390828Y440846D01*
X390811Y440862D01*
X390795Y440884D01*
X390768Y440911D01*
X390740Y440949D01*
X390708Y440988D01*
X390675Y441037D01*
X390642Y441091D01*
X390609Y441146D01*
X390549Y441277D01*
X390500Y441430D01*
X390484Y441512D01*
X390473Y441599D01*
X390937Y441659D01*
Y441654D01*
X390942Y441643D01*
X390948Y441621D01*
X390953Y441594D01*
X390959Y441561D01*
X390970Y441523D01*
X390997Y441441D01*
X391035Y441343D01*
X391084Y441250D01*
X391139Y441162D01*
X391205Y441086D01*
X391215Y441081D01*
X391237Y441059D01*
X391281Y441031D01*
X391336Y441004D01*
X391401Y440971D01*
X391483Y440944D01*
X391576Y440922D01*
X391674Y440917D01*
X391707D01*
X391729Y440922D01*
X391789Y440928D01*
X391865Y440944D01*
X391952Y440971D01*
X392045Y441010D01*
X392138Y441064D01*
X392226Y441141D01*
X392236Y441152D01*
X392264Y441184D01*
X392297Y441233D01*
X392340Y441299D01*
X392384Y441381D01*
X392417Y441474D01*
X392444Y441583D01*
X392455Y441703D01*
Y441708D01*
Y441719D01*
Y441736D01*
X392449Y441757D01*
X392444Y441818D01*
X392427Y441889D01*
X392406Y441976D01*
X392368Y442063D01*
X392313Y442151D01*
X392242Y442233D01*
X392231Y442243D01*
X392204Y442265D01*
X392160Y442298D01*
X392100Y442336D01*
X392023Y442375D01*
X391931Y442407D01*
X391827Y442429D01*
X391712Y442440D01*
X391663D01*
X391625Y442435D01*
X391576Y442429D01*
X391521Y442418D01*
X391456Y442407D01*
X391385Y442391D01*
X391439Y442800D01*
X391467D01*
X391488Y442795D01*
X391559D01*
X391619Y442806D01*
X391690Y442817D01*
X391772Y442833D01*
X391865Y442860D01*
X391952Y442899D01*
X392045Y442948D01*
X392051D01*
X392056Y442953D01*
X392084Y442975D01*
X392122Y443013D01*
X392165Y443062D01*
X392209Y443133D01*
X392247Y443215D01*
X392275Y443308D01*
X392286Y443363D01*
Y443423D01*
Y443428D01*
Y443434D01*
Y443467D01*
X392275Y443510D01*
X392264Y443570D01*
X392242Y443636D01*
X392215Y443707D01*
X392171Y443778D01*
X392111Y443843D01*
X392105Y443849D01*
X392078Y443870D01*
X392040Y443898D01*
X391991Y443931D01*
X391925Y443958D01*
X391849Y443985D01*
X391761Y444007D01*
X391663Y444012D01*
X391619D01*
X391570Y444002D01*
X391505Y443991D01*
X391434Y443969D01*
X391363Y443941D01*
X391286Y443898D01*
X391215Y443843D01*
X391210Y443838D01*
X391188Y443811D01*
X391155Y443772D01*
X391117Y443718D01*
X391079Y443647D01*
X391041Y443559D01*
X391008Y443456D01*
X390986Y443335D01*
X390522Y443417D01*
Y443423D01*
X390528Y443439D01*
X390533Y443461D01*
X390538Y443494D01*
X390549Y443532D01*
X390566Y443576D01*
X390598Y443679D01*
X390653Y443800D01*
X390719Y443920D01*
X390800Y444034D01*
X390904Y444138D01*
X390910Y444143D01*
X390921Y444149D01*
X390937Y444160D01*
X390959Y444176D01*
X390986Y444198D01*
X391024Y444220D01*
X391062Y444242D01*
X391112Y444269D01*
X391221Y444313D01*
X391347Y444356D01*
X391494Y444384D01*
X391570Y444395D01*
X391707D01*
X391767Y444389D01*
D02*
G37*
G36*
X423973Y436638D02*
X424022Y436633D01*
X424082Y436627D01*
X424142Y436622D01*
X424213Y436606D01*
X424360Y436573D01*
X424524Y436524D01*
X424606Y436491D01*
X424683Y436453D01*
X424759Y436404D01*
X424835Y436354D01*
X424841Y436349D01*
X424852Y436343D01*
X424874Y436327D01*
X424901Y436300D01*
X424928Y436273D01*
X424966Y436234D01*
X425005Y436191D01*
X425048Y436147D01*
X425092Y436092D01*
X425136Y436027D01*
X425185Y435961D01*
X425229Y435890D01*
X425267Y435809D01*
X425311Y435727D01*
X425343Y435639D01*
X425376Y435541D01*
X424885Y435426D01*
Y435432D01*
X424879Y435443D01*
X424868Y435464D01*
X424857Y435492D01*
X424846Y435525D01*
X424830Y435568D01*
X424786Y435656D01*
X424732Y435754D01*
X424666Y435852D01*
X424584Y435945D01*
X424497Y436027D01*
X424486Y436038D01*
X424453Y436060D01*
X424399Y436087D01*
X424328Y436125D01*
X424235Y436158D01*
X424131Y436191D01*
X424006Y436212D01*
X423869Y436218D01*
X423825D01*
X423798Y436212D01*
X423760D01*
X423716Y436207D01*
X423612Y436191D01*
X423498Y436169D01*
X423378Y436131D01*
X423252Y436076D01*
X423137Y436005D01*
X423132D01*
X423127Y435994D01*
X423088Y435967D01*
X423039Y435923D01*
X422979Y435858D01*
X422908Y435776D01*
X422843Y435683D01*
X422783Y435568D01*
X422728Y435443D01*
Y435437D01*
X422722Y435426D01*
X422717Y435410D01*
X422712Y435383D01*
X422701Y435350D01*
X422690Y435312D01*
X422673Y435219D01*
X422651Y435110D01*
X422630Y434990D01*
X422619Y434858D01*
X422613Y434717D01*
Y434711D01*
Y434695D01*
Y434667D01*
Y434635D01*
X422619Y434596D01*
Y434547D01*
X422624Y434493D01*
X422630Y434433D01*
X422646Y434302D01*
X422673Y434160D01*
X422706Y434018D01*
X422750Y433876D01*
Y433870D01*
X422755Y433859D01*
X422766Y433843D01*
X422777Y433816D01*
X422810Y433750D01*
X422859Y433674D01*
X422919Y433586D01*
X422995Y433493D01*
X423083Y433412D01*
X423186Y433335D01*
X423192D01*
X423203Y433330D01*
X423219Y433319D01*
X423241Y433308D01*
X423268Y433297D01*
X423301Y433281D01*
X423378Y433248D01*
X423476Y433215D01*
X423585Y433188D01*
X423705Y433166D01*
X423831Y433160D01*
X423869D01*
X423902Y433166D01*
X423940D01*
X423978Y433171D01*
X424077Y433193D01*
X424191Y433220D01*
X424306Y433264D01*
X424426Y433324D01*
X424486Y433357D01*
X424541Y433401D01*
X424546Y433406D01*
X424551Y433412D01*
X424568Y433428D01*
X424590Y433444D01*
X424612Y433472D01*
X424639Y433504D01*
X424672Y433537D01*
X424699Y433581D01*
X424732Y433630D01*
X424770Y433684D01*
X424803Y433739D01*
X424835Y433805D01*
X424863Y433876D01*
X424890Y433952D01*
X424917Y434034D01*
X424939Y434121D01*
X425442Y433996D01*
Y433990D01*
X425436Y433968D01*
X425425Y433936D01*
X425409Y433892D01*
X425392Y433843D01*
X425371Y433783D01*
X425343Y433717D01*
X425311Y433646D01*
X425234Y433493D01*
X425136Y433341D01*
X425076Y433264D01*
X425016Y433188D01*
X424950Y433122D01*
X424874Y433057D01*
X424868Y433051D01*
X424857Y433040D01*
X424830Y433029D01*
X424803Y433007D01*
X424759Y432980D01*
X424715Y432953D01*
X424655Y432926D01*
X424595Y432898D01*
X424524Y432865D01*
X424448Y432838D01*
X424366Y432811D01*
X424278Y432784D01*
X424186Y432762D01*
X424087Y432751D01*
X423984Y432740D01*
X423875Y432734D01*
X423814D01*
X423771Y432740D01*
X423722D01*
X423662Y432745D01*
X423596Y432756D01*
X423520Y432767D01*
X423361Y432795D01*
X423198Y432838D01*
X423034Y432898D01*
X422957Y432936D01*
X422881Y432980D01*
X422875Y432986D01*
X422864Y432991D01*
X422843Y433007D01*
X422821Y433029D01*
X422788Y433051D01*
X422750Y433084D01*
X422706Y433122D01*
X422662Y433166D01*
X422619Y433215D01*
X422570Y433264D01*
X422471Y433390D01*
X422378Y433537D01*
X422297Y433701D01*
Y433706D01*
X422286Y433723D01*
X422280Y433750D01*
X422264Y433783D01*
X422253Y433826D01*
X422236Y433881D01*
X422215Y433941D01*
X422198Y434007D01*
X422182Y434078D01*
X422160Y434160D01*
X422133Y434329D01*
X422111Y434520D01*
X422100Y434717D01*
Y434722D01*
Y434744D01*
Y434776D01*
X422106Y434815D01*
Y434869D01*
X422111Y434924D01*
X422116Y434995D01*
X422127Y435066D01*
X422155Y435224D01*
X422193Y435399D01*
X422247Y435574D01*
X422324Y435743D01*
X422329Y435748D01*
X422335Y435765D01*
X422346Y435787D01*
X422367Y435814D01*
X422389Y435852D01*
X422417Y435896D01*
X422488Y435994D01*
X422580Y436103D01*
X422690Y436212D01*
X422815Y436322D01*
X422963Y436414D01*
X422968Y436420D01*
X422985Y436425D01*
X423006Y436436D01*
X423034Y436453D01*
X423077Y436469D01*
X423121Y436485D01*
X423176Y436507D01*
X423236Y436529D01*
X423301Y436551D01*
X423372Y436573D01*
X423525Y436606D01*
X423700Y436633D01*
X423880Y436644D01*
X423935D01*
X423973Y436638D01*
D02*
G37*
G36*
X427211Y436589D02*
X427254Y436584D01*
X427309Y436578D01*
X427369Y436567D01*
X427429Y436556D01*
X427571Y436518D01*
X427713Y436464D01*
X427784Y436431D01*
X427855Y436393D01*
X427920Y436343D01*
X427980Y436289D01*
X427986Y436283D01*
X427997Y436278D01*
X428008Y436256D01*
X428030Y436234D01*
X428057Y436207D01*
X428084Y436169D01*
X428112Y436131D01*
X428144Y436082D01*
X428199Y435978D01*
X428253Y435847D01*
X428275Y435781D01*
X428286Y435705D01*
X428297Y435628D01*
X428303Y435546D01*
Y435535D01*
Y435508D01*
X428297Y435464D01*
X428292Y435404D01*
X428281Y435339D01*
X428259Y435262D01*
X428237Y435181D01*
X428204Y435099D01*
X428199Y435088D01*
X428188Y435060D01*
X428166Y435017D01*
X428133Y434957D01*
X428090Y434891D01*
X428035Y434809D01*
X427970Y434727D01*
X427893Y434635D01*
X427882Y434624D01*
X427855Y434591D01*
X427828Y434564D01*
X427800Y434536D01*
X427768Y434504D01*
X427724Y434460D01*
X427680Y434416D01*
X427626Y434367D01*
X427571Y434312D01*
X427505Y434252D01*
X427434Y434192D01*
X427358Y434121D01*
X427271Y434050D01*
X427183Y433974D01*
X427178Y433968D01*
X427167Y433957D01*
X427145Y433941D01*
X427118Y433919D01*
X427085Y433886D01*
X427047Y433854D01*
X426959Y433783D01*
X426867Y433701D01*
X426779Y433619D01*
X426703Y433548D01*
X426670Y433521D01*
X426643Y433493D01*
X426637Y433488D01*
X426621Y433472D01*
X426599Y433450D01*
X426572Y433417D01*
X426544Y433379D01*
X426512Y433341D01*
X426446Y433248D01*
X428308D01*
Y432800D01*
X425802D01*
Y432805D01*
Y432827D01*
Y432860D01*
X425807Y432904D01*
X425813Y432953D01*
X425824Y433007D01*
X425835Y433062D01*
X425856Y433122D01*
Y433128D01*
X425862Y433133D01*
X425873Y433166D01*
X425895Y433215D01*
X425927Y433281D01*
X425971Y433357D01*
X426026Y433444D01*
X426086Y433532D01*
X426162Y433625D01*
Y433630D01*
X426173Y433635D01*
X426200Y433668D01*
X426250Y433717D01*
X426321Y433788D01*
X426403Y433870D01*
X426506Y433968D01*
X426632Y434078D01*
X426768Y434192D01*
X426774Y434198D01*
X426796Y434214D01*
X426828Y434241D01*
X426867Y434274D01*
X426916Y434318D01*
X426976Y434367D01*
X427036Y434422D01*
X427107Y434482D01*
X427243Y434613D01*
X427380Y434744D01*
X427445Y434809D01*
X427505Y434875D01*
X427560Y434935D01*
X427604Y434995D01*
Y435000D01*
X427615Y435006D01*
X427626Y435022D01*
X427636Y435044D01*
X427675Y435104D01*
X427718Y435175D01*
X427757Y435262D01*
X427795Y435355D01*
X427817Y435459D01*
X427828Y435557D01*
Y435563D01*
Y435568D01*
X427822Y435601D01*
X427817Y435656D01*
X427800Y435716D01*
X427778Y435792D01*
X427740Y435869D01*
X427691Y435945D01*
X427626Y436021D01*
X427615Y436032D01*
X427587Y436054D01*
X427549Y436082D01*
X427489Y436120D01*
X427413Y436152D01*
X427325Y436185D01*
X427221Y436207D01*
X427107Y436212D01*
X427074D01*
X427052Y436207D01*
X426987Y436202D01*
X426910Y436185D01*
X426828Y436163D01*
X426735Y436125D01*
X426648Y436076D01*
X426566Y436011D01*
X426555Y436000D01*
X426534Y435972D01*
X426501Y435929D01*
X426468Y435863D01*
X426430Y435787D01*
X426397Y435688D01*
X426375Y435579D01*
X426364Y435454D01*
X425889Y435503D01*
Y435508D01*
X425895Y435525D01*
Y435552D01*
X425900Y435590D01*
X425911Y435634D01*
X425922Y435683D01*
X425938Y435743D01*
X425955Y435803D01*
X425998Y435934D01*
X426064Y436065D01*
X426102Y436131D01*
X426151Y436196D01*
X426200Y436256D01*
X426255Y436311D01*
X426261Y436316D01*
X426271Y436322D01*
X426288Y436338D01*
X426315Y436354D01*
X426348Y436376D01*
X426386Y436398D01*
X426430Y436425D01*
X426484Y436453D01*
X426544Y436480D01*
X426610Y436507D01*
X426681Y436529D01*
X426757Y436551D01*
X426839Y436567D01*
X426927Y436584D01*
X427020Y436589D01*
X427118Y436595D01*
X427172D01*
X427211Y436589D01*
D02*
G37*
G36*
X442673Y255538D02*
X442722Y255533D01*
X442782Y255527D01*
X442842Y255522D01*
X442913Y255506D01*
X443060Y255473D01*
X443224Y255424D01*
X443306Y255391D01*
X443383Y255353D01*
X443459Y255304D01*
X443536Y255255D01*
X443541Y255249D01*
X443552Y255243D01*
X443574Y255227D01*
X443601Y255200D01*
X443628Y255173D01*
X443667Y255134D01*
X443705Y255091D01*
X443748Y255047D01*
X443792Y254992D01*
X443836Y254927D01*
X443885Y254861D01*
X443929Y254790D01*
X443967Y254709D01*
X444010Y254627D01*
X444043Y254539D01*
X444076Y254441D01*
X443585Y254326D01*
Y254332D01*
X443579Y254343D01*
X443568Y254364D01*
X443557Y254392D01*
X443546Y254425D01*
X443530Y254468D01*
X443486Y254556D01*
X443432Y254654D01*
X443366Y254752D01*
X443284Y254845D01*
X443197Y254927D01*
X443186Y254938D01*
X443153Y254960D01*
X443099Y254987D01*
X443028Y255025D01*
X442935Y255058D01*
X442831Y255091D01*
X442705Y255113D01*
X442569Y255118D01*
X442525D01*
X442498Y255113D01*
X442460D01*
X442416Y255107D01*
X442312Y255091D01*
X442198Y255069D01*
X442078Y255031D01*
X441952Y254976D01*
X441837Y254905D01*
X441832D01*
X441826Y254894D01*
X441788Y254867D01*
X441739Y254823D01*
X441679Y254758D01*
X441608Y254676D01*
X441543Y254583D01*
X441482Y254468D01*
X441428Y254343D01*
Y254337D01*
X441422Y254326D01*
X441417Y254310D01*
X441411Y254283D01*
X441401Y254250D01*
X441390Y254212D01*
X441373Y254119D01*
X441352Y254010D01*
X441330Y253889D01*
X441319Y253758D01*
X441313Y253616D01*
Y253611D01*
Y253595D01*
Y253567D01*
Y253535D01*
X441319Y253496D01*
Y253447D01*
X441324Y253393D01*
X441330Y253332D01*
X441346Y253202D01*
X441373Y253060D01*
X441406Y252918D01*
X441450Y252776D01*
Y252770D01*
X441455Y252759D01*
X441466Y252743D01*
X441477Y252716D01*
X441510Y252650D01*
X441559Y252574D01*
X441619Y252486D01*
X441695Y252393D01*
X441783Y252311D01*
X441887Y252235D01*
X441892D01*
X441903Y252230D01*
X441919Y252219D01*
X441941Y252208D01*
X441968Y252197D01*
X442001Y252181D01*
X442078Y252148D01*
X442176Y252115D01*
X442285Y252088D01*
X442405Y252066D01*
X442531Y252060D01*
X442569D01*
X442602Y252066D01*
X442640D01*
X442678Y252071D01*
X442776Y252093D01*
X442891Y252120D01*
X443006Y252164D01*
X443126Y252224D01*
X443186Y252257D01*
X443241Y252301D01*
X443246Y252306D01*
X443252Y252311D01*
X443268Y252328D01*
X443290Y252344D01*
X443312Y252372D01*
X443339Y252404D01*
X443372Y252437D01*
X443399Y252481D01*
X443432Y252530D01*
X443470Y252585D01*
X443503Y252639D01*
X443536Y252705D01*
X443563Y252776D01*
X443590Y252852D01*
X443617Y252934D01*
X443639Y253021D01*
X444141Y252896D01*
Y252890D01*
X444136Y252868D01*
X444125Y252836D01*
X444109Y252792D01*
X444092Y252743D01*
X444070Y252683D01*
X444043Y252617D01*
X444010Y252546D01*
X443934Y252393D01*
X443836Y252240D01*
X443776Y252164D01*
X443716Y252088D01*
X443650Y252022D01*
X443574Y251957D01*
X443568Y251951D01*
X443557Y251940D01*
X443530Y251929D01*
X443503Y251907D01*
X443459Y251880D01*
X443415Y251853D01*
X443355Y251826D01*
X443295Y251798D01*
X443224Y251765D01*
X443148Y251738D01*
X443066Y251711D01*
X442978Y251684D01*
X442886Y251662D01*
X442787Y251651D01*
X442684Y251640D01*
X442575Y251635D01*
X442514D01*
X442471Y251640D01*
X442422D01*
X442362Y251645D01*
X442296Y251656D01*
X442220Y251667D01*
X442061Y251694D01*
X441897Y251738D01*
X441734Y251798D01*
X441657Y251836D01*
X441581Y251880D01*
X441575Y251886D01*
X441564Y251891D01*
X441543Y251907D01*
X441521Y251929D01*
X441488Y251951D01*
X441450Y251984D01*
X441406Y252022D01*
X441362Y252066D01*
X441319Y252115D01*
X441270Y252164D01*
X441171Y252290D01*
X441079Y252437D01*
X440997Y252601D01*
Y252606D01*
X440986Y252623D01*
X440980Y252650D01*
X440964Y252683D01*
X440953Y252727D01*
X440937Y252781D01*
X440915Y252841D01*
X440898Y252907D01*
X440882Y252978D01*
X440860Y253060D01*
X440833Y253229D01*
X440811Y253420D01*
X440800Y253616D01*
Y253622D01*
Y253644D01*
Y253677D01*
X440805Y253715D01*
Y253769D01*
X440811Y253824D01*
X440816Y253895D01*
X440827Y253966D01*
X440855Y254124D01*
X440893Y254299D01*
X440947Y254474D01*
X441024Y254643D01*
X441029Y254648D01*
X441035Y254665D01*
X441046Y254687D01*
X441068Y254714D01*
X441089Y254752D01*
X441117Y254796D01*
X441188Y254894D01*
X441281Y255003D01*
X441390Y255113D01*
X441515Y255222D01*
X441663Y255314D01*
X441668Y255320D01*
X441684Y255325D01*
X441706Y255336D01*
X441734Y255353D01*
X441777Y255369D01*
X441821Y255385D01*
X441876Y255407D01*
X441936Y255429D01*
X442001Y255451D01*
X442072Y255473D01*
X442225Y255506D01*
X442400Y255533D01*
X442580Y255544D01*
X442635D01*
X442673Y255538D01*
D02*
G37*
G36*
X446315Y251700D02*
X445851D01*
Y254654D01*
X445845Y254648D01*
X445818Y254627D01*
X445785Y254594D01*
X445730Y254556D01*
X445670Y254506D01*
X445594Y254452D01*
X445506Y254392D01*
X445408Y254332D01*
X445403D01*
X445397Y254326D01*
X445365Y254304D01*
X445310Y254277D01*
X445244Y254244D01*
X445168Y254206D01*
X445086Y254168D01*
X445004Y254130D01*
X444922Y254097D01*
Y254545D01*
X444928D01*
X444939Y254556D01*
X444960Y254561D01*
X444988Y254577D01*
X445021Y254594D01*
X445059Y254616D01*
X445152Y254670D01*
X445261Y254730D01*
X445370Y254807D01*
X445485Y254894D01*
X445599Y254987D01*
X445605Y254992D01*
X445610Y254998D01*
X445627Y255014D01*
X445648Y255031D01*
X445698Y255085D01*
X445763Y255151D01*
X445829Y255227D01*
X445900Y255314D01*
X445960Y255402D01*
X446014Y255495D01*
X446315D01*
Y251700D01*
D02*
G37*
G36*
X456688Y348395D02*
X456748Y348385D01*
X456819Y348363D01*
X456895Y348336D01*
X456983Y348297D01*
X457076Y348248D01*
X456906Y347822D01*
X456901Y347828D01*
X456879Y347839D01*
X456846Y347855D01*
X456803Y347871D01*
X456753Y347888D01*
X456693Y347904D01*
X456633Y347915D01*
X456573Y347920D01*
X456546D01*
X456519Y347915D01*
X456480Y347910D01*
X456442Y347899D01*
X456393Y347882D01*
X456344Y347860D01*
X456300Y347828D01*
X456295Y347822D01*
X456278Y347811D01*
X456262Y347790D01*
X456235Y347762D01*
X456207Y347724D01*
X456180Y347680D01*
X456153Y347631D01*
X456131Y347571D01*
X456125Y347560D01*
X456120Y347527D01*
X456109Y347478D01*
X456093Y347413D01*
X456076Y347331D01*
X456066Y347238D01*
X456060Y347140D01*
X456055Y347030D01*
Y345600D01*
X455590D01*
Y348341D01*
X456011D01*
Y347926D01*
X456016Y347931D01*
X456038Y347970D01*
X456066Y348019D01*
X456109Y348079D01*
X456153Y348139D01*
X456202Y348204D01*
X456251Y348259D01*
X456300Y348303D01*
X456306Y348308D01*
X456322Y348319D01*
X456355Y348336D01*
X456388Y348352D01*
X456431Y348368D01*
X456486Y348385D01*
X456540Y348395D01*
X456601Y348401D01*
X456639D01*
X456688Y348395D01*
D02*
G37*
G36*
X458555Y345556D02*
Y345551D01*
X458550Y345534D01*
X458539Y345513D01*
X458528Y345485D01*
X458512Y345447D01*
X458495Y345403D01*
X458457Y345311D01*
X458419Y345207D01*
X458375Y345103D01*
X458331Y345010D01*
X458310Y344972D01*
X458293Y344934D01*
X458288Y344923D01*
X458271Y344896D01*
X458244Y344857D01*
X458211Y344808D01*
X458168Y344754D01*
X458118Y344699D01*
X458069Y344644D01*
X458009Y344601D01*
X458004Y344595D01*
X457982Y344584D01*
X457949Y344568D01*
X457900Y344546D01*
X457845Y344524D01*
X457780Y344508D01*
X457709Y344497D01*
X457627Y344492D01*
X457605D01*
X457578Y344497D01*
X457540D01*
X457496Y344508D01*
X457447Y344519D01*
X457392Y344530D01*
X457332Y344552D01*
X457283Y344983D01*
X457289D01*
X457310Y344978D01*
X457338Y344972D01*
X457370Y344961D01*
X457458Y344945D01*
X457545Y344939D01*
X457572D01*
X457600Y344945D01*
X457632D01*
X457714Y344961D01*
X457753Y344978D01*
X457791Y344994D01*
X457796D01*
X457807Y345005D01*
X457824Y345016D01*
X457845Y345032D01*
X457895Y345076D01*
X457938Y345136D01*
Y345141D01*
X457949Y345152D01*
X457960Y345174D01*
X457971Y345207D01*
X457993Y345251D01*
X458015Y345316D01*
X458047Y345392D01*
X458080Y345485D01*
Y345491D01*
X458091Y345513D01*
X458102Y345551D01*
X458124Y345600D01*
X457087Y348341D01*
X457578D01*
X458151Y346752D01*
Y346747D01*
X458157Y346741D01*
X458162Y346725D01*
X458168Y346697D01*
X458179Y346670D01*
X458189Y346637D01*
X458217Y346561D01*
X458250Y346468D01*
X458282Y346359D01*
X458315Y346244D01*
X458348Y346119D01*
Y346124D01*
X458353Y346135D01*
X458359Y346151D01*
X458364Y346173D01*
X458370Y346201D01*
X458381Y346233D01*
X458402Y346315D01*
X458430Y346408D01*
X458468Y346517D01*
X458501Y346626D01*
X458544Y346741D01*
X459134Y348341D01*
X459598D01*
X458555Y345556D01*
D02*
G37*
G36*
X448061Y348395D02*
X448143Y348390D01*
X448236Y348379D01*
X448329Y348363D01*
X448421Y348341D01*
X448509Y348314D01*
X448520Y348308D01*
X448547Y348297D01*
X448585Y348281D01*
X448634Y348259D01*
X448689Y348226D01*
X448744Y348194D01*
X448793Y348150D01*
X448836Y348106D01*
X448842Y348101D01*
X448853Y348084D01*
X448869Y348057D01*
X448891Y348024D01*
X448918Y347975D01*
X448940Y347926D01*
X448962Y347866D01*
X448978Y347795D01*
Y347790D01*
X448984Y347773D01*
X448989Y347740D01*
X448995Y347697D01*
Y347637D01*
X449000Y347566D01*
X449006Y347473D01*
Y347369D01*
Y346747D01*
Y346741D01*
Y346719D01*
Y346687D01*
Y346643D01*
Y346594D01*
Y346534D01*
X449011Y346403D01*
Y346266D01*
X449017Y346130D01*
X449022Y346070D01*
Y346015D01*
X449027Y345966D01*
X449033Y345928D01*
Y345922D01*
X449039Y345900D01*
X449044Y345867D01*
X449060Y345824D01*
X449071Y345775D01*
X449093Y345720D01*
X449120Y345660D01*
X449148Y345600D01*
X448662D01*
X448656Y345605D01*
X448651Y345627D01*
X448640Y345655D01*
X448624Y345698D01*
X448607Y345747D01*
X448596Y345808D01*
X448585Y345873D01*
X448574Y345944D01*
X448569D01*
X448563Y345933D01*
X448531Y345906D01*
X448482Y345867D01*
X448416Y345818D01*
X448334Y345769D01*
X448252Y345715D01*
X448165Y345666D01*
X448072Y345627D01*
X448061Y345622D01*
X448028Y345616D01*
X447979Y345600D01*
X447919Y345584D01*
X447843Y345567D01*
X447755Y345556D01*
X447657Y345545D01*
X447559Y345540D01*
X447515D01*
X447482Y345545D01*
X447444D01*
X447401Y345551D01*
X447302Y345567D01*
X447193Y345595D01*
X447073Y345633D01*
X446964Y345687D01*
X446865Y345758D01*
X446854Y345769D01*
X446827Y345797D01*
X446789Y345846D01*
X446745Y345911D01*
X446702Y345993D01*
X446663Y346086D01*
X446636Y346201D01*
X446631Y346255D01*
X446625Y346321D01*
Y346332D01*
Y346354D01*
X446631Y346392D01*
X446636Y346441D01*
X446647Y346501D01*
X446663Y346561D01*
X446685Y346626D01*
X446712Y346687D01*
X446718Y346692D01*
X446729Y346714D01*
X446751Y346747D01*
X446778Y346785D01*
X446811Y346829D01*
X446854Y346872D01*
X446898Y346916D01*
X446953Y346954D01*
X446958Y346959D01*
X446980Y346971D01*
X447007Y346992D01*
X447051Y347014D01*
X447100Y347036D01*
X447160Y347063D01*
X447220Y347085D01*
X447291Y347107D01*
X447297D01*
X447319Y347112D01*
X447351Y347123D01*
X447395Y347129D01*
X447450Y347140D01*
X447521Y347151D01*
X447603Y347167D01*
X447701Y347178D01*
X447706D01*
X447728Y347183D01*
X447755D01*
X447794Y347189D01*
X447837Y347194D01*
X447892Y347205D01*
X447952Y347211D01*
X448017Y347222D01*
X448148Y347249D01*
X448290Y347276D01*
X448416Y347309D01*
X448476Y347325D01*
X448531Y347342D01*
Y347347D01*
Y347358D01*
X448536Y347391D01*
Y347429D01*
Y347451D01*
Y347462D01*
Y347467D01*
Y347473D01*
Y347505D01*
X448531Y347560D01*
X448520Y347620D01*
X448503Y347686D01*
X448476Y347751D01*
X448443Y347811D01*
X448400Y347860D01*
X448394Y347866D01*
X448367Y347888D01*
X448323Y347910D01*
X448269Y347942D01*
X448192Y347970D01*
X448105Y347997D01*
X447996Y348013D01*
X447870Y348019D01*
X447815D01*
X447761Y348013D01*
X447684Y348002D01*
X447608Y347991D01*
X447526Y347970D01*
X447450Y347942D01*
X447384Y347904D01*
X447379Y347899D01*
X447357Y347882D01*
X447330Y347855D01*
X447297Y347811D01*
X447264Y347757D01*
X447226Y347686D01*
X447193Y347598D01*
X447160Y347500D01*
X446707Y347560D01*
Y347566D01*
X446712Y347571D01*
Y347587D01*
X446718Y347609D01*
X446734Y347658D01*
X446756Y347729D01*
X446783Y347800D01*
X446816Y347877D01*
X446860Y347953D01*
X446909Y348024D01*
X446914Y348030D01*
X446936Y348052D01*
X446969Y348084D01*
X447013Y348128D01*
X447073Y348172D01*
X447144Y348215D01*
X447226Y348265D01*
X447319Y348303D01*
X447324D01*
X447330Y348308D01*
X447346Y348314D01*
X447368Y348319D01*
X447422Y348336D01*
X447499Y348352D01*
X447586Y348368D01*
X447695Y348385D01*
X447810Y348395D01*
X447941Y348401D01*
X448001D01*
X448061Y348395D01*
D02*
G37*
G36*
X444823Y349373D02*
X444867D01*
X444965Y349362D01*
X445075Y349351D01*
X445189Y349329D01*
X445304Y349302D01*
X445408Y349264D01*
X445413D01*
X445419Y349258D01*
X445451Y349242D01*
X445500Y349215D01*
X445555Y349176D01*
X445620Y349127D01*
X445691Y349067D01*
X445757Y348991D01*
X445817Y348909D01*
X445822Y348898D01*
X445839Y348865D01*
X445866Y348821D01*
X445893Y348756D01*
X445921Y348679D01*
X445948Y348598D01*
X445964Y348505D01*
X445970Y348412D01*
Y348401D01*
Y348374D01*
X445964Y348324D01*
X445954Y348265D01*
X445937Y348194D01*
X445910Y348117D01*
X445877Y348041D01*
X445833Y347959D01*
X445828Y347948D01*
X445812Y347926D01*
X445779Y347882D01*
X445735Y347839D01*
X445681Y347784D01*
X445615Y347724D01*
X445533Y347669D01*
X445440Y347615D01*
X445446D01*
X445457Y347609D01*
X445473Y347604D01*
X445495Y347593D01*
X445560Y347571D01*
X445637Y347533D01*
X445719Y347484D01*
X445812Y347424D01*
X445893Y347353D01*
X445970Y347265D01*
X445975Y347254D01*
X445997Y347222D01*
X446030Y347172D01*
X446063Y347107D01*
X446096Y347020D01*
X446128Y346927D01*
X446150Y346818D01*
X446156Y346697D01*
Y346692D01*
Y346687D01*
Y346654D01*
X446150Y346599D01*
X446139Y346534D01*
X446128Y346457D01*
X446106Y346375D01*
X446079Y346288D01*
X446041Y346201D01*
X446035Y346190D01*
X446019Y346162D01*
X445997Y346124D01*
X445964Y346070D01*
X445921Y346015D01*
X445877Y345955D01*
X445822Y345895D01*
X445762Y345846D01*
X445757Y345840D01*
X445735Y345824D01*
X445697Y345802D01*
X445648Y345780D01*
X445588Y345747D01*
X445517Y345715D01*
X445440Y345687D01*
X445347Y345660D01*
X445337D01*
X445304Y345649D01*
X445249Y345644D01*
X445178Y345633D01*
X445091Y345622D01*
X444987Y345611D01*
X444873Y345605D01*
X444741Y345600D01*
X443300D01*
Y349378D01*
X444785D01*
X444823Y349373D01*
D02*
G37*
G36*
X451730Y348341D02*
X452200D01*
Y347981D01*
X451730D01*
Y346370D01*
Y346359D01*
Y346337D01*
Y346304D01*
X451736Y346266D01*
X451741Y346179D01*
X451747Y346141D01*
X451752Y346113D01*
X451757Y346102D01*
X451774Y346080D01*
X451796Y346053D01*
X451834Y346026D01*
X451845Y346020D01*
X451872Y346009D01*
X451921Y345999D01*
X451992Y345993D01*
X452047D01*
X452074Y345999D01*
X452112D01*
X452156Y346004D01*
X452200Y346009D01*
X452260Y345600D01*
X452249D01*
X452227Y345595D01*
X452189Y345589D01*
X452140Y345584D01*
X452085Y345573D01*
X452025Y345567D01*
X451905Y345562D01*
X451861D01*
X451818Y345567D01*
X451763Y345573D01*
X451697Y345578D01*
X451632Y345595D01*
X451572Y345611D01*
X451512Y345638D01*
X451506Y345644D01*
X451490Y345655D01*
X451468Y345671D01*
X451435Y345698D01*
X451408Y345726D01*
X451375Y345764D01*
X451343Y345802D01*
X451321Y345851D01*
Y345857D01*
X451310Y345879D01*
X451304Y345917D01*
X451293Y345971D01*
X451283Y346042D01*
X451277Y346086D01*
Y346135D01*
X451272Y346195D01*
X451266Y346255D01*
Y346321D01*
Y346397D01*
Y347981D01*
X450922D01*
Y348341D01*
X451266D01*
Y349018D01*
X451730Y349296D01*
Y348341D01*
D02*
G37*
G36*
X450261D02*
X450731D01*
Y347981D01*
X450261D01*
Y346370D01*
Y346359D01*
Y346337D01*
Y346304D01*
X450267Y346266D01*
X450272Y346179D01*
X450278Y346141D01*
X450283Y346113D01*
X450289Y346102D01*
X450305Y346080D01*
X450327Y346053D01*
X450365Y346026D01*
X450376Y346020D01*
X450403Y346009D01*
X450453Y345999D01*
X450524Y345993D01*
X450578D01*
X450605Y345999D01*
X450644D01*
X450687Y346004D01*
X450731Y346009D01*
X450791Y345600D01*
X450780D01*
X450758Y345595D01*
X450720Y345589D01*
X450671Y345584D01*
X450616Y345573D01*
X450556Y345567D01*
X450436Y345562D01*
X450392D01*
X450349Y345567D01*
X450294Y345573D01*
X450229Y345578D01*
X450163Y345595D01*
X450103Y345611D01*
X450043Y345638D01*
X450038Y345644D01*
X450021Y345655D01*
X449999Y345671D01*
X449967Y345698D01*
X449939Y345726D01*
X449907Y345764D01*
X449874Y345802D01*
X449852Y345851D01*
Y345857D01*
X449841Y345879D01*
X449836Y345917D01*
X449825Y345971D01*
X449814Y346042D01*
X449808Y346086D01*
Y346135D01*
X449803Y346195D01*
X449797Y346255D01*
Y346321D01*
Y346397D01*
Y347981D01*
X449453D01*
Y348341D01*
X449797D01*
Y349018D01*
X450261Y349296D01*
Y348341D01*
D02*
G37*
G36*
X453871Y348395D02*
X453914Y348390D01*
X453969Y348379D01*
X454029Y348368D01*
X454100Y348352D01*
X454165Y348336D01*
X454242Y348308D01*
X454313Y348281D01*
X454389Y348243D01*
X454466Y348199D01*
X454542Y348150D01*
X454613Y348090D01*
X454679Y348024D01*
X454684Y348019D01*
X454695Y348008D01*
X454711Y347986D01*
X454733Y347953D01*
X454761Y347915D01*
X454788Y347871D01*
X454821Y347817D01*
X454853Y347751D01*
X454886Y347680D01*
X454919Y347604D01*
X454946Y347516D01*
X454974Y347424D01*
X454995Y347320D01*
X455012Y347211D01*
X455023Y347096D01*
X455028Y346971D01*
Y346965D01*
Y346943D01*
Y346905D01*
X455023Y346850D01*
X452975D01*
Y346845D01*
Y346829D01*
X452981Y346807D01*
Y346774D01*
X452986Y346736D01*
X452997Y346692D01*
X453013Y346594D01*
X453046Y346484D01*
X453090Y346364D01*
X453150Y346255D01*
X453226Y346157D01*
X453232D01*
X453237Y346146D01*
X453270Y346119D01*
X453319Y346080D01*
X453385Y346042D01*
X453472Y345999D01*
X453570Y345960D01*
X453680Y345933D01*
X453740Y345928D01*
X453805Y345922D01*
X453849D01*
X453898Y345928D01*
X453958Y345938D01*
X454023Y345955D01*
X454100Y345977D01*
X454171Y346009D01*
X454242Y346053D01*
X454247Y346059D01*
X454275Y346080D01*
X454307Y346113D01*
X454346Y346157D01*
X454389Y346217D01*
X454438Y346293D01*
X454488Y346381D01*
X454531Y346484D01*
X455012Y346425D01*
Y346419D01*
X455006Y346408D01*
X455001Y346386D01*
X454990Y346354D01*
X454974Y346321D01*
X454957Y346277D01*
X454913Y346184D01*
X454859Y346080D01*
X454782Y345971D01*
X454695Y345867D01*
X454586Y345769D01*
X454580D01*
X454569Y345758D01*
X454553Y345747D01*
X454531Y345731D01*
X454498Y345715D01*
X454466Y345698D01*
X454422Y345676D01*
X454373Y345655D01*
X454318Y345633D01*
X454264Y345611D01*
X454127Y345578D01*
X453974Y345551D01*
X453805Y345540D01*
X453745D01*
X453707Y345545D01*
X453658Y345551D01*
X453598Y345562D01*
X453532Y345573D01*
X453461Y345584D01*
X453308Y345627D01*
X453226Y345660D01*
X453150Y345693D01*
X453068Y345737D01*
X452991Y345786D01*
X452920Y345840D01*
X452849Y345906D01*
X452844Y345911D01*
X452833Y345922D01*
X452817Y345944D01*
X452795Y345977D01*
X452768Y346015D01*
X452740Y346059D01*
X452708Y346113D01*
X452675Y346173D01*
X452642Y346244D01*
X452609Y346321D01*
X452582Y346408D01*
X452555Y346501D01*
X452533Y346599D01*
X452517Y346708D01*
X452506Y346823D01*
X452500Y346943D01*
Y346949D01*
Y346976D01*
Y347009D01*
X452506Y347058D01*
X452511Y347118D01*
X452517Y347183D01*
X452527Y347260D01*
X452544Y347336D01*
X452588Y347511D01*
X452615Y347598D01*
X452647Y347691D01*
X452691Y347779D01*
X452740Y347860D01*
X452795Y347942D01*
X452855Y348019D01*
X452860Y348024D01*
X452871Y348035D01*
X452893Y348052D01*
X452920Y348079D01*
X452953Y348106D01*
X452997Y348139D01*
X453046Y348177D01*
X453106Y348210D01*
X453166Y348248D01*
X453237Y348281D01*
X453314Y348314D01*
X453396Y348341D01*
X453483Y348368D01*
X453576Y348385D01*
X453674Y348395D01*
X453778Y348401D01*
X453832D01*
X453871Y348395D01*
D02*
G37*
G36*
X390100Y399322D02*
X389352D01*
X388457Y402002D01*
Y402008D01*
X388451Y402019D01*
X388446Y402035D01*
X388435Y402063D01*
X388413Y402128D01*
X388386Y402210D01*
X388358Y402303D01*
X388326Y402396D01*
X388298Y402483D01*
X388276Y402560D01*
X388271Y402549D01*
X388265Y402521D01*
X388249Y402472D01*
X388227Y402407D01*
X388200Y402319D01*
X388162Y402215D01*
X388123Y402095D01*
X388074Y401953D01*
X387168Y399322D01*
X386496D01*
Y403100D01*
X386977D01*
Y399939D01*
X388080Y403100D01*
X388527D01*
X389619Y399884D01*
Y403100D01*
X390100D01*
Y399322D01*
D02*
G37*
G36*
X384159Y403160D02*
X384209D01*
X384269Y403155D01*
X384334Y403144D01*
X384411Y403133D01*
X384569Y403105D01*
X384733Y403062D01*
X384897Y403002D01*
X384973Y402963D01*
X385050Y402920D01*
X385055Y402914D01*
X385066Y402909D01*
X385088Y402892D01*
X385110Y402871D01*
X385142Y402849D01*
X385181Y402816D01*
X385224Y402778D01*
X385268Y402734D01*
X385312Y402685D01*
X385361Y402636D01*
X385459Y402510D01*
X385552Y402363D01*
X385634Y402199D01*
Y402194D01*
X385645Y402177D01*
X385650Y402150D01*
X385666Y402117D01*
X385677Y402073D01*
X385694Y402019D01*
X385716Y401959D01*
X385732Y401893D01*
X385748Y401822D01*
X385770Y401741D01*
X385798Y401571D01*
X385819Y401380D01*
X385830Y401184D01*
Y401178D01*
Y401156D01*
Y401124D01*
X385825Y401085D01*
Y401031D01*
X385819Y400976D01*
X385814Y400905D01*
X385803Y400834D01*
X385776Y400676D01*
X385737Y400501D01*
X385683Y400326D01*
X385606Y400157D01*
X385601Y400152D01*
X385595Y400135D01*
X385585Y400113D01*
X385563Y400086D01*
X385541Y400048D01*
X385514Y400004D01*
X385443Y399906D01*
X385350Y399797D01*
X385241Y399688D01*
X385115Y399578D01*
X384968Y399485D01*
X384962Y399480D01*
X384946Y399475D01*
X384924Y399464D01*
X384897Y399447D01*
X384853Y399431D01*
X384809Y399414D01*
X384755Y399393D01*
X384695Y399371D01*
X384629Y399349D01*
X384558Y399327D01*
X384405Y399294D01*
X384230Y399267D01*
X384050Y399256D01*
X383996D01*
X383958Y399262D01*
X383908Y399267D01*
X383848Y399272D01*
X383788Y399278D01*
X383717Y399294D01*
X383570Y399327D01*
X383406Y399376D01*
X383324Y399409D01*
X383248Y399447D01*
X383171Y399496D01*
X383095Y399546D01*
X383089Y399551D01*
X383079Y399556D01*
X383057Y399573D01*
X383029Y399600D01*
X383002Y399627D01*
X382964Y399666D01*
X382926Y399709D01*
X382882Y399753D01*
X382838Y399808D01*
X382794Y399873D01*
X382745Y399939D01*
X382702Y400010D01*
X382663Y400092D01*
X382620Y400173D01*
X382587Y400261D01*
X382554Y400359D01*
X383046Y400474D01*
Y400468D01*
X383051Y400457D01*
X383062Y400435D01*
X383073Y400408D01*
X383084Y400376D01*
X383100Y400332D01*
X383144Y400244D01*
X383199Y400146D01*
X383264Y400048D01*
X383346Y399955D01*
X383433Y399873D01*
X383444Y399862D01*
X383477Y399840D01*
X383532Y399813D01*
X383603Y399775D01*
X383695Y399742D01*
X383799Y399709D01*
X383925Y399688D01*
X384061Y399682D01*
X384105D01*
X384132Y399688D01*
X384171D01*
X384214Y399693D01*
X384318Y399709D01*
X384433Y399731D01*
X384553Y399769D01*
X384678Y399824D01*
X384793Y399895D01*
X384798D01*
X384804Y399906D01*
X384842Y399933D01*
X384891Y399977D01*
X384951Y400042D01*
X385022Y400124D01*
X385088Y400217D01*
X385148Y400332D01*
X385202Y400457D01*
Y400463D01*
X385208Y400474D01*
X385213Y400490D01*
X385219Y400517D01*
X385230Y400550D01*
X385241Y400588D01*
X385257Y400681D01*
X385279Y400790D01*
X385301Y400911D01*
X385312Y401042D01*
X385317Y401184D01*
Y401189D01*
Y401205D01*
Y401233D01*
Y401265D01*
X385312Y401304D01*
Y401353D01*
X385306Y401407D01*
X385301Y401468D01*
X385284Y401599D01*
X385257Y401741D01*
X385224Y401882D01*
X385181Y402024D01*
Y402030D01*
X385175Y402041D01*
X385164Y402057D01*
X385153Y402084D01*
X385121Y402150D01*
X385071Y402226D01*
X385011Y402314D01*
X384935Y402407D01*
X384847Y402489D01*
X384744Y402565D01*
X384738D01*
X384727Y402570D01*
X384711Y402581D01*
X384689Y402592D01*
X384662Y402603D01*
X384629Y402620D01*
X384553Y402652D01*
X384454Y402685D01*
X384345Y402712D01*
X384225Y402734D01*
X384100Y402740D01*
X384061D01*
X384029Y402734D01*
X383990D01*
X383952Y402729D01*
X383854Y402707D01*
X383739Y402680D01*
X383625Y402636D01*
X383504Y402576D01*
X383444Y402543D01*
X383390Y402499D01*
X383384Y402494D01*
X383379Y402489D01*
X383362Y402472D01*
X383341Y402456D01*
X383319Y402428D01*
X383291Y402396D01*
X383259Y402363D01*
X383231Y402319D01*
X383199Y402270D01*
X383160Y402215D01*
X383128Y402161D01*
X383095Y402095D01*
X383067Y402024D01*
X383040Y401948D01*
X383013Y401866D01*
X382991Y401779D01*
X382489Y401904D01*
Y401910D01*
X382494Y401932D01*
X382505Y401964D01*
X382522Y402008D01*
X382538Y402057D01*
X382560Y402117D01*
X382587Y402183D01*
X382620Y402254D01*
X382696Y402407D01*
X382794Y402560D01*
X382855Y402636D01*
X382915Y402712D01*
X382980Y402778D01*
X383057Y402843D01*
X383062Y402849D01*
X383073Y402860D01*
X383100Y402871D01*
X383128Y402892D01*
X383171Y402920D01*
X383215Y402947D01*
X383275Y402974D01*
X383335Y403002D01*
X383406Y403034D01*
X383483Y403062D01*
X383564Y403089D01*
X383652Y403116D01*
X383745Y403138D01*
X383843Y403149D01*
X383947Y403160D01*
X384056Y403165D01*
X384116D01*
X384159Y403160D01*
D02*
G37*
%LPC*%
G36*
X311493Y317658D02*
X310302D01*
Y316408D01*
X311427D01*
X311493Y316413D01*
X311569Y316419D01*
X311656Y316424D01*
X311744Y316435D01*
X311831Y316451D01*
X311908Y316473D01*
X311918Y316478D01*
X311940Y316490D01*
X311973Y316506D01*
X312017Y316528D01*
X312066Y316560D01*
X312115Y316599D01*
X312164Y316648D01*
X312202Y316702D01*
X312208Y316708D01*
X312219Y316730D01*
X312235Y316762D01*
X312257Y316806D01*
X312273Y316855D01*
X312290Y316910D01*
X312301Y316975D01*
X312306Y317041D01*
Y317046D01*
Y317052D01*
X312301Y317085D01*
X312295Y317134D01*
X312284Y317199D01*
X312257Y317265D01*
X312224Y317341D01*
X312175Y317412D01*
X312110Y317483D01*
X312099Y317489D01*
X312071Y317511D01*
X312028Y317538D01*
X311957Y317570D01*
X311875Y317603D01*
X311766Y317631D01*
X311640Y317652D01*
X311493Y317658D01*
D02*
G37*
G36*
Y333458D02*
X310302D01*
Y332208D01*
X311427D01*
X311493Y332213D01*
X311569Y332219D01*
X311656Y332224D01*
X311744Y332235D01*
X311831Y332251D01*
X311908Y332273D01*
X311918Y332278D01*
X311940Y332290D01*
X311973Y332306D01*
X312017Y332328D01*
X312066Y332360D01*
X312115Y332399D01*
X312164Y332448D01*
X312202Y332502D01*
X312208Y332508D01*
X312219Y332530D01*
X312235Y332562D01*
X312257Y332606D01*
X312273Y332655D01*
X312290Y332710D01*
X312301Y332775D01*
X312306Y332841D01*
Y332846D01*
Y332852D01*
X312301Y332885D01*
X312295Y332934D01*
X312284Y332999D01*
X312257Y333065D01*
X312224Y333141D01*
X312175Y333212D01*
X312110Y333283D01*
X312099Y333289D01*
X312071Y333311D01*
X312028Y333338D01*
X311957Y333370D01*
X311875Y333403D01*
X311766Y333431D01*
X311640Y333452D01*
X311493Y333458D01*
D02*
G37*
G36*
X264107Y308912D02*
X264053D01*
X264014Y308907D01*
X263965Y308902D01*
X263911Y308891D01*
X263851Y308880D01*
X263785Y308863D01*
X263709Y308841D01*
X263638Y308820D01*
X263561Y308787D01*
X263479Y308749D01*
X263403Y308705D01*
X263327Y308650D01*
X263250Y308596D01*
X263179Y308525D01*
X263174Y308519D01*
X263163Y308508D01*
X263146Y308487D01*
X263124Y308454D01*
X263092Y308416D01*
X263064Y308366D01*
X263032Y308306D01*
X262999Y308241D01*
X262961Y308165D01*
X262928Y308077D01*
X262901Y307984D01*
X262873Y307881D01*
X262846Y307771D01*
X262830Y307651D01*
X262819Y307520D01*
X262813Y307384D01*
Y307373D01*
Y307351D01*
Y307313D01*
X262819Y307264D01*
X262824Y307204D01*
X262835Y307133D01*
X262846Y307051D01*
X262857Y306969D01*
X262901Y306783D01*
X262928Y306690D01*
X262966Y306597D01*
X263004Y306505D01*
X263053Y306417D01*
X263108Y306330D01*
X263174Y306254D01*
X263179Y306248D01*
X263190Y306237D01*
X263212Y306215D01*
X263239Y306193D01*
X263277Y306161D01*
X263321Y306128D01*
X263370Y306095D01*
X263430Y306057D01*
X263490Y306019D01*
X263561Y305986D01*
X263638Y305953D01*
X263720Y305920D01*
X263812Y305899D01*
X263905Y305877D01*
X264003Y305866D01*
X264107Y305860D01*
X264156D01*
X264206Y305866D01*
X264271Y305871D01*
X264353Y305882D01*
X264435Y305904D01*
X264528Y305926D01*
X264615Y305959D01*
X264604Y305964D01*
X264577Y305986D01*
X264528Y306013D01*
X264468Y306046D01*
X264391Y306079D01*
X264309Y306117D01*
X264216Y306150D01*
X264118Y306177D01*
X264244Y306537D01*
X264249D01*
X264266Y306532D01*
X264287Y306526D01*
X264315Y306516D01*
X264353Y306505D01*
X264397Y306488D01*
X264495Y306450D01*
X264610Y306395D01*
X264730Y306335D01*
X264844Y306264D01*
X264959Y306177D01*
X264965Y306183D01*
X264981Y306193D01*
X265003Y306221D01*
X265030Y306254D01*
X265063Y306297D01*
X265101Y306346D01*
X265139Y306406D01*
X265183Y306477D01*
X265221Y306559D01*
X265259Y306652D01*
X265298Y306750D01*
X265330Y306854D01*
X265363Y306974D01*
X265385Y307100D01*
X265396Y307236D01*
X265401Y307384D01*
Y307389D01*
Y307405D01*
Y307427D01*
Y307460D01*
X265396Y307504D01*
Y307547D01*
X265390Y307602D01*
X265379Y307657D01*
X265363Y307782D01*
X265336Y307919D01*
X265298Y308055D01*
X265243Y308186D01*
Y308192D01*
X265237Y308203D01*
X265227Y308219D01*
X265216Y308241D01*
X265177Y308306D01*
X265128Y308383D01*
X265063Y308470D01*
X264981Y308558D01*
X264888Y308645D01*
X264784Y308721D01*
X264779D01*
X264773Y308732D01*
X264757Y308738D01*
X264730Y308754D01*
X264702Y308765D01*
X264670Y308782D01*
X264588Y308820D01*
X264490Y308852D01*
X264375Y308885D01*
X264244Y308907D01*
X264107Y308912D01*
D02*
G37*
G36*
X441007Y406512D02*
X440953D01*
X440914Y406507D01*
X440865Y406502D01*
X440811Y406491D01*
X440751Y406480D01*
X440685Y406463D01*
X440609Y406441D01*
X440538Y406420D01*
X440461Y406387D01*
X440379Y406349D01*
X440303Y406305D01*
X440227Y406250D01*
X440150Y406196D01*
X440079Y406125D01*
X440074Y406119D01*
X440063Y406109D01*
X440046Y406087D01*
X440025Y406054D01*
X439992Y406016D01*
X439964Y405967D01*
X439932Y405906D01*
X439899Y405841D01*
X439861Y405764D01*
X439828Y405677D01*
X439801Y405584D01*
X439773Y405481D01*
X439746Y405371D01*
X439730Y405251D01*
X439719Y405120D01*
X439713Y404984D01*
Y404973D01*
Y404951D01*
Y404913D01*
X439719Y404864D01*
X439724Y404804D01*
X439735Y404733D01*
X439746Y404651D01*
X439757Y404569D01*
X439801Y404383D01*
X439828Y404290D01*
X439866Y404198D01*
X439904Y404105D01*
X439954Y404017D01*
X440008Y403930D01*
X440074Y403854D01*
X440079Y403848D01*
X440090Y403837D01*
X440112Y403815D01*
X440139Y403793D01*
X440177Y403761D01*
X440221Y403728D01*
X440270Y403695D01*
X440330Y403657D01*
X440390Y403619D01*
X440461Y403586D01*
X440538Y403553D01*
X440620Y403520D01*
X440712Y403499D01*
X440805Y403477D01*
X440904Y403466D01*
X441007Y403460D01*
X441056D01*
X441106Y403466D01*
X441171Y403471D01*
X441253Y403482D01*
X441335Y403504D01*
X441428Y403526D01*
X441515Y403559D01*
X441504Y403564D01*
X441477Y403586D01*
X441428Y403613D01*
X441368Y403646D01*
X441291Y403679D01*
X441209Y403717D01*
X441117Y403750D01*
X441018Y403777D01*
X441144Y404137D01*
X441149D01*
X441166Y404132D01*
X441187Y404127D01*
X441215Y404116D01*
X441253Y404105D01*
X441297Y404088D01*
X441395Y404050D01*
X441510Y403995D01*
X441630Y403935D01*
X441744Y403864D01*
X441859Y403777D01*
X441864Y403783D01*
X441881Y403793D01*
X441903Y403821D01*
X441930Y403854D01*
X441963Y403897D01*
X442001Y403946D01*
X442039Y404006D01*
X442083Y404077D01*
X442121Y404159D01*
X442159Y404252D01*
X442198Y404350D01*
X442230Y404454D01*
X442263Y404574D01*
X442285Y404700D01*
X442296Y404836D01*
X442301Y404984D01*
Y404989D01*
Y405006D01*
Y405027D01*
Y405060D01*
X442296Y405104D01*
Y405148D01*
X442290Y405202D01*
X442279Y405257D01*
X442263Y405382D01*
X442236Y405519D01*
X442198Y405655D01*
X442143Y405786D01*
Y405792D01*
X442137Y405803D01*
X442127Y405819D01*
X442116Y405841D01*
X442077Y405906D01*
X442028Y405983D01*
X441963Y406070D01*
X441881Y406158D01*
X441788Y406245D01*
X441684Y406321D01*
X441679D01*
X441673Y406332D01*
X441657Y406338D01*
X441630Y406354D01*
X441602Y406365D01*
X441570Y406382D01*
X441488Y406420D01*
X441390Y406452D01*
X441275Y406485D01*
X441144Y406507D01*
X441007Y406512D01*
D02*
G37*
G36*
X448536Y346976D02*
X448531D01*
X448525Y346971D01*
X448509Y346965D01*
X448487Y346959D01*
X448460Y346949D01*
X448427Y346938D01*
X448389Y346927D01*
X448345Y346916D01*
X448296Y346900D01*
X448236Y346889D01*
X448176Y346872D01*
X448105Y346856D01*
X448028Y346839D01*
X447952Y346823D01*
X447865Y346812D01*
X447772Y346796D01*
X447761D01*
X447728Y346790D01*
X447674Y346779D01*
X447613Y346768D01*
X447548Y346758D01*
X447482Y346741D01*
X447422Y346725D01*
X447368Y346703D01*
X447362D01*
X447346Y346692D01*
X447324Y346681D01*
X447302Y346665D01*
X447237Y346621D01*
X447182Y346555D01*
Y346550D01*
X447171Y346539D01*
X447166Y346517D01*
X447155Y346490D01*
X447144Y346457D01*
X447133Y346425D01*
X447127Y346381D01*
X447122Y346337D01*
Y346332D01*
Y346304D01*
X447127Y346272D01*
X447138Y346228D01*
X447155Y346179D01*
X447182Y346130D01*
X447215Y346075D01*
X447259Y346026D01*
X447264Y346020D01*
X447286Y346009D01*
X447319Y345988D01*
X447362Y345966D01*
X447422Y345944D01*
X447493Y345922D01*
X447575Y345911D01*
X447674Y345906D01*
X447717D01*
X447772Y345911D01*
X447832Y345922D01*
X447908Y345933D01*
X447985Y345955D01*
X448067Y345982D01*
X448148Y346020D01*
X448159Y346026D01*
X448181Y346042D01*
X448219Y346070D01*
X448263Y346108D01*
X448312Y346151D01*
X448367Y346206D01*
X448411Y346272D01*
X448454Y346343D01*
X448460Y346348D01*
X448465Y346370D01*
X448476Y346408D01*
X448492Y346457D01*
X448509Y346523D01*
X448520Y346599D01*
X448525Y346692D01*
X448531Y346801D01*
X448536Y346976D01*
D02*
G37*
G36*
X444698Y348931D02*
X443802D01*
Y347795D01*
X444731D01*
X444802Y347800D01*
X444878Y347806D01*
X444954Y347811D01*
X445031Y347822D01*
X445091Y347833D01*
X445102Y347839D01*
X445124Y347844D01*
X445156Y347860D01*
X445200Y347882D01*
X445244Y347904D01*
X445293Y347937D01*
X445342Y347981D01*
X445380Y348024D01*
X445386Y348030D01*
X445397Y348046D01*
X445413Y348079D01*
X445429Y348117D01*
X445446Y348161D01*
X445462Y348215D01*
X445473Y348281D01*
X445478Y348352D01*
Y348363D01*
Y348385D01*
X445473Y348417D01*
X445468Y348461D01*
X445457Y348516D01*
X445440Y348570D01*
X445419Y348625D01*
X445386Y348679D01*
X445380Y348685D01*
X445369Y348701D01*
X445347Y348729D01*
X445320Y348756D01*
X445282Y348789D01*
X445238Y348821D01*
X445184Y348854D01*
X445124Y348876D01*
X445118D01*
X445091Y348887D01*
X445053Y348892D01*
X444993Y348903D01*
X444911Y348914D01*
X444818Y348920D01*
X444698Y348931D01*
D02*
G37*
G36*
X444796Y347347D02*
X443802D01*
Y346048D01*
X444878D01*
X444993Y346053D01*
X445042Y346059D01*
X445085Y346064D01*
X445091D01*
X445113Y346070D01*
X445146Y346075D01*
X445184Y346086D01*
X445276Y346119D01*
X445369Y346162D01*
X445375Y346168D01*
X445391Y346179D01*
X445413Y346195D01*
X445440Y346217D01*
X445468Y346250D01*
X445506Y346283D01*
X445533Y346326D01*
X445566Y346375D01*
X445571Y346381D01*
X445577Y346397D01*
X445588Y346430D01*
X445604Y346468D01*
X445620Y346512D01*
X445631Y346566D01*
X445637Y346632D01*
X445642Y346697D01*
Y346708D01*
Y346730D01*
X445637Y346774D01*
X445626Y346823D01*
X445615Y346878D01*
X445593Y346938D01*
X445566Y346998D01*
X445528Y347058D01*
X445522Y347063D01*
X445506Y347085D01*
X445484Y347112D01*
X445451Y347145D01*
X445408Y347183D01*
X445353Y347222D01*
X445293Y347254D01*
X445222Y347282D01*
X445211Y347287D01*
X445189Y347293D01*
X445140Y347304D01*
X445080Y347314D01*
X445004Y347325D01*
X444911Y347336D01*
X444796Y347347D01*
D02*
G37*
G36*
X453783Y348019D02*
X453750D01*
X453729Y348013D01*
X453668Y348008D01*
X453598Y347991D01*
X453510Y347964D01*
X453417Y347926D01*
X453330Y347871D01*
X453243Y347800D01*
X453232Y347790D01*
X453210Y347762D01*
X453172Y347713D01*
X453133Y347648D01*
X453090Y347571D01*
X453052Y347473D01*
X453019Y347358D01*
X453002Y347233D01*
X454537D01*
Y347238D01*
Y347249D01*
X454531Y347265D01*
Y347287D01*
X454520Y347353D01*
X454504Y347424D01*
X454477Y347511D01*
X454449Y347593D01*
X454406Y347675D01*
X454356Y347746D01*
Y347751D01*
X454346Y347757D01*
X454318Y347790D01*
X454269Y347833D01*
X454204Y347882D01*
X454122Y347931D01*
X454023Y347975D01*
X453909Y348008D01*
X453849Y348013D01*
X453783Y348019D01*
D02*
G37*
%LPD*%
D10*
X478346Y228346D02*
G03*
X478346Y228346I-5906J0D01*
G01*
D11*
X325394Y283465D02*
G03*
X325394Y283465I-1181J0D01*
G01*
X338386Y374606D02*
G03*
X338386Y374606I-1181J0D01*
G01*
X408504Y261457D02*
G03*
X408504Y261457I-1181J0D01*
G01*
D12*
X316201Y287835D02*
G03*
X316201Y287835I-492J0D01*
G01*
X346201Y369331D02*
G03*
X346201Y369331I-492J0D01*
G01*
X449311Y353051D02*
G03*
X449311Y353051I-492J0D01*
G01*
X416319Y257087D02*
G03*
X416319Y257087I-492J0D01*
G01*
D13*
X328209Y287402D02*
G03*
X333209Y287402I2500J0D01*
G01*
X275590Y246614D02*
G03*
X275590Y247008I0J197D01*
G01*
D02*
G03*
X275590Y246614I0J-197D01*
G01*
D02*
G03*
X275590Y247008I0J197D01*
G01*
X333209Y370669D02*
G03*
X328209Y370669I-2500J0D01*
G01*
X442913Y400295D02*
G03*
X439665Y397047I0J-3248D01*
G01*
X457972Y397047D02*
G03*
X454724Y400295I-3248J0D01*
G01*
X454724Y355610D02*
G03*
X457972Y358858I0J3248D01*
G01*
X439665D02*
G03*
X442913Y355610I3248J0D01*
G01*
X403327Y257520D02*
G03*
X398327Y257520I-2500J0D01*
G01*
X263878Y317539D02*
Y351752D01*
X255807D02*
X263878D01*
X255807Y317539D02*
Y351752D01*
X255807Y317539D02*
X263878D01*
X289843Y372933D02*
Y414468D01*
X264843D02*
X289843D01*
X264843Y372933D02*
Y414468D01*
Y372933D02*
X289843D01*
X451949Y417067D02*
X461437D01*
X451949D02*
Y439075D01*
X461437D01*
Y417067D02*
Y439075D01*
X343110Y302362D02*
Y311811D01*
X318307Y302362D02*
X343110D01*
X318307Y311811D02*
X343110D01*
X318307Y302362D02*
Y311811D01*
X343110Y318110D02*
Y327559D01*
X318307Y318110D02*
X343110D01*
X318307Y327559D02*
X343110D01*
X318307Y318110D02*
Y327559D01*
X320276Y248031D02*
X341142D01*
X333209Y287402D02*
X341142D01*
X320276D02*
X328209D01*
X341142Y248031D02*
Y287402D01*
X320276Y248031D02*
Y287402D01*
X468898Y280709D02*
X470866D01*
X469882Y279724D02*
Y281693D01*
X443701Y321850D02*
Y323819D01*
X447638Y261811D02*
X465158D01*
Y285335D02*
Y341732D01*
Y261811D02*
Y276083D01*
X447638Y341732D02*
X465158D01*
X447638Y327461D02*
Y341732D01*
Y261811D02*
Y318209D01*
X320276Y448228D02*
X341142D01*
X320276Y370669D02*
X328209D01*
X333209D02*
X341142D01*
X320276D02*
Y448228D01*
X341142Y370669D02*
Y448228D01*
X441319Y248228D02*
Y249095D01*
X456319Y248228D02*
Y249095D01*
Y239094D02*
Y239961D01*
X441319Y239094D02*
Y239961D01*
Y249095D02*
X456319D01*
X441319Y239094D02*
X456319D01*
X387441Y415197D02*
X389665D01*
X397736D02*
X399961D01*
Y435197D01*
X387441D02*
X389665D01*
X397736D02*
X399961D01*
X387441Y415197D02*
Y435197D01*
X269331Y423071D02*
X271555D01*
X279626D02*
X281850D01*
Y443071D01*
X269331D02*
X271555D01*
X279626D02*
X281850D01*
X269331Y423071D02*
Y443071D01*
X454724Y355610D02*
X454724Y355610D01*
X442913Y355610D02*
X454724D01*
X442913Y400295D02*
X454724D01*
X439665Y358858D02*
Y397047D01*
X457972Y358858D02*
Y397047D01*
X422697Y429331D02*
Y430197D01*
X437697Y429331D02*
Y430197D01*
Y420197D02*
Y421063D01*
X422697Y420197D02*
Y421063D01*
Y430197D02*
X437697D01*
X422697Y420197D02*
X437697D01*
X390394Y396890D02*
X411260D01*
X390394Y257520D02*
X398327D01*
X403327D02*
X411260D01*
X390394D02*
Y396890D01*
X411260Y257520D02*
Y396890D01*
D14*
X266437Y255571D02*
Y299075D01*
X284744D01*
Y255571D02*
Y299075D01*
X266437Y255571D02*
X284744D01*
M02*
