G04*
G04 #@! TF.GenerationSoftware,Altium Limited,Altium Designer,22.8.2 (66)*
G04*
G04 Layer_Color=8388736*
%FSLAX25Y25*%
%MOIN*%
G70*
G04*
G04 #@! TF.SameCoordinates,1DA06848-B02D-40B0-91E6-948BEBB4C5FF*
G04*
G04*
G04 #@! TF.FilePolarity,Negative*
G04*
G01*
G75*
%ADD15C,0.05721*%
%ADD16R,0.05721X0.05721*%
%ADD17C,0.06706*%
%ADD18R,0.06706X0.06706*%
%ADD19C,0.08661*%
%ADD20C,0.06902*%
%ADD21R,0.06902X0.06902*%
%ADD22R,0.06115X0.06115*%
%ADD23C,0.06115*%
%ADD24R,0.06706X0.06706*%
%ADD25C,0.05493*%
%ADD26R,0.06299X0.06299*%
%ADD27C,0.06299*%
%ADD28R,0.05918X0.05918*%
%ADD29C,0.05918*%
%ADD30C,0.05118*%
%ADD31R,0.05118X0.05118*%
%ADD32R,0.05524X0.05524*%
%ADD33C,0.05524*%
D15*
X259842Y346457D02*
D03*
Y338583D02*
D03*
Y330709D02*
D03*
D16*
Y322835D02*
D03*
D17*
Y409449D02*
D03*
Y401575D02*
D03*
Y393701D02*
D03*
Y385827D02*
D03*
X345709Y252716D02*
D03*
Y262717D02*
D03*
Y272716D02*
D03*
Y282716D02*
D03*
X315709Y252716D02*
D03*
Y262717D02*
D03*
Y272716D02*
D03*
Y444449D02*
D03*
Y434449D02*
D03*
Y424449D02*
D03*
Y414449D02*
D03*
Y404449D02*
D03*
Y394449D02*
D03*
Y384449D02*
D03*
Y374449D02*
D03*
X345709Y444449D02*
D03*
Y434449D02*
D03*
Y424449D02*
D03*
Y414449D02*
D03*
Y404449D02*
D03*
Y394449D02*
D03*
Y384449D02*
D03*
X385827Y392205D02*
D03*
Y382205D02*
D03*
Y372205D02*
D03*
Y362205D02*
D03*
Y352205D02*
D03*
Y342205D02*
D03*
Y332205D02*
D03*
Y322205D02*
D03*
Y312205D02*
D03*
Y302205D02*
D03*
Y292205D02*
D03*
Y282205D02*
D03*
Y272205D02*
D03*
Y262205D02*
D03*
X415827Y392205D02*
D03*
Y382205D02*
D03*
Y372205D02*
D03*
Y362205D02*
D03*
Y352205D02*
D03*
Y342205D02*
D03*
Y332205D02*
D03*
Y322205D02*
D03*
Y312205D02*
D03*
Y302205D02*
D03*
Y292205D02*
D03*
Y282205D02*
D03*
Y272205D02*
D03*
D18*
X259842Y377953D02*
D03*
D19*
X472441Y228346D02*
D03*
D20*
X456693Y423071D02*
D03*
D21*
Y433071D02*
D03*
D22*
X312992Y307087D02*
D03*
Y322835D02*
D03*
D23*
X348425Y307087D02*
D03*
Y322835D02*
D03*
D24*
X315709Y282716D02*
D03*
X345709Y374449D02*
D03*
X415827Y262205D02*
D03*
D25*
X275590Y267717D02*
D03*
Y286929D02*
D03*
D26*
X448819Y322835D02*
D03*
D27*
X463976Y280709D02*
D03*
D28*
X443819Y244094D02*
D03*
X425197Y425197D02*
D03*
D29*
X453819Y244094D02*
D03*
X435197Y425197D02*
D03*
D30*
X393701Y435197D02*
D03*
X275590Y443071D02*
D03*
D31*
X393701Y415197D02*
D03*
X275590Y423071D02*
D03*
D32*
X448819Y368347D02*
D03*
D33*
Y387559D02*
D03*
M02*
