M48
;Layer_Color=9474304
;FILE_FORMAT=2:5
INCH,LZ
;TYPE=PLATED
T1F00S00C0.02559
T2F00S00C0.02756
T3F00S00C0.02799
T4F00S00C0.03150
T5F00S00C0.03346
T6F00S00C0.03543
T7F00S00C0.03898
T8F00S00C0.04094
T9F00S00C0.04134
T10F00S00C0.05709
%
T01
X027559Y0267717
Y0286929
T02
X0448819Y0368347
Y0387559
T03
X0259842Y0322835
Y0330709
Y0338583
Y0346457
T04
X0443819Y0244094
X0453819
X027559Y0423071
Y0443071
X0393701Y0435197
Y0415197
X0425197Y0425197
X0435197
T05
X0312992Y0307087
X0348425
Y0322835
X0312992
T06
X0315709Y0252716
Y0262717
Y0272716
Y0282716
X0345709
Y0272716
Y0262717
Y0252716
X0385827Y0262205
Y0272205
Y0282205
Y0292205
Y0302205
Y0312205
X0415827
Y0302205
Y0292205
Y0282205
Y0272205
Y0262205
Y0322205
Y0332205
Y0342205
Y0352205
Y0362205
Y0372205
Y0382205
Y0392205
X0385827
Y0382205
Y0372205
Y0362205
Y0352205
Y0342205
Y0332205
Y0322205
X0345709Y0374449
Y0384449
Y0394449
Y0404449
Y0414449
Y0424449
Y0434449
Y0444449
X0315709
Y0434449
Y0424449
Y0414449
Y0404449
Y0394449
Y0384449
Y0374449
T07
X0259842Y0377953
Y0385827
Y0393701
Y0401575
Y0409449
T08
X0456693Y0423071
Y0433071
T09
X0463976Y0280709
X0448819Y0322835
T10
X0472441Y0228346
M30
