G04*
G04 #@! TF.GenerationSoftware,Altium Limited,Altium Designer,22.8.2 (66)*
G04*
G04 Layer_Color=8388736*
%FSLAX43Y43*%
%MOMM*%
G71*
G04*
G04 #@! TF.SameCoordinates,B507F7F0-0314-43D2-82EB-6D1F289CE23D*
G04*
G04*
G04 #@! TF.FilePolarity,Negative*
G04*
G01*
G75*
%ADD15C,1.453*%
%ADD16R,1.453X1.453*%
%ADD17C,1.703*%
%ADD18R,1.703X1.703*%
%ADD19C,2.200*%
%ADD20C,1.753*%
%ADD21R,1.753X1.753*%
%ADD22R,1.553X1.553*%
%ADD23C,1.553*%
%ADD24R,1.703X1.703*%
%ADD25C,1.395*%
%ADD26R,1.600X1.600*%
%ADD27C,1.600*%
%ADD28R,1.503X1.503*%
%ADD29C,1.503*%
%ADD30C,1.300*%
%ADD31R,1.300X1.300*%
%ADD32R,1.403X1.403*%
%ADD33C,1.403*%
D15*
X66000Y88000D02*
D03*
Y86000D02*
D03*
Y84000D02*
D03*
D16*
Y82000D02*
D03*
D17*
Y104000D02*
D03*
Y102000D02*
D03*
Y100000D02*
D03*
Y98000D02*
D03*
X87810Y64190D02*
D03*
Y66730D02*
D03*
Y69270D02*
D03*
Y71810D02*
D03*
X80190Y64190D02*
D03*
Y66730D02*
D03*
Y69270D02*
D03*
Y112890D02*
D03*
Y110350D02*
D03*
Y107810D02*
D03*
Y105270D02*
D03*
Y102730D02*
D03*
Y100190D02*
D03*
Y97650D02*
D03*
Y95110D02*
D03*
X87810Y112890D02*
D03*
Y110350D02*
D03*
Y107810D02*
D03*
Y105270D02*
D03*
Y102730D02*
D03*
Y100190D02*
D03*
Y97650D02*
D03*
X98000Y99620D02*
D03*
Y97080D02*
D03*
Y94540D02*
D03*
Y92000D02*
D03*
Y89460D02*
D03*
Y86920D02*
D03*
Y84380D02*
D03*
Y81840D02*
D03*
Y79300D02*
D03*
Y76760D02*
D03*
Y74220D02*
D03*
Y71680D02*
D03*
Y69140D02*
D03*
Y66600D02*
D03*
X105620Y99620D02*
D03*
Y97080D02*
D03*
Y94540D02*
D03*
Y92000D02*
D03*
Y89460D02*
D03*
Y86920D02*
D03*
Y84380D02*
D03*
Y81840D02*
D03*
Y79300D02*
D03*
Y76760D02*
D03*
Y74220D02*
D03*
Y71680D02*
D03*
Y69140D02*
D03*
D18*
X66000Y96000D02*
D03*
D19*
X120000Y58000D02*
D03*
D20*
X116000Y107460D02*
D03*
D21*
Y110000D02*
D03*
D22*
X79500Y78000D02*
D03*
Y82000D02*
D03*
D23*
X88500Y78000D02*
D03*
Y82000D02*
D03*
D24*
X80190Y71810D02*
D03*
X87810Y95110D02*
D03*
X105620Y66600D02*
D03*
D25*
X70000Y68000D02*
D03*
Y72880D02*
D03*
D26*
X114000Y82000D02*
D03*
D27*
X117850Y71300D02*
D03*
D28*
X112730Y62000D02*
D03*
X108000Y108000D02*
D03*
D29*
X115270Y62000D02*
D03*
X110540Y108000D02*
D03*
D30*
X100000Y110540D02*
D03*
X70000Y112540D02*
D03*
D31*
X100000Y105460D02*
D03*
X70000Y107460D02*
D03*
D32*
X114000Y93560D02*
D03*
D33*
Y98440D02*
D03*
M02*
