G04*
G04 #@! TF.GenerationSoftware,Altium Limited,Altium Designer,22.8.2 (66)*
G04*
G04 Layer_Color=65535*
%FSLAX43Y43*%
%MOMM*%
G71*
G04*
G04 #@! TF.SameCoordinates,B507F7F0-0314-43D2-82EB-6D1F289CE23D*
G04*
G04*
G04 #@! TF.FilePolarity,Positive*
G04*
G01*
G75*
%ADD10C,0.150*%
%ADD11C,0.600*%
%ADD12C,0.250*%
%ADD13C,0.200*%
%ADD14C,0.100*%
G36*
X115582Y113268D02*
X115594Y113267D01*
X115607Y113266D01*
X115623Y113263D01*
X115640Y113260D01*
X115675Y113250D01*
X115712Y113236D01*
X115731Y113228D01*
X115749Y113218D01*
X115766Y113206D01*
X115783Y113192D01*
X115784Y113191D01*
X115787Y113189D01*
X115791Y113184D01*
X115797Y113178D01*
X115802Y113171D01*
X115809Y113162D01*
X115817Y113152D01*
X115826Y113141D01*
X115841Y113113D01*
X115855Y113081D01*
X115859Y113064D01*
X115863Y113045D01*
X115866Y113027D01*
X115867Y113006D01*
Y113003D01*
Y112995D01*
X115866Y112984D01*
X115863Y112969D01*
X115860Y112951D01*
X115855Y112931D01*
X115847Y112911D01*
X115837Y112890D01*
X115835Y112887D01*
X115831Y112880D01*
X115823Y112869D01*
X115812Y112854D01*
X115797Y112836D01*
X115776Y112813D01*
X115751Y112788D01*
X115722Y112762D01*
X115719Y112759D01*
X115712Y112754D01*
X115702Y112744D01*
X115690Y112733D01*
X115677Y112721D01*
X115665Y112708D01*
X115654Y112697D01*
X115645Y112686D01*
Y112684D01*
X115643Y112682D01*
X115640Y112676D01*
X115636Y112671D01*
X115632Y112662D01*
X115627Y112653D01*
X115619Y112630D01*
Y112629D01*
X115618Y112625D01*
X115616Y112617D01*
X115615Y112607D01*
X115614Y112593D01*
X115612Y112575D01*
X115611Y112554D01*
Y112531D01*
X115497D01*
Y112532D01*
Y112535D01*
Y112543D01*
X115496Y112554D01*
Y112565D01*
Y112567D01*
Y112568D01*
Y112576D01*
X115497Y112590D01*
X115498Y112607D01*
X115500Y112625D01*
X115504Y112644D01*
X115508Y112665D01*
X115515Y112684D01*
X115516Y112686D01*
X115518Y112691D01*
X115522Y112698D01*
X115526Y112708D01*
X115533Y112719D01*
X115541Y112733D01*
X115551Y112747D01*
X115562Y112761D01*
X115564Y112762D01*
X115566Y112766D01*
X115573Y112772D01*
X115582Y112782D01*
X115593Y112793D01*
X115608Y112807D01*
X115626Y112823D01*
X115647Y112843D01*
X115648D01*
X115650Y112845D01*
X115657Y112851D01*
X115668Y112862D01*
X115680Y112873D01*
X115694Y112887D01*
X115706Y112902D01*
X115719Y112916D01*
X115727Y112929D01*
X115729Y112930D01*
X115730Y112934D01*
X115733Y112941D01*
X115737Y112949D01*
X115741Y112960D01*
X115744Y112972D01*
X115745Y112985D01*
X115747Y112999D01*
Y113001D01*
Y113002D01*
X115745Y113010D01*
X115744Y113024D01*
X115740Y113040D01*
X115734Y113059D01*
X115724Y113078D01*
X115711Y113099D01*
X115693Y113120D01*
X115690Y113123D01*
X115683Y113128D01*
X115672Y113137D01*
X115657Y113146D01*
X115637Y113156D01*
X115615Y113164D01*
X115589Y113170D01*
X115561Y113173D01*
X115554D01*
X115548Y113171D01*
X115535Y113170D01*
X115516Y113167D01*
X115497Y113160D01*
X115476Y113152D01*
X115455Y113141D01*
X115435Y113124D01*
X115432Y113121D01*
X115426Y113116D01*
X115418Y113103D01*
X115408Y113088D01*
X115397Y113067D01*
X115386Y113042D01*
X115376Y113012D01*
X115369Y112977D01*
X115249Y112992D01*
Y112994D01*
X115250Y112998D01*
Y113005D01*
X115253Y113015D01*
X115254Y113026D01*
X115259Y113038D01*
X115261Y113052D01*
X115267Y113069D01*
X115279Y113101D01*
X115296Y113135D01*
X115317Y113169D01*
X115331Y113184D01*
X115344Y113198D01*
X115346Y113199D01*
X115349Y113200D01*
X115353Y113205D01*
X115360Y113209D01*
X115368Y113214D01*
X115378Y113220D01*
X115389Y113227D01*
X115401Y113234D01*
X115417Y113241D01*
X115433Y113248D01*
X115450Y113253D01*
X115469Y113259D01*
X115511Y113267D01*
X115535Y113268D01*
X115558Y113270D01*
X115572D01*
X115582Y113268D01*
D02*
G37*
G36*
X115085Y112599D02*
Y112597D01*
Y112593D01*
Y112587D01*
Y112579D01*
X115084Y112568D01*
Y112557D01*
X115081Y112531D01*
X115078Y112500D01*
X115073Y112468D01*
X115064Y112439D01*
X115055Y112411D01*
Y112410D01*
X115053Y112409D01*
X115049Y112400D01*
X115042Y112389D01*
X115032Y112374D01*
X115019Y112359D01*
X115003Y112342D01*
X114984Y112325D01*
X114962Y112311D01*
X114959Y112310D01*
X114951Y112306D01*
X114938Y112300D01*
X114920Y112295D01*
X114898Y112288D01*
X114873Y112282D01*
X114845Y112278D01*
X114815Y112277D01*
X114802D01*
X114794Y112278D01*
X114783Y112280D01*
X114772Y112281D01*
X114743Y112286D01*
X114712Y112295D01*
X114680Y112307D01*
X114664Y112316D01*
X114648Y112325D01*
X114634Y112336D01*
X114621Y112349D01*
X114619Y112350D01*
X114618Y112352D01*
X114615Y112357D01*
X114611Y112363D01*
X114605Y112370D01*
X114600Y112379D01*
X114594Y112390D01*
X114587Y112403D01*
X114582Y112417D01*
X114576Y112433D01*
X114571Y112450D01*
X114565Y112470D01*
X114562Y112490D01*
X114558Y112514D01*
X114557Y112537D01*
Y112564D01*
X114672Y112580D01*
Y112579D01*
Y112576D01*
Y112571D01*
X114673Y112562D01*
X114675Y112554D01*
Y112544D01*
X114679Y112521D01*
X114683Y112496D01*
X114691Y112471D01*
X114700Y112449D01*
X114705Y112439D01*
X114712Y112431D01*
X114713Y112429D01*
X114719Y112425D01*
X114727Y112418D01*
X114738Y112411D01*
X114754Y112403D01*
X114770Y112397D01*
X114791Y112392D01*
X114813Y112390D01*
X114822D01*
X114830Y112392D01*
X114842Y112393D01*
X114855Y112396D01*
X114869Y112399D01*
X114883Y112404D01*
X114897Y112411D01*
X114898Y112413D01*
X114902Y112415D01*
X114908Y112421D01*
X114916Y112427D01*
X114923Y112436D01*
X114931Y112446D01*
X114938Y112457D01*
X114944Y112471D01*
Y112472D01*
X114946Y112478D01*
X114948Y112488D01*
X114951Y112500D01*
X114953Y112517D01*
X114955Y112537D01*
X114958Y112562D01*
Y112592D01*
Y113253D01*
X115085D01*
Y112599D01*
D02*
G37*
G36*
X115611Y112293D02*
X115476D01*
Y112428D01*
X115611D01*
Y112293D01*
D02*
G37*
G36*
X118946Y60402D02*
Y60400D01*
Y60396D01*
Y60390D01*
Y60382D01*
X118945Y60371D01*
Y60360D01*
X118942Y60334D01*
X118939Y60303D01*
X118933Y60271D01*
X118925Y60242D01*
X118915Y60214D01*
Y60213D01*
X118914Y60212D01*
X118910Y60203D01*
X118903Y60192D01*
X118893Y60177D01*
X118879Y60162D01*
X118864Y60145D01*
X118845Y60128D01*
X118823Y60114D01*
X118820Y60113D01*
X118811Y60109D01*
X118799Y60103D01*
X118781Y60098D01*
X118759Y60091D01*
X118734Y60085D01*
X118706Y60081D01*
X118676Y60080D01*
X118663D01*
X118655Y60081D01*
X118644Y60083D01*
X118633Y60084D01*
X118603Y60089D01*
X118573Y60098D01*
X118541Y60110D01*
X118524Y60119D01*
X118509Y60128D01*
X118495Y60139D01*
X118481Y60152D01*
X118480Y60153D01*
X118479Y60155D01*
X118476Y60160D01*
X118472Y60166D01*
X118466Y60173D01*
X118461Y60182D01*
X118455Y60193D01*
X118448Y60206D01*
X118443Y60220D01*
X118437Y60236D01*
X118431Y60253D01*
X118426Y60273D01*
X118423Y60293D01*
X118419Y60317D01*
X118418Y60340D01*
Y60367D01*
X118533Y60383D01*
Y60382D01*
Y60379D01*
Y60374D01*
X118534Y60365D01*
X118535Y60357D01*
Y60347D01*
X118540Y60324D01*
X118544Y60299D01*
X118552Y60274D01*
X118560Y60252D01*
X118566Y60242D01*
X118573Y60234D01*
X118574Y60232D01*
X118580Y60228D01*
X118588Y60221D01*
X118599Y60214D01*
X118615Y60206D01*
X118631Y60200D01*
X118652Y60195D01*
X118674Y60193D01*
X118682D01*
X118691Y60195D01*
X118703Y60196D01*
X118716Y60199D01*
X118730Y60202D01*
X118743Y60207D01*
X118757Y60214D01*
X118759Y60216D01*
X118763Y60218D01*
X118768Y60224D01*
X118777Y60230D01*
X118784Y60239D01*
X118792Y60249D01*
X118799Y60260D01*
X118804Y60274D01*
Y60275D01*
X118807Y60281D01*
X118809Y60291D01*
X118811Y60303D01*
X118814Y60320D01*
X118816Y60340D01*
X118818Y60365D01*
Y60395D01*
Y61056D01*
X118946D01*
Y60402D01*
D02*
G37*
G36*
X119549Y60096D02*
X119431D01*
Y60847D01*
X119430Y60845D01*
X119423Y60840D01*
X119415Y60831D01*
X119401Y60822D01*
X119386Y60809D01*
X119366Y60795D01*
X119344Y60780D01*
X119319Y60765D01*
X119318D01*
X119316Y60763D01*
X119308Y60758D01*
X119294Y60751D01*
X119277Y60743D01*
X119258Y60733D01*
X119237Y60723D01*
X119216Y60714D01*
X119196Y60705D01*
Y60819D01*
X119197D01*
X119200Y60822D01*
X119205Y60823D01*
X119212Y60827D01*
X119221Y60831D01*
X119230Y60837D01*
X119254Y60851D01*
X119282Y60866D01*
X119309Y60886D01*
X119338Y60908D01*
X119368Y60931D01*
X119369Y60933D01*
X119370Y60934D01*
X119374Y60938D01*
X119380Y60942D01*
X119393Y60956D01*
X119409Y60973D01*
X119426Y60992D01*
X119444Y61014D01*
X119459Y61037D01*
X119473Y61060D01*
X119549D01*
Y60096D01*
D02*
G37*
G36*
X80314Y115611D02*
X80325D01*
X80339Y115609D01*
X80354Y115608D01*
X80369Y115606D01*
X80404Y115601D01*
X80442Y115593D01*
X80478Y115582D01*
X80512Y115566D01*
X80514D01*
X80516Y115564D01*
X80521Y115561D01*
X80526Y115558D01*
X80541Y115547D01*
X80559Y115532D01*
X80580Y115512D01*
X80600Y115490D01*
X80619Y115462D01*
X80634Y115432D01*
Y115430D01*
X80636Y115428D01*
X80637Y115422D01*
X80640Y115415D01*
X80643Y115407D01*
X80645Y115396D01*
X80650Y115383D01*
X80652Y115368D01*
X80655Y115351D01*
X80659Y115333D01*
X80662Y115314D01*
X80665Y115293D01*
X80668Y115270D01*
X80669Y115245D01*
X80670Y115218D01*
Y115190D01*
Y114636D01*
X80543D01*
Y115190D01*
Y115192D01*
Y115196D01*
Y115203D01*
Y115211D01*
X80541Y115221D01*
Y115233D01*
X80540Y115260D01*
X80537Y115290D01*
X80533Y115321D01*
X80528Y115350D01*
X80525Y115362D01*
X80521Y115375D01*
X80519Y115378D01*
X80516Y115385D01*
X80510Y115394D01*
X80501Y115408D01*
X80492Y115422D01*
X80478Y115437D01*
X80461Y115453D01*
X80442Y115465D01*
X80439Y115466D01*
X80432Y115471D01*
X80419Y115475D01*
X80403Y115480D01*
X80383Y115487D01*
X80358Y115491D01*
X80332Y115496D01*
X80303Y115497D01*
X80289D01*
X80281Y115496D01*
X80268D01*
X80256Y115494D01*
X80225Y115489D01*
X80192Y115482D01*
X80160Y115471D01*
X80130Y115455D01*
X80116Y115446D01*
X80103Y115435D01*
X80102Y115433D01*
X80100Y115432D01*
X80098Y115428D01*
X80093Y115422D01*
X80089Y115414D01*
X80084Y115405D01*
X80078Y115393D01*
X80073Y115380D01*
X80067Y115365D01*
X80063Y115347D01*
X80057Y115326D01*
X80053Y115304D01*
X80049Y115279D01*
X80046Y115253D01*
X80044Y115222D01*
Y115190D01*
Y114636D01*
X79916D01*
Y115190D01*
Y115192D01*
Y115197D01*
Y115204D01*
Y115214D01*
X79917Y115227D01*
Y115240D01*
X79919Y115257D01*
X79920Y115274D01*
X79924Y115311D01*
X79930Y115350D01*
X79938Y115387D01*
X79944Y115405D01*
X79949Y115422D01*
Y115423D01*
X79951Y115426D01*
X79953Y115430D01*
X79956Y115436D01*
X79965Y115451D01*
X79977Y115471D01*
X79994Y115493D01*
X80013Y115515D01*
X80038Y115539D01*
X80069Y115559D01*
X80070D01*
X80073Y115562D01*
X80077Y115564D01*
X80084Y115568D01*
X80092Y115572D01*
X80103Y115576D01*
X80114Y115580D01*
X80128Y115586D01*
X80143Y115591D01*
X80160Y115595D01*
X80178Y115600D01*
X80199Y115604D01*
X80220Y115606D01*
X80242Y115609D01*
X80292Y115612D01*
X80304D01*
X80314Y115611D01*
D02*
G37*
G36*
X79769Y115594D02*
Y115588D01*
Y115580D01*
X79768Y115569D01*
X79766Y115557D01*
X79763Y115543D01*
X79761Y115529D01*
X79755Y115514D01*
Y115512D01*
X79754Y115511D01*
X79751Y115502D01*
X79745Y115490D01*
X79737Y115473D01*
X79726Y115454D01*
X79712Y115432D01*
X79697Y115410D01*
X79677Y115386D01*
Y115385D01*
X79675Y115383D01*
X79668Y115375D01*
X79655Y115362D01*
X79637Y115344D01*
X79616Y115324D01*
X79590Y115299D01*
X79558Y115271D01*
X79523Y115242D01*
X79522Y115240D01*
X79517Y115236D01*
X79508Y115229D01*
X79499Y115221D01*
X79486Y115210D01*
X79471Y115197D01*
X79456Y115184D01*
X79438Y115168D01*
X79403Y115135D01*
X79368Y115102D01*
X79352Y115085D01*
X79336Y115068D01*
X79322Y115053D01*
X79311Y115038D01*
Y115037D01*
X79309Y115035D01*
X79306Y115031D01*
X79303Y115025D01*
X79293Y115010D01*
X79282Y114992D01*
X79272Y114970D01*
X79263Y114946D01*
X79257Y114920D01*
X79254Y114895D01*
Y114894D01*
Y114892D01*
X79256Y114884D01*
X79257Y114870D01*
X79261Y114855D01*
X79267Y114835D01*
X79277Y114816D01*
X79289Y114797D01*
X79306Y114777D01*
X79309Y114774D01*
X79315Y114769D01*
X79325Y114762D01*
X79340Y114752D01*
X79360Y114744D01*
X79382Y114736D01*
X79408Y114730D01*
X79438Y114729D01*
X79446D01*
X79451Y114730D01*
X79468Y114731D01*
X79487Y114736D01*
X79508Y114741D01*
X79532Y114751D01*
X79554Y114763D01*
X79575Y114780D01*
X79578Y114783D01*
X79583Y114790D01*
X79591Y114801D01*
X79600Y114817D01*
X79609Y114837D01*
X79618Y114862D01*
X79623Y114890D01*
X79626Y114921D01*
X79747Y114909D01*
Y114908D01*
X79745Y114903D01*
Y114896D01*
X79744Y114887D01*
X79741Y114876D01*
X79738Y114863D01*
X79734Y114848D01*
X79730Y114833D01*
X79719Y114799D01*
X79702Y114766D01*
X79693Y114749D01*
X79680Y114733D01*
X79668Y114718D01*
X79654Y114704D01*
X79652Y114702D01*
X79650Y114701D01*
X79646Y114697D01*
X79639Y114693D01*
X79630Y114687D01*
X79621Y114681D01*
X79609Y114675D01*
X79596Y114668D01*
X79580Y114661D01*
X79564Y114654D01*
X79546Y114648D01*
X79526Y114643D01*
X79505Y114638D01*
X79483Y114634D01*
X79460Y114633D01*
X79435Y114632D01*
X79421D01*
X79411Y114633D01*
X79400Y114634D01*
X79386Y114636D01*
X79371Y114638D01*
X79356Y114641D01*
X79320Y114651D01*
X79284Y114665D01*
X79266Y114673D01*
X79247Y114683D01*
X79231Y114695D01*
X79216Y114709D01*
X79214Y114711D01*
X79211Y114712D01*
X79209Y114718D01*
X79203Y114723D01*
X79196Y114730D01*
X79189Y114740D01*
X79182Y114749D01*
X79174Y114762D01*
X79160Y114788D01*
X79146Y114822D01*
X79141Y114838D01*
X79138Y114858D01*
X79135Y114877D01*
X79134Y114898D01*
Y114901D01*
Y114908D01*
X79135Y114919D01*
X79137Y114934D01*
X79139Y114951D01*
X79145Y114970D01*
X79150Y114991D01*
X79159Y115012D01*
X79160Y115014D01*
X79163Y115021D01*
X79168Y115032D01*
X79177Y115048D01*
X79188Y115064D01*
X79202Y115085D01*
X79218Y115106D01*
X79238Y115129D01*
X79241Y115132D01*
X79247Y115141D01*
X79254Y115147D01*
X79261Y115154D01*
X79270Y115163D01*
X79281Y115174D01*
X79292Y115185D01*
X79306Y115197D01*
X79320Y115211D01*
X79336Y115227D01*
X79354Y115242D01*
X79374Y115260D01*
X79396Y115278D01*
X79418Y115297D01*
X79419Y115299D01*
X79422Y115301D01*
X79428Y115306D01*
X79435Y115311D01*
X79443Y115319D01*
X79453Y115328D01*
X79475Y115346D01*
X79499Y115367D01*
X79521Y115387D01*
X79540Y115405D01*
X79548Y115412D01*
X79555Y115419D01*
X79557Y115421D01*
X79561Y115425D01*
X79566Y115430D01*
X79573Y115439D01*
X79580Y115448D01*
X79589Y115458D01*
X79605Y115482D01*
X79132D01*
Y115595D01*
X79769D01*
Y115594D01*
D02*
G37*
G36*
X79875Y74294D02*
Y74292D01*
Y74287D01*
Y74280D01*
Y74270D01*
X79874Y74257D01*
Y74244D01*
X79873Y74227D01*
X79871Y74210D01*
X79867Y74173D01*
X79862Y74134D01*
X79853Y74097D01*
X79848Y74079D01*
X79842Y74062D01*
Y74061D01*
X79841Y74058D01*
X79838Y74054D01*
X79835Y74048D01*
X79827Y74033D01*
X79814Y74013D01*
X79798Y73991D01*
X79778Y73969D01*
X79753Y73945D01*
X79723Y73925D01*
X79721D01*
X79719Y73922D01*
X79715Y73921D01*
X79708Y73916D01*
X79699Y73912D01*
X79688Y73908D01*
X79677Y73904D01*
X79663Y73898D01*
X79648Y73893D01*
X79631Y73889D01*
X79613Y73884D01*
X79593Y73880D01*
X79572Y73878D01*
X79550Y73875D01*
X79500Y73872D01*
X79487D01*
X79477Y73873D01*
X79466D01*
X79452Y73875D01*
X79437Y73876D01*
X79422Y73878D01*
X79387Y73883D01*
X79350Y73891D01*
X79314Y73902D01*
X79279Y73918D01*
X79278D01*
X79275Y73921D01*
X79271Y73923D01*
X79265Y73926D01*
X79250Y73937D01*
X79232Y73952D01*
X79211Y73972D01*
X79192Y73994D01*
X79172Y74022D01*
X79157Y74052D01*
Y74054D01*
X79156Y74056D01*
X79154Y74062D01*
X79152Y74069D01*
X79149Y74077D01*
X79146Y74088D01*
X79142Y74101D01*
X79139Y74116D01*
X79136Y74133D01*
X79132Y74151D01*
X79129Y74170D01*
X79127Y74191D01*
X79124Y74215D01*
X79122Y74239D01*
X79121Y74266D01*
Y74294D01*
Y74848D01*
X79249D01*
Y74294D01*
Y74292D01*
Y74288D01*
Y74281D01*
Y74273D01*
X79250Y74263D01*
Y74251D01*
X79251Y74224D01*
X79254Y74194D01*
X79258Y74163D01*
X79264Y74134D01*
X79267Y74122D01*
X79271Y74109D01*
X79272Y74106D01*
X79275Y74099D01*
X79282Y74090D01*
X79290Y74076D01*
X79300Y74062D01*
X79314Y74047D01*
X79330Y74031D01*
X79350Y74019D01*
X79353Y74018D01*
X79360Y74013D01*
X79372Y74009D01*
X79389Y74004D01*
X79408Y73997D01*
X79433Y73993D01*
X79459Y73988D01*
X79489Y73987D01*
X79502D01*
X79511Y73988D01*
X79523D01*
X79536Y73990D01*
X79566Y73995D01*
X79599Y74002D01*
X79631Y74013D01*
X79662Y74029D01*
X79676Y74038D01*
X79688Y74049D01*
X79690Y74051D01*
X79691Y74052D01*
X79694Y74056D01*
X79698Y74062D01*
X79702Y74070D01*
X79708Y74079D01*
X79713Y74091D01*
X79719Y74104D01*
X79724Y74119D01*
X79728Y74137D01*
X79734Y74158D01*
X79738Y74180D01*
X79742Y74205D01*
X79745Y74231D01*
X79748Y74262D01*
Y74294D01*
Y74848D01*
X79875D01*
Y74294D01*
D02*
G37*
G36*
X80483Y73889D02*
X80365D01*
Y74639D01*
X80364Y74637D01*
X80357Y74632D01*
X80348Y74624D01*
X80334Y74614D01*
X80319Y74601D01*
X80300Y74588D01*
X80278Y74572D01*
X80253Y74557D01*
X80251D01*
X80250Y74556D01*
X80242Y74550D01*
X80228Y74543D01*
X80211Y74535D01*
X80192Y74525D01*
X80171Y74515D01*
X80150Y74506D01*
X80129Y74497D01*
Y74611D01*
X80131D01*
X80133Y74614D01*
X80139Y74615D01*
X80146Y74619D01*
X80154Y74624D01*
X80164Y74629D01*
X80187Y74643D01*
X80215Y74658D01*
X80243Y74678D01*
X80272Y74700D01*
X80301Y74723D01*
X80303Y74725D01*
X80304Y74726D01*
X80308Y74730D01*
X80314Y74735D01*
X80326Y74748D01*
X80343Y74765D01*
X80359Y74785D01*
X80377Y74807D01*
X80393Y74829D01*
X80407Y74852D01*
X80483D01*
Y73889D01*
D02*
G37*
G36*
X79948Y80795D02*
X79960Y80793D01*
X79973Y80792D01*
X79989Y80789D01*
X80004Y80786D01*
X80040Y80777D01*
X80076Y80763D01*
X80094Y80754D01*
X80112Y80745D01*
X80129Y80732D01*
X80144Y80718D01*
X80145Y80717D01*
X80148Y80716D01*
X80151Y80710D01*
X80156Y80705D01*
X80163Y80698D01*
X80170Y80688D01*
X80177Y80678D01*
X80186Y80666D01*
X80199Y80639D01*
X80213Y80606D01*
X80219Y80589D01*
X80222Y80570D01*
X80224Y80551D01*
X80226Y80530D01*
Y80527D01*
Y80520D01*
X80224Y80509D01*
X80223Y80494D01*
X80220Y80477D01*
X80215Y80458D01*
X80209Y80437D01*
X80201Y80416D01*
X80199Y80413D01*
X80197Y80406D01*
X80191Y80395D01*
X80183Y80380D01*
X80172Y80363D01*
X80158Y80343D01*
X80141Y80322D01*
X80122Y80298D01*
X80119Y80295D01*
X80112Y80287D01*
X80105Y80280D01*
X80098Y80273D01*
X80090Y80265D01*
X80079Y80254D01*
X80068Y80243D01*
X80054Y80230D01*
X80040Y80216D01*
X80023Y80201D01*
X80005Y80186D01*
X79986Y80168D01*
X79964Y80150D01*
X79942Y80130D01*
X79940Y80129D01*
X79937Y80126D01*
X79932Y80122D01*
X79925Y80117D01*
X79917Y80108D01*
X79907Y80100D01*
X79885Y80082D01*
X79861Y80061D01*
X79839Y80040D01*
X79819Y80022D01*
X79811Y80015D01*
X79804Y80008D01*
X79803Y80007D01*
X79799Y80003D01*
X79793Y79997D01*
X79786Y79989D01*
X79779Y79979D01*
X79771Y79969D01*
X79754Y79946D01*
X80227D01*
Y79832D01*
X79591D01*
Y79834D01*
Y79839D01*
Y79847D01*
X79592Y79859D01*
X79593Y79871D01*
X79596Y79885D01*
X79599Y79899D01*
X79605Y79914D01*
Y79915D01*
X79606Y79917D01*
X79609Y79925D01*
X79614Y79938D01*
X79623Y79954D01*
X79634Y79974D01*
X79648Y79996D01*
X79663Y80018D01*
X79682Y80042D01*
Y80043D01*
X79685Y80044D01*
X79692Y80053D01*
X79704Y80065D01*
X79722Y80083D01*
X79743Y80104D01*
X79770Y80129D01*
X79801Y80157D01*
X79836Y80186D01*
X79838Y80187D01*
X79843Y80191D01*
X79851Y80198D01*
X79861Y80207D01*
X79874Y80218D01*
X79889Y80230D01*
X79904Y80244D01*
X79922Y80259D01*
X79957Y80293D01*
X79991Y80326D01*
X80008Y80343D01*
X80023Y80359D01*
X80037Y80374D01*
X80048Y80390D01*
Y80391D01*
X80051Y80392D01*
X80054Y80397D01*
X80057Y80402D01*
X80066Y80417D01*
X80077Y80435D01*
X80087Y80458D01*
X80097Y80481D01*
X80102Y80508D01*
X80105Y80533D01*
Y80534D01*
Y80535D01*
X80104Y80544D01*
X80102Y80558D01*
X80098Y80573D01*
X80093Y80592D01*
X80083Y80612D01*
X80070Y80631D01*
X80054Y80650D01*
X80051Y80653D01*
X80044Y80659D01*
X80034Y80666D01*
X80019Y80675D01*
X80000Y80684D01*
X79978Y80692D01*
X79951Y80698D01*
X79922Y80699D01*
X79914D01*
X79908Y80698D01*
X79892Y80696D01*
X79872Y80692D01*
X79851Y80686D01*
X79828Y80677D01*
X79806Y80664D01*
X79785Y80648D01*
X79782Y80645D01*
X79776Y80638D01*
X79768Y80627D01*
X79760Y80610D01*
X79750Y80591D01*
X79742Y80566D01*
X79736Y80538D01*
X79733Y80506D01*
X79613Y80519D01*
Y80520D01*
X79614Y80524D01*
Y80531D01*
X79616Y80541D01*
X79618Y80552D01*
X79621Y80564D01*
X79625Y80580D01*
X79629Y80595D01*
X79641Y80628D01*
X79657Y80662D01*
X79667Y80678D01*
X79679Y80695D01*
X79692Y80710D01*
X79706Y80724D01*
X79707Y80725D01*
X79710Y80727D01*
X79714Y80731D01*
X79721Y80735D01*
X79729Y80741D01*
X79739Y80746D01*
X79750Y80753D01*
X79764Y80760D01*
X79779Y80767D01*
X79796Y80774D01*
X79814Y80779D01*
X79833Y80785D01*
X79854Y80789D01*
X79876Y80793D01*
X79900Y80795D01*
X79925Y80796D01*
X79939D01*
X79948Y80795D01*
D02*
G37*
G36*
X79145Y80791D02*
X79158D01*
X79187Y80789D01*
X79218Y80785D01*
X79251Y80781D01*
X79281Y80774D01*
X79297Y80770D01*
X79309Y80766D01*
X79311D01*
X79312Y80764D01*
X79320Y80760D01*
X79333Y80754D01*
X79348Y80745D01*
X79365Y80732D01*
X79383Y80716D01*
X79399Y80696D01*
X79416Y80674D01*
Y80673D01*
X79417Y80671D01*
X79423Y80663D01*
X79428Y80649D01*
X79437Y80631D01*
X79444Y80610D01*
X79451Y80585D01*
X79455Y80559D01*
X79456Y80530D01*
Y80528D01*
Y80526D01*
Y80520D01*
X79455Y80513D01*
Y80503D01*
X79453Y80494D01*
X79448Y80470D01*
X79439Y80442D01*
X79428Y80413D01*
X79412Y80384D01*
X79401Y80370D01*
X79390Y80356D01*
X79388Y80355D01*
X79387Y80354D01*
X79383Y80349D01*
X79377Y80345D01*
X79370Y80340D01*
X79362Y80334D01*
X79351Y80327D01*
X79340Y80319D01*
X79326Y80312D01*
X79311Y80305D01*
X79294Y80297D01*
X79276Y80290D01*
X79255Y80284D01*
X79234Y80277D01*
X79211Y80273D01*
X79186Y80269D01*
X79188Y80268D01*
X79194Y80265D01*
X79202Y80259D01*
X79213Y80254D01*
X79238Y80239D01*
X79251Y80229D01*
X79262Y80221D01*
X79265Y80218D01*
X79272Y80211D01*
X79283Y80200D01*
X79297Y80186D01*
X79312Y80166D01*
X79330Y80146D01*
X79348Y80121D01*
X79367Y80093D01*
X79532Y79832D01*
X79374D01*
X79248Y80032D01*
Y80033D01*
X79245Y80036D01*
X79243Y80040D01*
X79238Y80046D01*
X79229Y80061D01*
X79216Y80080D01*
X79201Y80101D01*
X79186Y80123D01*
X79170Y80144D01*
X79157Y80164D01*
X79155Y80165D01*
X79151Y80171D01*
X79144Y80179D01*
X79134Y80189D01*
X79114Y80209D01*
X79102Y80219D01*
X79091Y80227D01*
X79090Y80229D01*
X79087Y80230D01*
X79082Y80233D01*
X79073Y80237D01*
X79065Y80241D01*
X79055Y80245D01*
X79033Y80252D01*
X79032D01*
X79029Y80254D01*
X79023D01*
X79016Y80255D01*
X79007Y80257D01*
X78996D01*
X78980Y80258D01*
X78817D01*
Y79832D01*
X78689D01*
Y80792D01*
X79134D01*
X79145Y80791D01*
D02*
G37*
G36*
X80051Y83845D02*
X79933D01*
Y84596D01*
X79932Y84594D01*
X79925Y84589D01*
X79917Y84580D01*
X79903Y84571D01*
X79887Y84558D01*
X79868Y84544D01*
X79846Y84529D01*
X79821Y84514D01*
X79819D01*
X79818Y84512D01*
X79810Y84507D01*
X79796Y84500D01*
X79779Y84492D01*
X79760Y84482D01*
X79739Y84472D01*
X79718Y84463D01*
X79697Y84454D01*
Y84568D01*
X79699D01*
X79702Y84571D01*
X79707Y84572D01*
X79714Y84576D01*
X79722Y84580D01*
X79732Y84586D01*
X79756Y84600D01*
X79783Y84615D01*
X79811Y84635D01*
X79840Y84657D01*
X79869Y84680D01*
X79871Y84682D01*
X79872Y84683D01*
X79876Y84687D01*
X79882Y84691D01*
X79894Y84705D01*
X79911Y84722D01*
X79928Y84741D01*
X79946Y84763D01*
X79961Y84786D01*
X79975Y84809D01*
X80051D01*
Y83845D01*
D02*
G37*
G36*
X79145Y84804D02*
X79158D01*
X79187Y84802D01*
X79218Y84798D01*
X79251Y84794D01*
X79281Y84787D01*
X79297Y84783D01*
X79309Y84779D01*
X79311D01*
X79312Y84777D01*
X79320Y84773D01*
X79333Y84768D01*
X79348Y84758D01*
X79365Y84745D01*
X79383Y84729D01*
X79399Y84709D01*
X79416Y84687D01*
Y84686D01*
X79417Y84684D01*
X79423Y84676D01*
X79428Y84662D01*
X79437Y84644D01*
X79444Y84623D01*
X79451Y84598D01*
X79455Y84572D01*
X79456Y84543D01*
Y84542D01*
Y84539D01*
Y84533D01*
X79455Y84526D01*
Y84517D01*
X79453Y84507D01*
X79448Y84483D01*
X79439Y84456D01*
X79428Y84426D01*
X79412Y84397D01*
X79401Y84383D01*
X79390Y84370D01*
X79388Y84368D01*
X79387Y84367D01*
X79383Y84363D01*
X79377Y84359D01*
X79370Y84353D01*
X79362Y84347D01*
X79351Y84340D01*
X79340Y84332D01*
X79326Y84325D01*
X79311Y84318D01*
X79294Y84310D01*
X79276Y84303D01*
X79255Y84298D01*
X79234Y84291D01*
X79211Y84286D01*
X79186Y84282D01*
X79188Y84281D01*
X79194Y84278D01*
X79202Y84273D01*
X79213Y84267D01*
X79238Y84252D01*
X79251Y84242D01*
X79262Y84234D01*
X79265Y84231D01*
X79272Y84224D01*
X79283Y84213D01*
X79297Y84199D01*
X79312Y84180D01*
X79330Y84159D01*
X79348Y84134D01*
X79367Y84106D01*
X79532Y83845D01*
X79374D01*
X79248Y84045D01*
Y84046D01*
X79245Y84049D01*
X79243Y84053D01*
X79238Y84059D01*
X79229Y84074D01*
X79216Y84094D01*
X79201Y84114D01*
X79186Y84137D01*
X79170Y84157D01*
X79157Y84177D01*
X79155Y84178D01*
X79151Y84184D01*
X79144Y84192D01*
X79134Y84202D01*
X79114Y84223D01*
X79102Y84232D01*
X79091Y84241D01*
X79090Y84242D01*
X79087Y84243D01*
X79082Y84246D01*
X79073Y84250D01*
X79065Y84255D01*
X79055Y84259D01*
X79033Y84266D01*
X79032D01*
X79029Y84267D01*
X79023D01*
X79016Y84268D01*
X79007Y84270D01*
X78996D01*
X78980Y84271D01*
X78817D01*
Y83845D01*
X78689D01*
Y84805D01*
X79134D01*
X79145Y84804D01*
D02*
G37*
G36*
X68005Y78559D02*
X68017Y78558D01*
X68030Y78557D01*
X68046Y78554D01*
X68061Y78551D01*
X68097Y78541D01*
X68133Y78528D01*
X68151Y78519D01*
X68169Y78510D01*
X68186Y78497D01*
X68201Y78483D01*
X68202Y78482D01*
X68205Y78480D01*
X68208Y78475D01*
X68214Y78469D01*
X68220Y78462D01*
X68227Y78453D01*
X68234Y78443D01*
X68243Y78430D01*
X68257Y78404D01*
X68270Y78371D01*
X68276Y78354D01*
X68279Y78335D01*
X68281Y78315D01*
X68283Y78295D01*
Y78292D01*
Y78285D01*
X68281Y78274D01*
X68280Y78259D01*
X68277Y78242D01*
X68272Y78222D01*
X68266Y78202D01*
X68258Y78181D01*
X68257Y78178D01*
X68254Y78171D01*
X68248Y78160D01*
X68240Y78145D01*
X68229Y78128D01*
X68215Y78107D01*
X68198Y78087D01*
X68179Y78063D01*
X68176Y78060D01*
X68169Y78052D01*
X68162Y78045D01*
X68155Y78038D01*
X68147Y78030D01*
X68136Y78019D01*
X68125Y78007D01*
X68111Y77995D01*
X68097Y77981D01*
X68080Y77966D01*
X68062Y77951D01*
X68043Y77933D01*
X68021Y77915D01*
X67999Y77895D01*
X67997Y77894D01*
X67994Y77891D01*
X67989Y77887D01*
X67982Y77881D01*
X67974Y77873D01*
X67964Y77865D01*
X67942Y77847D01*
X67918Y77826D01*
X67896Y77805D01*
X67877Y77787D01*
X67868Y77780D01*
X67861Y77773D01*
X67860Y77772D01*
X67856Y77768D01*
X67850Y77762D01*
X67843Y77754D01*
X67836Y77744D01*
X67828Y77734D01*
X67811Y77711D01*
X68284D01*
Y77597D01*
X67648D01*
Y77598D01*
Y77604D01*
Y77612D01*
X67649Y77623D01*
X67650Y77636D01*
X67653Y77650D01*
X67656Y77664D01*
X67662Y77679D01*
Y77680D01*
X67663Y77682D01*
X67666Y77690D01*
X67671Y77702D01*
X67680Y77719D01*
X67691Y77738D01*
X67705Y77761D01*
X67720Y77783D01*
X67739Y77806D01*
Y77808D01*
X67742Y77809D01*
X67749Y77818D01*
X67761Y77830D01*
X67779Y77848D01*
X67800Y77869D01*
X67827Y77894D01*
X67858Y77922D01*
X67893Y77951D01*
X67895Y77952D01*
X67900Y77956D01*
X67908Y77963D01*
X67918Y77971D01*
X67931Y77983D01*
X67946Y77995D01*
X67961Y78009D01*
X67979Y78024D01*
X68014Y78057D01*
X68048Y78091D01*
X68065Y78107D01*
X68080Y78124D01*
X68094Y78139D01*
X68105Y78155D01*
Y78156D01*
X68108Y78157D01*
X68111Y78161D01*
X68114Y78167D01*
X68123Y78182D01*
X68134Y78200D01*
X68144Y78222D01*
X68154Y78246D01*
X68159Y78272D01*
X68162Y78297D01*
Y78299D01*
Y78300D01*
X68161Y78308D01*
X68159Y78322D01*
X68155Y78338D01*
X68150Y78357D01*
X68140Y78376D01*
X68128Y78396D01*
X68111Y78415D01*
X68108Y78418D01*
X68101Y78424D01*
X68091Y78430D01*
X68076Y78440D01*
X68057Y78449D01*
X68035Y78457D01*
X68008Y78462D01*
X67979Y78464D01*
X67971D01*
X67965Y78462D01*
X67949Y78461D01*
X67929Y78457D01*
X67908Y78451D01*
X67885Y78442D01*
X67863Y78429D01*
X67842Y78412D01*
X67839Y78410D01*
X67834Y78403D01*
X67825Y78392D01*
X67817Y78375D01*
X67807Y78356D01*
X67799Y78331D01*
X67793Y78303D01*
X67791Y78271D01*
X67670Y78283D01*
Y78285D01*
X67671Y78289D01*
Y78296D01*
X67673Y78306D01*
X67675Y78317D01*
X67678Y78329D01*
X67682Y78345D01*
X67687Y78360D01*
X67698Y78393D01*
X67714Y78426D01*
X67724Y78443D01*
X67736Y78460D01*
X67749Y78475D01*
X67763Y78489D01*
X67764Y78490D01*
X67767Y78492D01*
X67771Y78496D01*
X67778Y78500D01*
X67786Y78505D01*
X67796Y78511D01*
X67807Y78518D01*
X67821Y78525D01*
X67836Y78532D01*
X67853Y78539D01*
X67871Y78544D01*
X67890Y78550D01*
X67911Y78554D01*
X67933Y78558D01*
X67957Y78559D01*
X67982Y78561D01*
X67996D01*
X68005Y78559D01*
D02*
G37*
G36*
X67105Y78572D02*
X67118D01*
X67130Y78571D01*
X67147Y78568D01*
X67164Y78565D01*
X67200Y78558D01*
X67241Y78547D01*
X67282Y78530D01*
X67302Y78521D01*
X67323Y78510D01*
X67325Y78508D01*
X67327Y78507D01*
X67333Y78503D01*
X67341Y78498D01*
X67350Y78492D01*
X67361Y78483D01*
X67384Y78464D01*
X67409Y78439D01*
X67437Y78408D01*
X67463Y78372D01*
X67485Y78332D01*
Y78331D01*
X67488Y78326D01*
X67491Y78321D01*
X67494Y78313D01*
X67499Y78302D01*
X67503Y78289D01*
X67509Y78274D01*
X67515Y78257D01*
X67519Y78239D01*
X67524Y78220D01*
X67530Y78199D01*
X67534Y78177D01*
X67540Y78128D01*
X67542Y78077D01*
Y78075D01*
Y78071D01*
Y78066D01*
Y78057D01*
X67541Y78046D01*
Y78034D01*
X67540Y78020D01*
X67538Y78006D01*
X67534Y77973D01*
X67527Y77937D01*
X67519Y77899D01*
X67506Y77863D01*
Y77862D01*
X67505Y77859D01*
X67502Y77854D01*
X67499Y77848D01*
X67495Y77840D01*
X67491Y77830D01*
X67480Y77808D01*
X67465Y77781D01*
X67445Y77754D01*
X67423Y77726D01*
X67398Y77698D01*
X67399D01*
X67402Y77695D01*
X67406Y77693D01*
X67413Y77689D01*
X67420Y77683D01*
X67430Y77677D01*
X67451Y77665D01*
X67476Y77650D01*
X67503Y77634D01*
X67533Y77622D01*
X67560Y77609D01*
X67523Y77522D01*
X67521D01*
X67519Y77523D01*
X67513Y77526D01*
X67505Y77529D01*
X67495Y77533D01*
X67484Y77539D01*
X67472Y77544D01*
X67458Y77551D01*
X67427Y77568D01*
X67393Y77587D01*
X67355Y77612D01*
X67316Y77640D01*
X67315D01*
X67312Y77637D01*
X67305Y77634D01*
X67298Y77630D01*
X67287Y77626D01*
X67276Y77621D01*
X67262Y77616D01*
X67247Y77611D01*
X67230Y77605D01*
X67212Y77600D01*
X67172Y77590D01*
X67128Y77583D01*
X67104Y77582D01*
X67080Y77580D01*
X67068D01*
X67058Y77582D01*
X67047D01*
X67033Y77583D01*
X67018Y77586D01*
X67001Y77589D01*
X66965Y77596D01*
X66925Y77607D01*
X66884Y77622D01*
X66864Y77632D01*
X66843Y77643D01*
X66842Y77644D01*
X66839Y77646D01*
X66834Y77650D01*
X66827Y77654D01*
X66817Y77661D01*
X66807Y77669D01*
X66784Y77689D01*
X66757Y77713D01*
X66731Y77744D01*
X66705Y77779D01*
X66681Y77819D01*
Y77820D01*
X66678Y77824D01*
X66676Y77830D01*
X66673Y77838D01*
X66669Y77849D01*
X66663Y77862D01*
X66657Y77877D01*
X66653Y77894D01*
X66648Y77912D01*
X66642Y77931D01*
X66638Y77952D01*
X66633Y77976D01*
X66627Y78024D01*
X66624Y78075D01*
Y78077D01*
Y78082D01*
Y78089D01*
X66626Y78099D01*
Y78112D01*
X66627Y78127D01*
X66628Y78143D01*
X66631Y78161D01*
X66638Y78202D01*
X66648Y78245D01*
X66662Y78290D01*
X66681Y78335D01*
X66682Y78336D01*
X66684Y78340D01*
X66687Y78346D01*
X66692Y78354D01*
X66698Y78364D01*
X66705Y78375D01*
X66724Y78401D01*
X66746Y78429D01*
X66775Y78458D01*
X66807Y78487D01*
X66845Y78512D01*
X66846Y78514D01*
X66850Y78515D01*
X66856Y78518D01*
X66864Y78522D01*
X66874Y78526D01*
X66885Y78532D01*
X66899Y78537D01*
X66914Y78543D01*
X66932Y78548D01*
X66950Y78554D01*
X66990Y78564D01*
X67035Y78571D01*
X67058Y78573D01*
X67096D01*
X67105Y78572D01*
D02*
G37*
G36*
X113041Y102387D02*
X112923D01*
Y103138D01*
X112921Y103136D01*
X112915Y103131D01*
X112906Y103122D01*
X112892Y103113D01*
X112877Y103100D01*
X112858Y103086D01*
X112835Y103071D01*
X112811Y103056D01*
X112809D01*
X112808Y103054D01*
X112799Y103049D01*
X112786Y103042D01*
X112769Y103034D01*
X112749Y103024D01*
X112729Y103014D01*
X112708Y103005D01*
X112687Y102996D01*
Y103110D01*
X112688D01*
X112691Y103113D01*
X112697Y103114D01*
X112704Y103118D01*
X112712Y103122D01*
X112722Y103128D01*
X112745Y103142D01*
X112773Y103157D01*
X112801Y103177D01*
X112830Y103199D01*
X112859Y103222D01*
X112860Y103224D01*
X112862Y103225D01*
X112866Y103229D01*
X112872Y103233D01*
X112884Y103247D01*
X112901Y103264D01*
X112917Y103283D01*
X112935Y103305D01*
X112951Y103328D01*
X112964Y103351D01*
X113041D01*
Y102387D01*
D02*
G37*
G36*
X112038Y103362D02*
X112051D01*
X112063Y103361D01*
X112080Y103358D01*
X112096Y103355D01*
X112132Y103348D01*
X112174Y103337D01*
X112214Y103321D01*
X112235Y103311D01*
X112256Y103300D01*
X112257Y103299D01*
X112260Y103297D01*
X112265Y103293D01*
X112274Y103289D01*
X112282Y103282D01*
X112293Y103274D01*
X112317Y103254D01*
X112342Y103229D01*
X112369Y103199D01*
X112396Y103163D01*
X112418Y103122D01*
Y103121D01*
X112421Y103117D01*
X112424Y103111D01*
X112426Y103103D01*
X112432Y103092D01*
X112436Y103079D01*
X112442Y103064D01*
X112447Y103048D01*
X112451Y103030D01*
X112457Y103010D01*
X112462Y102989D01*
X112467Y102967D01*
X112472Y102919D01*
X112475Y102867D01*
Y102866D01*
Y102862D01*
Y102856D01*
Y102848D01*
X112474Y102837D01*
Y102824D01*
X112472Y102810D01*
X112471Y102797D01*
X112467Y102763D01*
X112460Y102727D01*
X112451Y102690D01*
X112439Y102654D01*
Y102652D01*
X112437Y102650D01*
X112435Y102644D01*
X112432Y102638D01*
X112428Y102630D01*
X112424Y102620D01*
X112412Y102598D01*
X112397Y102572D01*
X112378Y102544D01*
X112356Y102516D01*
X112331Y102489D01*
X112332D01*
X112335Y102486D01*
X112339Y102483D01*
X112346Y102479D01*
X112353Y102473D01*
X112363Y102468D01*
X112383Y102455D01*
X112408Y102440D01*
X112436Y102425D01*
X112465Y102412D01*
X112493Y102400D01*
X112455Y102313D01*
X112454D01*
X112451Y102314D01*
X112446Y102317D01*
X112437Y102319D01*
X112428Y102324D01*
X112417Y102329D01*
X112404Y102335D01*
X112390Y102342D01*
X112360Y102358D01*
X112325Y102378D01*
X112288Y102403D01*
X112249Y102430D01*
X112247D01*
X112245Y102428D01*
X112238Y102425D01*
X112231Y102421D01*
X112220Y102417D01*
X112209Y102411D01*
X112195Y102407D01*
X112179Y102401D01*
X112163Y102396D01*
X112145Y102390D01*
X112105Y102380D01*
X112060Y102374D01*
X112037Y102372D01*
X112013Y102371D01*
X112001D01*
X111991Y102372D01*
X111980D01*
X111966Y102374D01*
X111951Y102376D01*
X111934Y102379D01*
X111898Y102386D01*
X111858Y102397D01*
X111816Y102412D01*
X111797Y102422D01*
X111776Y102433D01*
X111775Y102435D01*
X111772Y102436D01*
X111766Y102440D01*
X111759Y102444D01*
X111750Y102451D01*
X111740Y102460D01*
X111716Y102479D01*
X111690Y102504D01*
X111664Y102534D01*
X111637Y102569D01*
X111614Y102609D01*
Y102611D01*
X111611Y102615D01*
X111608Y102620D01*
X111605Y102629D01*
X111601Y102640D01*
X111596Y102652D01*
X111590Y102668D01*
X111586Y102684D01*
X111580Y102702D01*
X111575Y102722D01*
X111571Y102742D01*
X111565Y102766D01*
X111560Y102815D01*
X111557Y102866D01*
Y102867D01*
Y102873D01*
Y102880D01*
X111558Y102889D01*
Y102902D01*
X111560Y102917D01*
X111561Y102934D01*
X111564Y102952D01*
X111571Y102992D01*
X111580Y103035D01*
X111594Y103081D01*
X111614Y103125D01*
X111615Y103127D01*
X111616Y103131D01*
X111619Y103136D01*
X111625Y103145D01*
X111630Y103154D01*
X111637Y103165D01*
X111657Y103192D01*
X111679Y103219D01*
X111708Y103249D01*
X111740Y103278D01*
X111777Y103303D01*
X111779Y103304D01*
X111783Y103305D01*
X111788Y103308D01*
X111797Y103312D01*
X111806Y103317D01*
X111818Y103322D01*
X111831Y103328D01*
X111847Y103333D01*
X111865Y103339D01*
X111883Y103344D01*
X111923Y103354D01*
X111967Y103361D01*
X111991Y103364D01*
X112028D01*
X112038Y103362D01*
D02*
G37*
G36*
X65740Y91082D02*
X65758Y91079D01*
X65780Y91075D01*
X65805Y91068D01*
X65830Y91059D01*
X65855Y91048D01*
X65856D01*
X65858Y91047D01*
X65866Y91043D01*
X65879Y91035D01*
X65892Y91025D01*
X65909Y91011D01*
X65926Y90996D01*
X65942Y90978D01*
X65956Y90957D01*
X65958Y90954D01*
X65962Y90947D01*
X65967Y90935D01*
X65974Y90919D01*
X65981Y90901D01*
X65987Y90881D01*
X65991Y90857D01*
X65992Y90833D01*
Y90831D01*
Y90822D01*
X65991Y90811D01*
X65988Y90796D01*
X65984Y90778D01*
X65977Y90759D01*
X65969Y90739D01*
X65958Y90720D01*
X65956Y90717D01*
X65952Y90711D01*
X65944Y90702D01*
X65933Y90691D01*
X65919Y90678D01*
X65902Y90664D01*
X65883Y90652D01*
X65859Y90639D01*
X65861D01*
X65863Y90638D01*
X65868Y90636D01*
X65873Y90635D01*
X65888Y90630D01*
X65908Y90621D01*
X65930Y90610D01*
X65952Y90596D01*
X65973Y90578D01*
X65992Y90557D01*
X65994Y90555D01*
X65999Y90546D01*
X66008Y90532D01*
X66016Y90514D01*
X66024Y90492D01*
X66033Y90466D01*
X66038Y90435D01*
X66039Y90402D01*
Y90401D01*
Y90397D01*
Y90390D01*
X66038Y90381D01*
X66037Y90370D01*
X66034Y90358D01*
X66031Y90344D01*
X66028Y90329D01*
X66017Y90295D01*
X66009Y90277D01*
X66001Y90261D01*
X65990Y90243D01*
X65977Y90225D01*
X65963Y90207D01*
X65947Y90190D01*
X65945Y90189D01*
X65942Y90186D01*
X65937Y90182D01*
X65930Y90176D01*
X65922Y90169D01*
X65910Y90162D01*
X65898Y90154D01*
X65883Y90147D01*
X65868Y90139D01*
X65849Y90130D01*
X65831Y90123D01*
X65811Y90116D01*
X65788Y90111D01*
X65765Y90107D01*
X65741Y90104D01*
X65715Y90103D01*
X65702D01*
X65694Y90104D01*
X65683Y90105D01*
X65671Y90107D01*
X65657Y90109D01*
X65641Y90112D01*
X65608Y90121D01*
X65573Y90134D01*
X65555Y90143D01*
X65539Y90152D01*
X65522Y90165D01*
X65506Y90177D01*
X65504Y90179D01*
X65501Y90182D01*
X65497Y90186D01*
X65493Y90191D01*
X65486Y90198D01*
X65479Y90208D01*
X65471Y90218D01*
X65463Y90230D01*
X65454Y90244D01*
X65446Y90258D01*
X65431Y90291D01*
X65418Y90330D01*
X65414Y90351D01*
X65411Y90373D01*
X65529Y90388D01*
Y90387D01*
X65531Y90384D01*
X65532Y90379D01*
X65533Y90372D01*
X65535Y90363D01*
X65537Y90354D01*
X65544Y90333D01*
X65554Y90308D01*
X65567Y90284D01*
X65580Y90262D01*
X65597Y90243D01*
X65600Y90241D01*
X65605Y90236D01*
X65616Y90229D01*
X65630Y90222D01*
X65647Y90214D01*
X65668Y90207D01*
X65691Y90201D01*
X65716Y90200D01*
X65725D01*
X65730Y90201D01*
X65745Y90202D01*
X65765Y90207D01*
X65787Y90214D01*
X65811Y90223D01*
X65834Y90237D01*
X65856Y90257D01*
X65859Y90259D01*
X65866Y90268D01*
X65874Y90280D01*
X65886Y90297D01*
X65897Y90318D01*
X65905Y90341D01*
X65912Y90369D01*
X65915Y90399D01*
Y90401D01*
Y90404D01*
Y90408D01*
X65913Y90413D01*
X65912Y90428D01*
X65908Y90446D01*
X65902Y90469D01*
X65892Y90491D01*
X65879Y90513D01*
X65861Y90534D01*
X65858Y90537D01*
X65851Y90542D01*
X65840Y90551D01*
X65825Y90560D01*
X65805Y90570D01*
X65782Y90578D01*
X65755Y90584D01*
X65726Y90587D01*
X65714D01*
X65704Y90585D01*
X65691Y90584D01*
X65678Y90581D01*
X65661Y90578D01*
X65643Y90574D01*
X65657Y90678D01*
X65664D01*
X65669Y90677D01*
X65687D01*
X65702Y90679D01*
X65720Y90682D01*
X65741Y90686D01*
X65765Y90693D01*
X65787Y90703D01*
X65811Y90716D01*
X65812D01*
X65813Y90717D01*
X65820Y90722D01*
X65830Y90732D01*
X65841Y90745D01*
X65852Y90763D01*
X65862Y90784D01*
X65869Y90807D01*
X65872Y90821D01*
Y90836D01*
Y90838D01*
Y90839D01*
Y90847D01*
X65869Y90858D01*
X65866Y90874D01*
X65861Y90890D01*
X65854Y90908D01*
X65843Y90926D01*
X65827Y90943D01*
X65826Y90944D01*
X65819Y90950D01*
X65809Y90957D01*
X65797Y90965D01*
X65780Y90972D01*
X65761Y90979D01*
X65739Y90985D01*
X65714Y90986D01*
X65702D01*
X65690Y90983D01*
X65673Y90980D01*
X65655Y90975D01*
X65637Y90968D01*
X65618Y90957D01*
X65600Y90943D01*
X65598Y90942D01*
X65593Y90935D01*
X65585Y90925D01*
X65575Y90911D01*
X65565Y90893D01*
X65555Y90871D01*
X65547Y90845D01*
X65542Y90814D01*
X65424Y90835D01*
Y90836D01*
X65425Y90840D01*
X65426Y90846D01*
X65428Y90854D01*
X65431Y90864D01*
X65435Y90875D01*
X65443Y90901D01*
X65457Y90932D01*
X65474Y90962D01*
X65494Y90992D01*
X65521Y91018D01*
X65522Y91019D01*
X65525Y91021D01*
X65529Y91023D01*
X65535Y91028D01*
X65542Y91033D01*
X65551Y91039D01*
X65561Y91044D01*
X65573Y91051D01*
X65601Y91062D01*
X65633Y91073D01*
X65671Y91080D01*
X65690Y91083D01*
X65725D01*
X65740Y91082D01*
D02*
G37*
G36*
X65250Y90424D02*
Y90423D01*
Y90419D01*
Y90413D01*
Y90405D01*
X65249Y90394D01*
Y90383D01*
X65246Y90356D01*
X65243Y90326D01*
X65238Y90294D01*
X65230Y90265D01*
X65220Y90237D01*
Y90236D01*
X65218Y90234D01*
X65214Y90226D01*
X65207Y90215D01*
X65198Y90200D01*
X65184Y90184D01*
X65169Y90168D01*
X65149Y90151D01*
X65127Y90137D01*
X65124Y90136D01*
X65116Y90132D01*
X65103Y90126D01*
X65085Y90121D01*
X65063Y90114D01*
X65038Y90108D01*
X65010Y90104D01*
X64980Y90103D01*
X64967D01*
X64959Y90104D01*
X64948Y90105D01*
X64937Y90107D01*
X64908Y90112D01*
X64877Y90121D01*
X64845Y90133D01*
X64829Y90141D01*
X64814Y90151D01*
X64800Y90162D01*
X64786Y90175D01*
X64784Y90176D01*
X64783Y90177D01*
X64780Y90183D01*
X64776Y90189D01*
X64771Y90195D01*
X64765Y90205D01*
X64759Y90216D01*
X64752Y90229D01*
X64747Y90243D01*
X64741Y90259D01*
X64736Y90276D01*
X64730Y90295D01*
X64728Y90316D01*
X64723Y90340D01*
X64722Y90363D01*
Y90390D01*
X64837Y90406D01*
Y90405D01*
Y90402D01*
Y90397D01*
X64838Y90388D01*
X64840Y90380D01*
Y90370D01*
X64844Y90347D01*
X64848Y90322D01*
X64856Y90297D01*
X64865Y90275D01*
X64870Y90265D01*
X64877Y90257D01*
X64879Y90255D01*
X64884Y90251D01*
X64893Y90244D01*
X64904Y90237D01*
X64919Y90229D01*
X64936Y90223D01*
X64956Y90218D01*
X64979Y90216D01*
X64987D01*
X64995Y90218D01*
X65008Y90219D01*
X65020Y90222D01*
X65034Y90225D01*
X65048Y90230D01*
X65062Y90237D01*
X65063Y90238D01*
X65067Y90241D01*
X65073Y90247D01*
X65081Y90252D01*
X65088Y90262D01*
X65096Y90272D01*
X65103Y90283D01*
X65109Y90297D01*
Y90298D01*
X65112Y90304D01*
X65113Y90313D01*
X65116Y90326D01*
X65119Y90342D01*
X65120Y90363D01*
X65123Y90388D01*
Y90417D01*
Y91079D01*
X65250D01*
Y90424D01*
D02*
G37*
G36*
X65631Y106350D02*
Y106349D01*
Y106345D01*
Y106339D01*
Y106331D01*
X65630Y106320D01*
Y106309D01*
X65627Y106282D01*
X65624Y106252D01*
X65619Y106220D01*
X65611Y106191D01*
X65601Y106163D01*
Y106161D01*
X65599Y106160D01*
X65595Y106152D01*
X65588Y106141D01*
X65579Y106125D01*
X65565Y106110D01*
X65550Y106094D01*
X65530Y106077D01*
X65508Y106063D01*
X65505Y106062D01*
X65497Y106057D01*
X65484Y106052D01*
X65466Y106046D01*
X65444Y106039D01*
X65419Y106034D01*
X65391Y106030D01*
X65361Y106028D01*
X65348D01*
X65340Y106030D01*
X65329Y106031D01*
X65318Y106033D01*
X65289Y106038D01*
X65258Y106046D01*
X65226Y106059D01*
X65210Y106067D01*
X65195Y106077D01*
X65181Y106088D01*
X65167Y106100D01*
X65165Y106102D01*
X65164Y106103D01*
X65161Y106109D01*
X65157Y106114D01*
X65152Y106121D01*
X65146Y106131D01*
X65140Y106142D01*
X65133Y106155D01*
X65128Y106168D01*
X65122Y106185D01*
X65117Y106202D01*
X65111Y106221D01*
X65109Y106242D01*
X65104Y106266D01*
X65103Y106289D01*
Y106315D01*
X65218Y106332D01*
Y106331D01*
Y106328D01*
Y106322D01*
X65219Y106314D01*
X65221Y106306D01*
Y106296D01*
X65225Y106272D01*
X65229Y106247D01*
X65238Y106223D01*
X65246Y106200D01*
X65251Y106191D01*
X65258Y106182D01*
X65260Y106181D01*
X65265Y106177D01*
X65274Y106170D01*
X65285Y106163D01*
X65300Y106155D01*
X65317Y106149D01*
X65337Y106143D01*
X65360Y106142D01*
X65368D01*
X65376Y106143D01*
X65389Y106145D01*
X65401Y106148D01*
X65415Y106150D01*
X65429Y106156D01*
X65443Y106163D01*
X65444Y106164D01*
X65448Y106167D01*
X65454Y106173D01*
X65462Y106178D01*
X65469Y106188D01*
X65477Y106198D01*
X65484Y106209D01*
X65490Y106223D01*
Y106224D01*
X65493Y106229D01*
X65494Y106239D01*
X65497Y106252D01*
X65500Y106268D01*
X65501Y106289D01*
X65504Y106314D01*
Y106343D01*
Y107005D01*
X65631D01*
Y106350D01*
D02*
G37*
G36*
X66132Y107007D02*
X66143Y107006D01*
X66157Y107005D01*
X66172Y107002D01*
X66187Y106999D01*
X66224Y106989D01*
X66260Y106976D01*
X66278Y106967D01*
X66296Y106958D01*
X66312Y106945D01*
X66328Y106931D01*
X66329Y106930D01*
X66332Y106928D01*
X66334Y106923D01*
X66340Y106917D01*
X66347Y106910D01*
X66354Y106901D01*
X66361Y106891D01*
X66369Y106878D01*
X66383Y106852D01*
X66397Y106819D01*
X66402Y106802D01*
X66405Y106783D01*
X66408Y106763D01*
X66409Y106743D01*
Y106740D01*
Y106733D01*
X66408Y106722D01*
X66407Y106707D01*
X66404Y106690D01*
X66398Y106670D01*
X66393Y106650D01*
X66384Y106629D01*
X66383Y106626D01*
X66380Y106619D01*
X66375Y106608D01*
X66366Y106593D01*
X66355Y106576D01*
X66341Y106555D01*
X66325Y106535D01*
X66305Y106511D01*
X66303Y106508D01*
X66296Y106500D01*
X66289Y106493D01*
X66282Y106486D01*
X66273Y106478D01*
X66262Y106467D01*
X66251Y106455D01*
X66237Y106443D01*
X66224Y106429D01*
X66207Y106414D01*
X66189Y106399D01*
X66169Y106381D01*
X66147Y106363D01*
X66125Y106343D01*
X66124Y106342D01*
X66121Y106339D01*
X66115Y106335D01*
X66108Y106329D01*
X66100Y106321D01*
X66090Y106313D01*
X66068Y106295D01*
X66045Y106274D01*
X66022Y106253D01*
X66003Y106235D01*
X65995Y106228D01*
X65988Y106221D01*
X65986Y106220D01*
X65982Y106216D01*
X65977Y106210D01*
X65970Y106202D01*
X65963Y106192D01*
X65954Y106182D01*
X65938Y106159D01*
X66411D01*
Y106045D01*
X65774D01*
Y106046D01*
Y106052D01*
Y106060D01*
X65776Y106071D01*
X65777Y106084D01*
X65780Y106098D01*
X65783Y106112D01*
X65788Y106127D01*
Y106128D01*
X65789Y106130D01*
X65792Y106138D01*
X65798Y106150D01*
X65806Y106167D01*
X65817Y106186D01*
X65831Y106209D01*
X65846Y106231D01*
X65866Y106254D01*
Y106256D01*
X65869Y106257D01*
X65875Y106266D01*
X65888Y106278D01*
X65906Y106296D01*
X65927Y106317D01*
X65953Y106342D01*
X65985Y106370D01*
X66020Y106399D01*
X66021Y106400D01*
X66027Y106404D01*
X66035Y106411D01*
X66045Y106419D01*
X66057Y106431D01*
X66072Y106443D01*
X66088Y106457D01*
X66106Y106472D01*
X66140Y106505D01*
X66175Y106539D01*
X66192Y106555D01*
X66207Y106572D01*
X66221Y106587D01*
X66232Y106603D01*
Y106604D01*
X66235Y106605D01*
X66237Y106609D01*
X66240Y106615D01*
X66250Y106630D01*
X66261Y106648D01*
X66271Y106670D01*
X66280Y106694D01*
X66286Y106720D01*
X66289Y106745D01*
Y106747D01*
Y106748D01*
X66287Y106756D01*
X66286Y106770D01*
X66282Y106786D01*
X66276Y106805D01*
X66267Y106824D01*
X66254Y106844D01*
X66237Y106863D01*
X66235Y106866D01*
X66228Y106872D01*
X66218Y106878D01*
X66203Y106888D01*
X66183Y106897D01*
X66161Y106905D01*
X66135Y106910D01*
X66106Y106912D01*
X66097D01*
X66092Y106910D01*
X66075Y106909D01*
X66056Y106905D01*
X66035Y106899D01*
X66011Y106890D01*
X65989Y106877D01*
X65968Y106860D01*
X65966Y106858D01*
X65960Y106851D01*
X65952Y106840D01*
X65943Y106823D01*
X65934Y106804D01*
X65925Y106779D01*
X65920Y106751D01*
X65917Y106719D01*
X65796Y106731D01*
Y106733D01*
X65798Y106737D01*
Y106744D01*
X65799Y106754D01*
X65802Y106765D01*
X65805Y106777D01*
X65809Y106793D01*
X65813Y106808D01*
X65824Y106841D01*
X65841Y106874D01*
X65850Y106891D01*
X65863Y106908D01*
X65875Y106923D01*
X65889Y106937D01*
X65891Y106938D01*
X65893Y106940D01*
X65898Y106944D01*
X65905Y106948D01*
X65913Y106953D01*
X65923Y106959D01*
X65934Y106966D01*
X65948Y106973D01*
X65963Y106980D01*
X65979Y106987D01*
X65997Y106992D01*
X66017Y106998D01*
X66038Y107002D01*
X66060Y107006D01*
X66083Y107007D01*
X66108Y107009D01*
X66122D01*
X66132Y107007D01*
D02*
G37*
G36*
X68675Y114894D02*
X68687Y114893D01*
X68702Y114891D01*
X68718Y114890D01*
X68736Y114886D01*
X68773Y114877D01*
X68815Y114865D01*
X68836Y114856D01*
X68855Y114847D01*
X68874Y114834D01*
X68894Y114822D01*
X68895Y114820D01*
X68898Y114819D01*
X68904Y114815D01*
X68910Y114808D01*
X68917Y114801D01*
X68927Y114791D01*
X68937Y114780D01*
X68948Y114769D01*
X68959Y114755D01*
X68970Y114739D01*
X68983Y114722D01*
X68994Y114704D01*
X69003Y114683D01*
X69014Y114662D01*
X69023Y114640D01*
X69031Y114615D01*
X68906Y114586D01*
Y114587D01*
X68905Y114590D01*
X68902Y114596D01*
X68899Y114603D01*
X68897Y114611D01*
X68892Y114622D01*
X68881Y114644D01*
X68867Y114669D01*
X68851Y114694D01*
X68830Y114718D01*
X68808Y114739D01*
X68805Y114741D01*
X68797Y114747D01*
X68783Y114754D01*
X68765Y114764D01*
X68741Y114772D01*
X68715Y114780D01*
X68683Y114786D01*
X68648Y114787D01*
X68637D01*
X68630Y114786D01*
X68621D01*
X68609Y114784D01*
X68583Y114780D01*
X68554Y114775D01*
X68524Y114765D01*
X68492Y114751D01*
X68463Y114733D01*
X68461D01*
X68460Y114730D01*
X68450Y114723D01*
X68438Y114712D01*
X68422Y114696D01*
X68404Y114675D01*
X68388Y114651D01*
X68372Y114622D01*
X68358Y114590D01*
Y114589D01*
X68357Y114586D01*
X68356Y114582D01*
X68354Y114575D01*
X68352Y114567D01*
X68349Y114557D01*
X68345Y114533D01*
X68339Y114506D01*
X68334Y114475D01*
X68331Y114442D01*
X68329Y114406D01*
Y114404D01*
Y114400D01*
Y114393D01*
Y114385D01*
X68331Y114375D01*
Y114363D01*
X68332Y114349D01*
X68334Y114334D01*
X68338Y114300D01*
X68345Y114264D01*
X68353Y114228D01*
X68364Y114192D01*
Y114191D01*
X68365Y114188D01*
X68368Y114184D01*
X68371Y114177D01*
X68379Y114160D01*
X68392Y114141D01*
X68407Y114119D01*
X68426Y114095D01*
X68449Y114074D01*
X68475Y114055D01*
X68476D01*
X68479Y114054D01*
X68483Y114051D01*
X68489Y114048D01*
X68496Y114045D01*
X68504Y114041D01*
X68524Y114033D01*
X68548Y114024D01*
X68576Y114017D01*
X68607Y114012D01*
X68639Y114011D01*
X68648D01*
X68657Y114012D01*
X68666D01*
X68676Y114013D01*
X68701Y114019D01*
X68730Y114026D01*
X68759Y114037D01*
X68790Y114052D01*
X68805Y114060D01*
X68819Y114072D01*
X68820Y114073D01*
X68822Y114074D01*
X68826Y114078D01*
X68831Y114083D01*
X68837Y114090D01*
X68844Y114098D01*
X68852Y114106D01*
X68859Y114117D01*
X68867Y114130D01*
X68877Y114144D01*
X68885Y114158D01*
X68894Y114174D01*
X68901Y114192D01*
X68908Y114212D01*
X68915Y114232D01*
X68920Y114255D01*
X69048Y114223D01*
Y114221D01*
X69046Y114216D01*
X69044Y114207D01*
X69039Y114196D01*
X69035Y114184D01*
X69030Y114169D01*
X69023Y114152D01*
X69014Y114134D01*
X68995Y114095D01*
X68970Y114056D01*
X68955Y114037D01*
X68940Y114017D01*
X68923Y114001D01*
X68904Y113984D01*
X68902Y113983D01*
X68899Y113980D01*
X68892Y113977D01*
X68885Y113972D01*
X68874Y113965D01*
X68863Y113958D01*
X68848Y113951D01*
X68833Y113944D01*
X68815Y113936D01*
X68795Y113929D01*
X68775Y113922D01*
X68752Y113915D01*
X68729Y113909D01*
X68704Y113907D01*
X68677Y113904D01*
X68650Y113902D01*
X68634D01*
X68623Y113904D01*
X68611D01*
X68596Y113905D01*
X68579Y113908D01*
X68560Y113911D01*
X68519Y113918D01*
X68478Y113929D01*
X68436Y113944D01*
X68417Y113954D01*
X68397Y113965D01*
X68396Y113966D01*
X68393Y113968D01*
X68388Y113972D01*
X68382Y113977D01*
X68374Y113983D01*
X68364Y113991D01*
X68353Y114001D01*
X68342Y114012D01*
X68331Y114024D01*
X68318Y114037D01*
X68293Y114069D01*
X68270Y114106D01*
X68249Y114148D01*
Y114149D01*
X68246Y114153D01*
X68245Y114160D01*
X68241Y114169D01*
X68238Y114180D01*
X68234Y114194D01*
X68228Y114209D01*
X68224Y114225D01*
X68220Y114244D01*
X68214Y114264D01*
X68207Y114307D01*
X68202Y114356D01*
X68199Y114406D01*
Y114407D01*
Y114413D01*
Y114421D01*
X68200Y114431D01*
Y114445D01*
X68202Y114458D01*
X68203Y114477D01*
X68206Y114495D01*
X68213Y114535D01*
X68223Y114579D01*
X68236Y114624D01*
X68256Y114667D01*
X68257Y114668D01*
X68259Y114672D01*
X68261Y114678D01*
X68267Y114685D01*
X68272Y114694D01*
X68279Y114705D01*
X68297Y114730D01*
X68321Y114758D01*
X68349Y114786D01*
X68381Y114814D01*
X68418Y114837D01*
X68420Y114838D01*
X68424Y114840D01*
X68429Y114843D01*
X68436Y114847D01*
X68447Y114851D01*
X68458Y114855D01*
X68472Y114861D01*
X68487Y114866D01*
X68504Y114872D01*
X68522Y114877D01*
X68561Y114886D01*
X68605Y114893D01*
X68651Y114895D01*
X68665D01*
X68675Y114894D01*
D02*
G37*
G36*
X69747Y114754D02*
X69363D01*
X69311Y114495D01*
X69313Y114496D01*
X69315Y114497D01*
X69320Y114500D01*
X69326Y114504D01*
X69335Y114508D01*
X69345Y114514D01*
X69367Y114525D01*
X69394Y114536D01*
X69425Y114546D01*
X69458Y114553D01*
X69475Y114556D01*
X69505D01*
X69514Y114554D01*
X69525Y114553D01*
X69537Y114551D01*
X69551Y114549D01*
X69566Y114544D01*
X69600Y114535D01*
X69618Y114528D01*
X69636Y114518D01*
X69654Y114508D01*
X69672Y114497D01*
X69688Y114483D01*
X69705Y114468D01*
X69706Y114467D01*
X69709Y114464D01*
X69713Y114460D01*
X69719Y114453D01*
X69726Y114443D01*
X69733Y114434D01*
X69741Y114421D01*
X69749Y114407D01*
X69756Y114392D01*
X69765Y114375D01*
X69772Y114356D01*
X69779Y114336D01*
X69784Y114316D01*
X69788Y114292D01*
X69791Y114268D01*
X69792Y114244D01*
Y114242D01*
Y114238D01*
Y114231D01*
X69791Y114221D01*
X69790Y114210D01*
X69788Y114198D01*
X69786Y114183D01*
X69783Y114167D01*
X69774Y114131D01*
X69761Y114094D01*
X69752Y114074D01*
X69741Y114056D01*
X69730Y114037D01*
X69716Y114019D01*
X69715Y114017D01*
X69712Y114013D01*
X69706Y114008D01*
X69700Y114001D01*
X69690Y113993D01*
X69679Y113981D01*
X69665Y113972D01*
X69650Y113961D01*
X69633Y113950D01*
X69614Y113940D01*
X69593Y113930D01*
X69571Y113920D01*
X69547Y113913D01*
X69521Y113908D01*
X69493Y113904D01*
X69464Y113902D01*
X69451D01*
X69442Y113904D01*
X69431Y113905D01*
X69418Y113907D01*
X69403Y113908D01*
X69388Y113912D01*
X69353Y113920D01*
X69318Y113933D01*
X69300Y113941D01*
X69282Y113951D01*
X69265Y113962D01*
X69249Y113974D01*
X69247Y113976D01*
X69245Y113977D01*
X69242Y113983D01*
X69236Y113988D01*
X69229Y113995D01*
X69222Y114004D01*
X69214Y114015D01*
X69207Y114027D01*
X69199Y114040D01*
X69191Y114055D01*
X69175Y114088D01*
X69163Y114127D01*
X69159Y114148D01*
X69156Y114170D01*
X69279Y114180D01*
Y114178D01*
Y114176D01*
X69281Y114171D01*
X69282Y114164D01*
X69286Y114149D01*
X69292Y114128D01*
X69300Y114108D01*
X69311Y114084D01*
X69325Y114063D01*
X69342Y114044D01*
X69345Y114042D01*
X69350Y114037D01*
X69361Y114030D01*
X69376Y114022D01*
X69393Y114013D01*
X69414Y114006D01*
X69437Y114001D01*
X69464Y113999D01*
X69472D01*
X69478Y114001D01*
X69494Y114002D01*
X69514Y114008D01*
X69537Y114015D01*
X69561Y114026D01*
X69586Y114042D01*
X69597Y114052D01*
X69608Y114063D01*
X69609Y114065D01*
X69611Y114066D01*
X69614Y114070D01*
X69618Y114074D01*
X69627Y114090D01*
X69639Y114109D01*
X69648Y114133D01*
X69658Y114162D01*
X69665Y114196D01*
X69668Y114214D01*
Y114234D01*
Y114235D01*
Y114238D01*
Y114244D01*
X69666Y114250D01*
Y114259D01*
X69665Y114268D01*
X69661Y114291D01*
X69654Y114317D01*
X69644Y114343D01*
X69630Y114368D01*
X69611Y114392D01*
Y114393D01*
X69608Y114395D01*
X69601Y114402D01*
X69589Y114411D01*
X69572Y114422D01*
X69550Y114432D01*
X69525Y114442D01*
X69496Y114449D01*
X69479Y114452D01*
X69453D01*
X69442Y114450D01*
X69428Y114449D01*
X69411Y114445D01*
X69394Y114440D01*
X69376Y114434D01*
X69358Y114425D01*
X69357Y114424D01*
X69351Y114421D01*
X69343Y114414D01*
X69332Y114407D01*
X69321Y114397D01*
X69310Y114385D01*
X69297Y114372D01*
X69288Y114357D01*
X69177Y114372D01*
X69270Y114866D01*
X69747D01*
Y114754D01*
D02*
G37*
G36*
X98697Y112887D02*
X98710Y112886D01*
X98725Y112885D01*
X98740Y112883D01*
X98759Y112879D01*
X98796Y112871D01*
X98838Y112858D01*
X98858Y112850D01*
X98878Y112840D01*
X98897Y112828D01*
X98917Y112815D01*
X98918Y112814D01*
X98921Y112812D01*
X98926Y112808D01*
X98933Y112801D01*
X98940Y112794D01*
X98950Y112785D01*
X98960Y112774D01*
X98971Y112763D01*
X98982Y112749D01*
X98993Y112732D01*
X99005Y112715D01*
X99016Y112697D01*
X99026Y112677D01*
X99037Y112656D01*
X99046Y112634D01*
X99054Y112609D01*
X98929Y112579D01*
Y112581D01*
X98928Y112584D01*
X98925Y112589D01*
X98922Y112596D01*
X98919Y112604D01*
X98915Y112616D01*
X98904Y112638D01*
X98890Y112663D01*
X98874Y112688D01*
X98853Y112711D01*
X98831Y112732D01*
X98828Y112735D01*
X98820Y112740D01*
X98806Y112747D01*
X98788Y112757D01*
X98764Y112765D01*
X98738Y112774D01*
X98706Y112779D01*
X98671Y112781D01*
X98660D01*
X98653Y112779D01*
X98643D01*
X98632Y112778D01*
X98606Y112774D01*
X98577Y112768D01*
X98546Y112758D01*
X98514Y112744D01*
X98485Y112726D01*
X98484D01*
X98483Y112724D01*
X98473Y112717D01*
X98460Y112706D01*
X98445Y112689D01*
X98427Y112668D01*
X98410Y112645D01*
X98395Y112616D01*
X98381Y112584D01*
Y112582D01*
X98380Y112579D01*
X98379Y112575D01*
X98377Y112568D01*
X98374Y112560D01*
X98372Y112550D01*
X98367Y112527D01*
X98362Y112499D01*
X98356Y112469D01*
X98354Y112435D01*
X98352Y112399D01*
Y112398D01*
Y112394D01*
Y112387D01*
Y112378D01*
X98354Y112369D01*
Y112356D01*
X98355Y112342D01*
X98356Y112327D01*
X98360Y112294D01*
X98367Y112258D01*
X98376Y112222D01*
X98387Y112186D01*
Y112184D01*
X98388Y112181D01*
X98391Y112177D01*
X98394Y112170D01*
X98402Y112154D01*
X98415Y112134D01*
X98430Y112112D01*
X98449Y112089D01*
X98471Y112068D01*
X98498Y112048D01*
X98499D01*
X98502Y112047D01*
X98506Y112044D01*
X98512Y112041D01*
X98519Y112039D01*
X98527Y112034D01*
X98546Y112026D01*
X98571Y112018D01*
X98599Y112011D01*
X98630Y112005D01*
X98661Y112004D01*
X98671D01*
X98679Y112005D01*
X98689D01*
X98699Y112007D01*
X98724Y112012D01*
X98753Y112019D01*
X98782Y112030D01*
X98813Y112046D01*
X98828Y112054D01*
X98842Y112065D01*
X98843Y112066D01*
X98844Y112068D01*
X98849Y112072D01*
X98854Y112076D01*
X98860Y112083D01*
X98867Y112091D01*
X98875Y112100D01*
X98882Y112111D01*
X98890Y112123D01*
X98900Y112137D01*
X98908Y112151D01*
X98917Y112168D01*
X98924Y112186D01*
X98930Y112205D01*
X98937Y112226D01*
X98943Y112248D01*
X99071Y112216D01*
Y112215D01*
X99069Y112209D01*
X99066Y112201D01*
X99062Y112190D01*
X99058Y112177D01*
X99053Y112162D01*
X99046Y112145D01*
X99037Y112127D01*
X99018Y112089D01*
X98993Y112050D01*
X98978Y112030D01*
X98962Y112011D01*
X98946Y111994D01*
X98926Y111978D01*
X98925Y111976D01*
X98922Y111973D01*
X98915Y111971D01*
X98908Y111965D01*
X98897Y111958D01*
X98886Y111951D01*
X98871Y111944D01*
X98856Y111937D01*
X98838Y111929D01*
X98818Y111922D01*
X98797Y111915D01*
X98775Y111908D01*
X98752Y111903D01*
X98727Y111900D01*
X98700Y111897D01*
X98673Y111896D01*
X98657D01*
X98646Y111897D01*
X98634D01*
X98618Y111899D01*
X98602Y111901D01*
X98582Y111904D01*
X98542Y111911D01*
X98501Y111922D01*
X98459Y111937D01*
X98440Y111947D01*
X98420Y111958D01*
X98419Y111960D01*
X98416Y111961D01*
X98410Y111965D01*
X98405Y111971D01*
X98397Y111976D01*
X98387Y111985D01*
X98376Y111994D01*
X98365Y112005D01*
X98354Y112018D01*
X98341Y112030D01*
X98316Y112062D01*
X98293Y112100D01*
X98272Y112141D01*
Y112143D01*
X98269Y112147D01*
X98268Y112154D01*
X98263Y112162D01*
X98261Y112173D01*
X98256Y112187D01*
X98251Y112202D01*
X98247Y112219D01*
X98243Y112237D01*
X98237Y112258D01*
X98230Y112301D01*
X98225Y112349D01*
X98222Y112399D01*
Y112401D01*
Y112406D01*
Y112414D01*
X98223Y112424D01*
Y112438D01*
X98225Y112452D01*
X98226Y112470D01*
X98229Y112488D01*
X98236Y112528D01*
X98245Y112573D01*
X98259Y112617D01*
X98279Y112660D01*
X98280Y112661D01*
X98281Y112665D01*
X98284Y112671D01*
X98290Y112678D01*
X98295Y112688D01*
X98302Y112699D01*
X98320Y112724D01*
X98344Y112751D01*
X98372Y112779D01*
X98403Y112807D01*
X98441Y112830D01*
X98442Y112832D01*
X98446Y112833D01*
X98452Y112836D01*
X98459Y112840D01*
X98470Y112844D01*
X98481Y112849D01*
X98495Y112854D01*
X98510Y112860D01*
X98527Y112865D01*
X98545Y112871D01*
X98584Y112879D01*
X98628Y112886D01*
X98674Y112889D01*
X98688D01*
X98697Y112887D01*
D02*
G37*
G36*
X99509Y112875D02*
X99527Y112872D01*
X99549Y112868D01*
X99574Y112861D01*
X99599Y112853D01*
X99624Y112842D01*
X99625D01*
X99627Y112840D01*
X99635Y112836D01*
X99647Y112828D01*
X99661Y112818D01*
X99678Y112804D01*
X99695Y112789D01*
X99711Y112771D01*
X99725Y112750D01*
X99727Y112747D01*
X99731Y112740D01*
X99736Y112728D01*
X99743Y112713D01*
X99750Y112695D01*
X99756Y112674D01*
X99760Y112650D01*
X99761Y112627D01*
Y112624D01*
Y112616D01*
X99760Y112604D01*
X99757Y112589D01*
X99753Y112571D01*
X99746Y112552D01*
X99738Y112532D01*
X99727Y112513D01*
X99725Y112510D01*
X99721Y112505D01*
X99713Y112495D01*
X99702Y112484D01*
X99688Y112471D01*
X99671Y112457D01*
X99652Y112445D01*
X99628Y112432D01*
X99629D01*
X99632Y112431D01*
X99636Y112430D01*
X99642Y112428D01*
X99657Y112423D01*
X99677Y112414D01*
X99699Y112403D01*
X99721Y112389D01*
X99742Y112371D01*
X99761Y112351D01*
X99763Y112348D01*
X99768Y112340D01*
X99776Y112326D01*
X99785Y112308D01*
X99793Y112285D01*
X99801Y112259D01*
X99807Y112229D01*
X99808Y112195D01*
Y112194D01*
Y112190D01*
Y112183D01*
X99807Y112175D01*
X99806Y112163D01*
X99803Y112151D01*
X99800Y112137D01*
X99797Y112122D01*
X99786Y112089D01*
X99778Y112071D01*
X99770Y112054D01*
X99758Y112036D01*
X99746Y112018D01*
X99732Y112000D01*
X99715Y111983D01*
X99714Y111982D01*
X99711Y111979D01*
X99706Y111975D01*
X99699Y111969D01*
X99690Y111962D01*
X99679Y111955D01*
X99667Y111947D01*
X99652Y111940D01*
X99636Y111932D01*
X99618Y111923D01*
X99600Y111917D01*
X99580Y111910D01*
X99557Y111904D01*
X99534Y111900D01*
X99510Y111897D01*
X99484Y111896D01*
X99471D01*
X99463Y111897D01*
X99452Y111899D01*
X99439Y111900D01*
X99426Y111903D01*
X99410Y111905D01*
X99377Y111914D01*
X99342Y111928D01*
X99324Y111936D01*
X99308Y111946D01*
X99291Y111958D01*
X99274Y111971D01*
X99273Y111972D01*
X99270Y111975D01*
X99266Y111979D01*
X99262Y111985D01*
X99255Y111991D01*
X99248Y112001D01*
X99240Y112011D01*
X99231Y112023D01*
X99223Y112037D01*
X99215Y112051D01*
X99200Y112084D01*
X99187Y112123D01*
X99183Y112144D01*
X99180Y112166D01*
X99298Y112181D01*
Y112180D01*
X99299Y112177D01*
X99301Y112172D01*
X99302Y112165D01*
X99304Y112156D01*
X99306Y112147D01*
X99313Y112126D01*
X99323Y112101D01*
X99335Y112077D01*
X99349Y112055D01*
X99366Y112036D01*
X99369Y112034D01*
X99374Y112029D01*
X99385Y112022D01*
X99399Y112015D01*
X99416Y112007D01*
X99437Y112000D01*
X99460Y111994D01*
X99485Y111993D01*
X99494D01*
X99499Y111994D01*
X99514Y111996D01*
X99534Y112000D01*
X99556Y112007D01*
X99580Y112016D01*
X99603Y112030D01*
X99625Y112050D01*
X99628Y112052D01*
X99635Y112061D01*
X99643Y112073D01*
X99654Y112090D01*
X99665Y112111D01*
X99674Y112134D01*
X99681Y112162D01*
X99684Y112193D01*
Y112194D01*
Y112197D01*
Y112201D01*
X99682Y112206D01*
X99681Y112222D01*
X99677Y112240D01*
X99671Y112262D01*
X99661Y112284D01*
X99647Y112306D01*
X99629Y112327D01*
X99627Y112330D01*
X99620Y112335D01*
X99609Y112344D01*
X99593Y112353D01*
X99574Y112363D01*
X99550Y112371D01*
X99524Y112377D01*
X99495Y112380D01*
X99482D01*
X99473Y112378D01*
X99460Y112377D01*
X99446Y112374D01*
X99430Y112371D01*
X99412Y112367D01*
X99426Y112471D01*
X99433D01*
X99438Y112470D01*
X99456D01*
X99471Y112473D01*
X99489Y112475D01*
X99510Y112480D01*
X99534Y112487D01*
X99556Y112496D01*
X99580Y112509D01*
X99581D01*
X99582Y112510D01*
X99589Y112516D01*
X99599Y112525D01*
X99610Y112538D01*
X99621Y112556D01*
X99631Y112577D01*
X99638Y112600D01*
X99641Y112614D01*
Y112629D01*
Y112631D01*
Y112632D01*
Y112640D01*
X99638Y112652D01*
X99635Y112667D01*
X99629Y112683D01*
X99623Y112702D01*
X99611Y112720D01*
X99596Y112736D01*
X99595Y112738D01*
X99588Y112743D01*
X99578Y112750D01*
X99566Y112758D01*
X99549Y112765D01*
X99530Y112772D01*
X99507Y112778D01*
X99482Y112779D01*
X99471D01*
X99459Y112776D01*
X99442Y112774D01*
X99424Y112768D01*
X99406Y112761D01*
X99387Y112750D01*
X99369Y112736D01*
X99367Y112735D01*
X99362Y112728D01*
X99353Y112718D01*
X99344Y112704D01*
X99334Y112686D01*
X99324Y112664D01*
X99316Y112638D01*
X99310Y112607D01*
X99193Y112628D01*
Y112629D01*
X99194Y112634D01*
X99195Y112639D01*
X99197Y112647D01*
X99200Y112657D01*
X99204Y112668D01*
X99212Y112695D01*
X99226Y112725D01*
X99243Y112756D01*
X99263Y112785D01*
X99290Y112811D01*
X99291Y112812D01*
X99294Y112814D01*
X99298Y112817D01*
X99304Y112821D01*
X99310Y112826D01*
X99320Y112832D01*
X99330Y112837D01*
X99342Y112844D01*
X99370Y112855D01*
X99402Y112867D01*
X99439Y112873D01*
X99459Y112876D01*
X99494D01*
X99509Y112875D01*
D02*
G37*
G36*
X107689Y110906D02*
X107702Y110905D01*
X107717Y110903D01*
X107732Y110902D01*
X107750Y110898D01*
X107788Y110890D01*
X107829Y110877D01*
X107850Y110869D01*
X107869Y110859D01*
X107889Y110847D01*
X107908Y110834D01*
X107910Y110833D01*
X107912Y110831D01*
X107918Y110827D01*
X107925Y110820D01*
X107932Y110813D01*
X107941Y110804D01*
X107951Y110792D01*
X107962Y110781D01*
X107973Y110767D01*
X107984Y110751D01*
X107997Y110734D01*
X108008Y110716D01*
X108018Y110695D01*
X108029Y110675D01*
X108037Y110652D01*
X108046Y110627D01*
X107921Y110598D01*
Y110600D01*
X107919Y110602D01*
X107917Y110608D01*
X107914Y110615D01*
X107911Y110623D01*
X107907Y110634D01*
X107896Y110657D01*
X107882Y110681D01*
X107865Y110706D01*
X107844Y110730D01*
X107822Y110751D01*
X107819Y110754D01*
X107811Y110759D01*
X107797Y110766D01*
X107779Y110776D01*
X107756Y110784D01*
X107729Y110792D01*
X107697Y110798D01*
X107663Y110799D01*
X107652D01*
X107645Y110798D01*
X107635D01*
X107624Y110797D01*
X107598Y110792D01*
X107568Y110787D01*
X107538Y110777D01*
X107506Y110763D01*
X107477Y110745D01*
X107476D01*
X107474Y110743D01*
X107464Y110736D01*
X107452Y110724D01*
X107437Y110708D01*
X107419Y110687D01*
X107402Y110663D01*
X107387Y110634D01*
X107373Y110602D01*
Y110601D01*
X107371Y110598D01*
X107370Y110594D01*
X107369Y110587D01*
X107366Y110579D01*
X107363Y110569D01*
X107359Y110546D01*
X107353Y110518D01*
X107348Y110487D01*
X107345Y110454D01*
X107344Y110418D01*
Y110417D01*
Y110412D01*
Y110406D01*
Y110397D01*
X107345Y110387D01*
Y110375D01*
X107347Y110361D01*
X107348Y110346D01*
X107352Y110313D01*
X107359Y110277D01*
X107367Y110240D01*
X107378Y110204D01*
Y110203D01*
X107380Y110200D01*
X107383Y110196D01*
X107385Y110189D01*
X107394Y110173D01*
X107406Y110153D01*
X107421Y110131D01*
X107441Y110107D01*
X107463Y110087D01*
X107489Y110067D01*
X107491D01*
X107494Y110066D01*
X107498Y110063D01*
X107503Y110060D01*
X107510Y110057D01*
X107519Y110053D01*
X107538Y110045D01*
X107563Y110037D01*
X107591Y110030D01*
X107621Y110024D01*
X107653Y110023D01*
X107663D01*
X107671Y110024D01*
X107681D01*
X107690Y110026D01*
X107715Y110031D01*
X107745Y110038D01*
X107774Y110049D01*
X107804Y110064D01*
X107819Y110073D01*
X107833Y110084D01*
X107835Y110085D01*
X107836Y110087D01*
X107840Y110091D01*
X107846Y110095D01*
X107851Y110102D01*
X107858Y110110D01*
X107867Y110118D01*
X107874Y110130D01*
X107882Y110142D01*
X107892Y110156D01*
X107900Y110170D01*
X107908Y110186D01*
X107915Y110204D01*
X107922Y110224D01*
X107929Y110245D01*
X107935Y110267D01*
X108062Y110235D01*
Y110234D01*
X108061Y110228D01*
X108058Y110220D01*
X108054Y110209D01*
X108050Y110196D01*
X108044Y110181D01*
X108037Y110164D01*
X108029Y110146D01*
X108009Y110107D01*
X107984Y110068D01*
X107969Y110049D01*
X107954Y110030D01*
X107937Y110013D01*
X107918Y109996D01*
X107917Y109995D01*
X107914Y109992D01*
X107907Y109989D01*
X107900Y109984D01*
X107889Y109977D01*
X107878Y109970D01*
X107862Y109963D01*
X107847Y109956D01*
X107829Y109948D01*
X107810Y109941D01*
X107789Y109934D01*
X107767Y109927D01*
X107743Y109921D01*
X107718Y109919D01*
X107692Y109916D01*
X107664Y109915D01*
X107649D01*
X107638Y109916D01*
X107625D01*
X107610Y109917D01*
X107593Y109920D01*
X107574Y109923D01*
X107534Y109930D01*
X107492Y109941D01*
X107451Y109956D01*
X107431Y109966D01*
X107412Y109977D01*
X107410Y109978D01*
X107408Y109980D01*
X107402Y109984D01*
X107396Y109989D01*
X107388Y109995D01*
X107378Y110003D01*
X107367Y110013D01*
X107356Y110024D01*
X107345Y110037D01*
X107333Y110049D01*
X107308Y110081D01*
X107284Y110118D01*
X107263Y110160D01*
Y110161D01*
X107261Y110166D01*
X107259Y110173D01*
X107255Y110181D01*
X107252Y110192D01*
X107248Y110206D01*
X107243Y110221D01*
X107238Y110238D01*
X107234Y110256D01*
X107229Y110277D01*
X107222Y110320D01*
X107216Y110368D01*
X107213Y110418D01*
Y110419D01*
Y110425D01*
Y110433D01*
X107215Y110443D01*
Y110457D01*
X107216Y110471D01*
X107218Y110489D01*
X107220Y110507D01*
X107227Y110547D01*
X107237Y110591D01*
X107251Y110636D01*
X107270Y110679D01*
X107272Y110680D01*
X107273Y110684D01*
X107276Y110690D01*
X107281Y110697D01*
X107287Y110706D01*
X107294Y110718D01*
X107312Y110743D01*
X107335Y110770D01*
X107363Y110798D01*
X107395Y110826D01*
X107433Y110849D01*
X107434Y110851D01*
X107438Y110852D01*
X107444Y110855D01*
X107451Y110859D01*
X107462Y110863D01*
X107473Y110867D01*
X107487Y110873D01*
X107502Y110878D01*
X107519Y110884D01*
X107537Y110890D01*
X107575Y110898D01*
X107620Y110905D01*
X107666Y110908D01*
X107679D01*
X107689Y110906D01*
D02*
G37*
G36*
X108511Y110894D02*
X108523Y110892D01*
X108536Y110891D01*
X108552Y110888D01*
X108567Y110885D01*
X108603Y110876D01*
X108639Y110862D01*
X108657Y110853D01*
X108675Y110844D01*
X108692Y110831D01*
X108707Y110817D01*
X108708Y110816D01*
X108711Y110815D01*
X108714Y110809D01*
X108720Y110804D01*
X108726Y110797D01*
X108733Y110787D01*
X108740Y110777D01*
X108749Y110765D01*
X108762Y110738D01*
X108776Y110705D01*
X108782Y110688D01*
X108785Y110669D01*
X108787Y110650D01*
X108789Y110629D01*
Y110626D01*
Y110619D01*
X108787Y110608D01*
X108786Y110593D01*
X108783Y110576D01*
X108778Y110557D01*
X108772Y110536D01*
X108764Y110515D01*
X108762Y110512D01*
X108760Y110505D01*
X108754Y110494D01*
X108746Y110479D01*
X108735Y110462D01*
X108721Y110442D01*
X108704Y110421D01*
X108685Y110397D01*
X108682Y110394D01*
X108675Y110386D01*
X108668Y110379D01*
X108661Y110372D01*
X108653Y110364D01*
X108642Y110353D01*
X108631Y110342D01*
X108617Y110329D01*
X108603Y110315D01*
X108586Y110300D01*
X108568Y110285D01*
X108549Y110267D01*
X108527Y110249D01*
X108505Y110229D01*
X108503Y110228D01*
X108500Y110225D01*
X108495Y110221D01*
X108488Y110215D01*
X108480Y110207D01*
X108470Y110199D01*
X108448Y110181D01*
X108424Y110160D01*
X108402Y110139D01*
X108383Y110121D01*
X108374Y110114D01*
X108367Y110107D01*
X108366Y110106D01*
X108362Y110102D01*
X108356Y110096D01*
X108349Y110088D01*
X108342Y110078D01*
X108334Y110068D01*
X108317Y110045D01*
X108790D01*
Y109931D01*
X108154D01*
Y109933D01*
Y109938D01*
Y109946D01*
X108155Y109958D01*
X108156Y109970D01*
X108159Y109984D01*
X108162Y109998D01*
X108168Y110013D01*
Y110014D01*
X108169Y110016D01*
X108172Y110024D01*
X108177Y110037D01*
X108186Y110053D01*
X108197Y110073D01*
X108211Y110095D01*
X108226Y110117D01*
X108245Y110141D01*
Y110142D01*
X108248Y110143D01*
X108255Y110152D01*
X108267Y110164D01*
X108285Y110182D01*
X108306Y110203D01*
X108333Y110228D01*
X108364Y110256D01*
X108399Y110285D01*
X108401Y110286D01*
X108406Y110290D01*
X108414Y110297D01*
X108424Y110306D01*
X108437Y110317D01*
X108452Y110329D01*
X108467Y110343D01*
X108485Y110358D01*
X108520Y110392D01*
X108554Y110425D01*
X108571Y110442D01*
X108586Y110458D01*
X108600Y110473D01*
X108611Y110489D01*
Y110490D01*
X108614Y110491D01*
X108617Y110496D01*
X108620Y110501D01*
X108629Y110516D01*
X108640Y110534D01*
X108650Y110557D01*
X108660Y110580D01*
X108665Y110607D01*
X108668Y110632D01*
Y110633D01*
Y110634D01*
X108667Y110643D01*
X108665Y110657D01*
X108661Y110672D01*
X108656Y110691D01*
X108646Y110711D01*
X108634Y110730D01*
X108617Y110749D01*
X108614Y110752D01*
X108607Y110758D01*
X108597Y110765D01*
X108582Y110774D01*
X108563Y110783D01*
X108541Y110791D01*
X108514Y110797D01*
X108485Y110798D01*
X108477D01*
X108471Y110797D01*
X108455Y110795D01*
X108435Y110791D01*
X108414Y110785D01*
X108391Y110776D01*
X108369Y110763D01*
X108348Y110747D01*
X108345Y110744D01*
X108340Y110737D01*
X108331Y110726D01*
X108323Y110709D01*
X108313Y110690D01*
X108305Y110665D01*
X108299Y110637D01*
X108297Y110605D01*
X108176Y110618D01*
Y110619D01*
X108177Y110623D01*
Y110630D01*
X108179Y110640D01*
X108181Y110651D01*
X108184Y110663D01*
X108188Y110679D01*
X108193Y110694D01*
X108204Y110727D01*
X108220Y110761D01*
X108230Y110777D01*
X108242Y110794D01*
X108255Y110809D01*
X108269Y110823D01*
X108270Y110824D01*
X108273Y110826D01*
X108277Y110830D01*
X108284Y110834D01*
X108292Y110840D01*
X108302Y110845D01*
X108313Y110852D01*
X108327Y110859D01*
X108342Y110866D01*
X108359Y110873D01*
X108377Y110878D01*
X108396Y110884D01*
X108417Y110888D01*
X108439Y110892D01*
X108463Y110894D01*
X108488Y110895D01*
X108502D01*
X108511Y110894D01*
D02*
G37*
G36*
X112439Y64907D02*
X112451Y64905D01*
X112467Y64904D01*
X112482Y64903D01*
X112500Y64898D01*
X112537Y64890D01*
X112579Y64878D01*
X112600Y64869D01*
X112619Y64860D01*
X112639Y64847D01*
X112658Y64835D01*
X112659Y64833D01*
X112662Y64832D01*
X112668Y64828D01*
X112675Y64821D01*
X112682Y64814D01*
X112691Y64804D01*
X112701Y64793D01*
X112712Y64782D01*
X112723Y64768D01*
X112734Y64751D01*
X112747Y64735D01*
X112758Y64717D01*
X112768Y64696D01*
X112779Y64675D01*
X112787Y64653D01*
X112795Y64628D01*
X112670Y64599D01*
Y64600D01*
X112669Y64603D01*
X112666Y64609D01*
X112664Y64616D01*
X112661Y64624D01*
X112657Y64635D01*
X112646Y64657D01*
X112632Y64682D01*
X112615Y64707D01*
X112594Y64731D01*
X112572Y64751D01*
X112569Y64754D01*
X112561Y64760D01*
X112547Y64767D01*
X112529Y64776D01*
X112505Y64785D01*
X112479Y64793D01*
X112447Y64799D01*
X112413Y64800D01*
X112401D01*
X112395Y64799D01*
X112385D01*
X112374Y64797D01*
X112347Y64793D01*
X112318Y64787D01*
X112288Y64778D01*
X112256Y64764D01*
X112227Y64746D01*
X112225D01*
X112224Y64743D01*
X112214Y64736D01*
X112202Y64725D01*
X112186Y64708D01*
X112168Y64688D01*
X112152Y64664D01*
X112137Y64635D01*
X112123Y64603D01*
Y64602D01*
X112121Y64599D01*
X112120Y64595D01*
X112119Y64588D01*
X112116Y64579D01*
X112113Y64570D01*
X112109Y64546D01*
X112103Y64518D01*
X112098Y64488D01*
X112095Y64455D01*
X112094Y64419D01*
Y64417D01*
Y64413D01*
Y64406D01*
Y64398D01*
X112095Y64388D01*
Y64376D01*
X112096Y64362D01*
X112098Y64346D01*
X112102Y64313D01*
X112109Y64277D01*
X112117Y64241D01*
X112128Y64205D01*
Y64204D01*
X112130Y64201D01*
X112132Y64197D01*
X112135Y64190D01*
X112143Y64173D01*
X112156Y64154D01*
X112171Y64132D01*
X112191Y64108D01*
X112213Y64087D01*
X112239Y64068D01*
X112241D01*
X112243Y64066D01*
X112247Y64064D01*
X112253Y64061D01*
X112260Y64058D01*
X112268Y64054D01*
X112288Y64046D01*
X112313Y64037D01*
X112340Y64030D01*
X112371Y64025D01*
X112403Y64023D01*
X112413D01*
X112421Y64025D01*
X112431D01*
X112440Y64026D01*
X112465Y64032D01*
X112494Y64039D01*
X112523Y64050D01*
X112554Y64065D01*
X112569Y64073D01*
X112583Y64084D01*
X112585Y64086D01*
X112586Y64087D01*
X112590Y64091D01*
X112596Y64095D01*
X112601Y64102D01*
X112608Y64111D01*
X112616Y64119D01*
X112623Y64130D01*
X112632Y64143D01*
X112641Y64156D01*
X112650Y64170D01*
X112658Y64187D01*
X112665Y64205D01*
X112672Y64224D01*
X112679Y64245D01*
X112684Y64267D01*
X112812Y64236D01*
Y64234D01*
X112811Y64229D01*
X112808Y64220D01*
X112804Y64209D01*
X112799Y64197D01*
X112794Y64181D01*
X112787Y64165D01*
X112779Y64147D01*
X112759Y64108D01*
X112734Y64069D01*
X112719Y64050D01*
X112704Y64030D01*
X112687Y64014D01*
X112668Y63997D01*
X112666Y63996D01*
X112664Y63993D01*
X112657Y63990D01*
X112650Y63985D01*
X112639Y63978D01*
X112628Y63971D01*
X112612Y63964D01*
X112597Y63957D01*
X112579Y63948D01*
X112560Y63942D01*
X112539Y63935D01*
X112517Y63928D01*
X112493Y63922D01*
X112468Y63919D01*
X112442Y63917D01*
X112414Y63915D01*
X112399D01*
X112388Y63917D01*
X112375D01*
X112360Y63918D01*
X112343Y63921D01*
X112324Y63923D01*
X112284Y63930D01*
X112242Y63942D01*
X112200Y63957D01*
X112181Y63966D01*
X112162Y63978D01*
X112160Y63979D01*
X112157Y63980D01*
X112152Y63985D01*
X112146Y63990D01*
X112138Y63996D01*
X112128Y64004D01*
X112117Y64014D01*
X112106Y64025D01*
X112095Y64037D01*
X112082Y64050D01*
X112058Y64082D01*
X112034Y64119D01*
X112013Y64161D01*
Y64162D01*
X112010Y64166D01*
X112009Y64173D01*
X112005Y64181D01*
X112002Y64193D01*
X111998Y64206D01*
X111992Y64222D01*
X111988Y64238D01*
X111984Y64256D01*
X111978Y64277D01*
X111972Y64320D01*
X111966Y64369D01*
X111963Y64419D01*
Y64420D01*
Y64426D01*
Y64434D01*
X111965Y64444D01*
Y64457D01*
X111966Y64471D01*
X111967Y64489D01*
X111970Y64507D01*
X111977Y64548D01*
X111987Y64592D01*
X112001Y64636D01*
X112020Y64679D01*
X112021Y64681D01*
X112023Y64685D01*
X112026Y64690D01*
X112031Y64697D01*
X112037Y64707D01*
X112044Y64718D01*
X112062Y64743D01*
X112085Y64771D01*
X112113Y64799D01*
X112145Y64826D01*
X112182Y64850D01*
X112184Y64851D01*
X112188Y64853D01*
X112193Y64855D01*
X112200Y64860D01*
X112211Y64864D01*
X112223Y64868D01*
X112236Y64873D01*
X112252Y64879D01*
X112268Y64885D01*
X112286Y64890D01*
X112325Y64898D01*
X112370Y64905D01*
X112415Y64908D01*
X112429D01*
X112439Y64907D01*
D02*
G37*
G36*
X113364Y63932D02*
X113246D01*
Y64682D01*
X113245Y64681D01*
X113238Y64675D01*
X113229Y64667D01*
X113216Y64657D01*
X113200Y64645D01*
X113181Y64631D01*
X113159Y64616D01*
X113134Y64600D01*
X113132D01*
X113131Y64599D01*
X113123Y64593D01*
X113109Y64586D01*
X113092Y64578D01*
X113073Y64568D01*
X113052Y64559D01*
X113031Y64549D01*
X113010Y64541D01*
Y64654D01*
X113012D01*
X113014Y64657D01*
X113020Y64659D01*
X113027Y64663D01*
X113035Y64667D01*
X113045Y64672D01*
X113069Y64686D01*
X113096Y64701D01*
X113124Y64721D01*
X113153Y64743D01*
X113182Y64767D01*
X113184Y64768D01*
X113185Y64769D01*
X113189Y64774D01*
X113195Y64778D01*
X113207Y64792D01*
X113224Y64808D01*
X113240Y64828D01*
X113259Y64850D01*
X113274Y64872D01*
X113288Y64896D01*
X113364D01*
Y63932D01*
D02*
G37*
G36*
X115999Y88492D02*
X116014Y88490D01*
X116032Y88484D01*
X116051Y88477D01*
X116074Y88467D01*
X116097Y88455D01*
X116054Y88347D01*
X116053Y88348D01*
X116047Y88351D01*
X116039Y88355D01*
X116028Y88359D01*
X116015Y88363D01*
X116000Y88368D01*
X115985Y88370D01*
X115970Y88372D01*
X115963D01*
X115956Y88370D01*
X115946Y88369D01*
X115936Y88366D01*
X115924Y88362D01*
X115911Y88357D01*
X115900Y88348D01*
X115899Y88347D01*
X115895Y88344D01*
X115891Y88339D01*
X115884Y88332D01*
X115877Y88322D01*
X115870Y88311D01*
X115863Y88298D01*
X115857Y88283D01*
X115856Y88280D01*
X115854Y88272D01*
X115852Y88259D01*
X115848Y88243D01*
X115843Y88222D01*
X115841Y88198D01*
X115839Y88173D01*
X115838Y88146D01*
Y87782D01*
X115720D01*
Y88479D01*
X115827D01*
Y88373D01*
X115828Y88375D01*
X115834Y88384D01*
X115841Y88397D01*
X115852Y88412D01*
X115863Y88427D01*
X115875Y88444D01*
X115888Y88458D01*
X115900Y88469D01*
X115902Y88470D01*
X115906Y88473D01*
X115914Y88477D01*
X115922Y88481D01*
X115934Y88486D01*
X115947Y88490D01*
X115961Y88492D01*
X115977Y88494D01*
X115986D01*
X115999Y88492D01*
D02*
G37*
G36*
X116473Y87771D02*
Y87770D01*
X116472Y87766D01*
X116469Y87760D01*
X116466Y87753D01*
X116462Y87744D01*
X116458Y87732D01*
X116448Y87709D01*
X116438Y87683D01*
X116427Y87656D01*
X116416Y87633D01*
X116411Y87623D01*
X116406Y87613D01*
X116405Y87610D01*
X116401Y87604D01*
X116394Y87594D01*
X116386Y87581D01*
X116375Y87567D01*
X116362Y87554D01*
X116350Y87540D01*
X116334Y87529D01*
X116333Y87527D01*
X116327Y87524D01*
X116319Y87520D01*
X116307Y87515D01*
X116293Y87509D01*
X116276Y87505D01*
X116258Y87502D01*
X116237Y87501D01*
X116232D01*
X116225Y87502D01*
X116215D01*
X116204Y87505D01*
X116191Y87508D01*
X116178Y87511D01*
X116162Y87516D01*
X116150Y87626D01*
X116151D01*
X116157Y87624D01*
X116164Y87623D01*
X116172Y87620D01*
X116194Y87616D01*
X116216Y87615D01*
X116223D01*
X116230Y87616D01*
X116239D01*
X116259Y87620D01*
X116269Y87624D01*
X116279Y87628D01*
X116280D01*
X116283Y87631D01*
X116287Y87634D01*
X116293Y87638D01*
X116305Y87649D01*
X116316Y87665D01*
Y87666D01*
X116319Y87669D01*
X116322Y87674D01*
X116325Y87683D01*
X116330Y87694D01*
X116336Y87710D01*
X116344Y87730D01*
X116352Y87753D01*
Y87755D01*
X116355Y87760D01*
X116358Y87770D01*
X116363Y87782D01*
X116100Y88479D01*
X116225D01*
X116370Y88075D01*
Y88074D01*
X116372Y88072D01*
X116373Y88068D01*
X116375Y88061D01*
X116377Y88054D01*
X116380Y88046D01*
X116387Y88026D01*
X116395Y88003D01*
X116404Y87975D01*
X116412Y87946D01*
X116420Y87914D01*
Y87916D01*
X116422Y87918D01*
X116423Y87922D01*
X116424Y87928D01*
X116426Y87935D01*
X116429Y87943D01*
X116434Y87964D01*
X116441Y87988D01*
X116451Y88015D01*
X116459Y88043D01*
X116470Y88072D01*
X116620Y88479D01*
X116738D01*
X116473Y87771D01*
D02*
G37*
G36*
X113808Y88492D02*
X113828Y88491D01*
X113852Y88488D01*
X113875Y88484D01*
X113899Y88479D01*
X113921Y88472D01*
X113924Y88470D01*
X113931Y88467D01*
X113941Y88463D01*
X113953Y88458D01*
X113967Y88449D01*
X113981Y88441D01*
X113993Y88430D01*
X114004Y88419D01*
X114006Y88418D01*
X114009Y88413D01*
X114013Y88406D01*
X114018Y88398D01*
X114025Y88386D01*
X114031Y88373D01*
X114036Y88358D01*
X114041Y88340D01*
Y88339D01*
X114042Y88334D01*
X114043Y88326D01*
X114045Y88315D01*
Y88300D01*
X114046Y88282D01*
X114047Y88258D01*
Y88232D01*
Y88074D01*
Y88072D01*
Y88067D01*
Y88058D01*
Y88047D01*
Y88035D01*
Y88020D01*
X114049Y87986D01*
Y87952D01*
X114050Y87917D01*
X114052Y87902D01*
Y87888D01*
X114053Y87875D01*
X114054Y87866D01*
Y87864D01*
X114056Y87859D01*
X114057Y87850D01*
X114061Y87839D01*
X114064Y87827D01*
X114070Y87813D01*
X114077Y87798D01*
X114084Y87782D01*
X113960D01*
X113959Y87784D01*
X113957Y87789D01*
X113955Y87796D01*
X113950Y87807D01*
X113946Y87820D01*
X113943Y87835D01*
X113941Y87852D01*
X113938Y87870D01*
X113937D01*
X113935Y87867D01*
X113927Y87860D01*
X113914Y87850D01*
X113898Y87838D01*
X113877Y87825D01*
X113856Y87812D01*
X113834Y87799D01*
X113810Y87789D01*
X113808Y87788D01*
X113799Y87787D01*
X113787Y87782D01*
X113771Y87778D01*
X113752Y87774D01*
X113730Y87771D01*
X113705Y87769D01*
X113680Y87767D01*
X113669D01*
X113661Y87769D01*
X113651D01*
X113640Y87770D01*
X113615Y87774D01*
X113587Y87781D01*
X113557Y87791D01*
X113529Y87805D01*
X113504Y87823D01*
X113501Y87825D01*
X113494Y87832D01*
X113484Y87845D01*
X113473Y87861D01*
X113462Y87882D01*
X113452Y87906D01*
X113446Y87935D01*
X113444Y87949D01*
X113443Y87965D01*
Y87968D01*
Y87974D01*
X113444Y87983D01*
X113446Y87996D01*
X113448Y88011D01*
X113452Y88026D01*
X113458Y88043D01*
X113465Y88058D01*
X113466Y88060D01*
X113469Y88065D01*
X113475Y88074D01*
X113482Y88083D01*
X113490Y88094D01*
X113501Y88106D01*
X113512Y88117D01*
X113526Y88126D01*
X113527Y88128D01*
X113533Y88131D01*
X113540Y88136D01*
X113551Y88142D01*
X113563Y88147D01*
X113579Y88154D01*
X113594Y88160D01*
X113612Y88165D01*
X113613D01*
X113619Y88167D01*
X113627Y88169D01*
X113638Y88171D01*
X113652Y88173D01*
X113670Y88176D01*
X113691Y88180D01*
X113716Y88183D01*
X113717D01*
X113723Y88185D01*
X113730D01*
X113740Y88186D01*
X113751Y88187D01*
X113765Y88190D01*
X113780Y88192D01*
X113796Y88194D01*
X113830Y88201D01*
X113866Y88208D01*
X113898Y88216D01*
X113913Y88221D01*
X113927Y88225D01*
Y88226D01*
Y88229D01*
X113928Y88237D01*
Y88247D01*
Y88253D01*
Y88255D01*
Y88257D01*
Y88258D01*
Y88266D01*
X113927Y88280D01*
X113924Y88296D01*
X113920Y88312D01*
X113913Y88329D01*
X113905Y88344D01*
X113894Y88357D01*
X113892Y88358D01*
X113885Y88363D01*
X113874Y88369D01*
X113860Y88377D01*
X113841Y88384D01*
X113819Y88391D01*
X113791Y88395D01*
X113759Y88397D01*
X113745D01*
X113731Y88395D01*
X113712Y88393D01*
X113692Y88390D01*
X113672Y88384D01*
X113652Y88377D01*
X113636Y88368D01*
X113634Y88366D01*
X113629Y88362D01*
X113622Y88355D01*
X113613Y88344D01*
X113605Y88330D01*
X113595Y88312D01*
X113587Y88290D01*
X113579Y88265D01*
X113464Y88280D01*
Y88282D01*
X113465Y88283D01*
Y88287D01*
X113466Y88293D01*
X113471Y88305D01*
X113476Y88323D01*
X113483Y88341D01*
X113491Y88361D01*
X113502Y88380D01*
X113515Y88398D01*
X113516Y88400D01*
X113522Y88405D01*
X113530Y88413D01*
X113541Y88425D01*
X113557Y88436D01*
X113575Y88447D01*
X113595Y88459D01*
X113619Y88469D01*
X113620D01*
X113622Y88470D01*
X113626Y88472D01*
X113631Y88473D01*
X113645Y88477D01*
X113665Y88481D01*
X113687Y88486D01*
X113715Y88490D01*
X113744Y88492D01*
X113777Y88494D01*
X113792D01*
X113808Y88492D01*
D02*
G37*
G36*
X112985Y88741D02*
X112996D01*
X113021Y88738D01*
X113049Y88735D01*
X113078Y88730D01*
X113107Y88723D01*
X113134Y88713D01*
X113135D01*
X113136Y88712D01*
X113145Y88707D01*
X113157Y88700D01*
X113171Y88691D01*
X113188Y88678D01*
X113206Y88663D01*
X113222Y88644D01*
X113238Y88623D01*
X113239Y88620D01*
X113243Y88612D01*
X113250Y88601D01*
X113257Y88584D01*
X113264Y88565D01*
X113271Y88544D01*
X113275Y88520D01*
X113276Y88497D01*
Y88494D01*
Y88487D01*
X113275Y88474D01*
X113272Y88459D01*
X113268Y88441D01*
X113261Y88422D01*
X113253Y88402D01*
X113242Y88382D01*
X113240Y88379D01*
X113236Y88373D01*
X113228Y88362D01*
X113217Y88351D01*
X113203Y88337D01*
X113186Y88322D01*
X113165Y88308D01*
X113142Y88294D01*
X113143D01*
X113146Y88293D01*
X113150Y88291D01*
X113156Y88289D01*
X113172Y88283D01*
X113192Y88273D01*
X113213Y88261D01*
X113236Y88246D01*
X113257Y88228D01*
X113276Y88205D01*
X113278Y88203D01*
X113283Y88194D01*
X113292Y88182D01*
X113300Y88165D01*
X113308Y88143D01*
X113317Y88119D01*
X113322Y88092D01*
X113324Y88061D01*
Y88060D01*
Y88058D01*
Y88050D01*
X113322Y88036D01*
X113319Y88020D01*
X113317Y88000D01*
X113311Y87979D01*
X113304Y87957D01*
X113294Y87935D01*
X113293Y87932D01*
X113289Y87925D01*
X113283Y87916D01*
X113275Y87902D01*
X113264Y87888D01*
X113253Y87873D01*
X113239Y87857D01*
X113224Y87845D01*
X113222Y87843D01*
X113217Y87839D01*
X113207Y87834D01*
X113195Y87828D01*
X113179Y87820D01*
X113161Y87812D01*
X113142Y87805D01*
X113118Y87798D01*
X113115D01*
X113107Y87795D01*
X113093Y87793D01*
X113075Y87791D01*
X113053Y87788D01*
X113027Y87785D01*
X112998Y87784D01*
X112964Y87782D01*
X112598D01*
Y88742D01*
X112975D01*
X112985Y88741D01*
D02*
G37*
G36*
X114739Y88479D02*
X114859D01*
Y88387D01*
X114739D01*
Y87978D01*
Y87975D01*
Y87970D01*
Y87961D01*
X114741Y87952D01*
X114742Y87929D01*
X114744Y87920D01*
X114745Y87913D01*
X114746Y87910D01*
X114751Y87904D01*
X114756Y87898D01*
X114766Y87891D01*
X114769Y87889D01*
X114776Y87886D01*
X114788Y87884D01*
X114806Y87882D01*
X114820D01*
X114827Y87884D01*
X114837D01*
X114848Y87885D01*
X114859Y87886D01*
X114874Y87782D01*
X114871D01*
X114866Y87781D01*
X114856Y87780D01*
X114843Y87778D01*
X114830Y87775D01*
X114814Y87774D01*
X114784Y87773D01*
X114773D01*
X114762Y87774D01*
X114748Y87775D01*
X114731Y87777D01*
X114715Y87781D01*
X114699Y87785D01*
X114684Y87792D01*
X114683Y87793D01*
X114678Y87796D01*
X114673Y87800D01*
X114665Y87807D01*
X114658Y87814D01*
X114649Y87824D01*
X114641Y87834D01*
X114635Y87846D01*
Y87848D01*
X114633Y87853D01*
X114631Y87863D01*
X114629Y87877D01*
X114626Y87895D01*
X114624Y87906D01*
Y87918D01*
X114623Y87934D01*
X114622Y87949D01*
Y87965D01*
Y87985D01*
Y88387D01*
X114534D01*
Y88479D01*
X114622D01*
Y88651D01*
X114739Y88721D01*
Y88479D01*
D02*
G37*
G36*
X114366D02*
X114486D01*
Y88387D01*
X114366D01*
Y87978D01*
Y87975D01*
Y87970D01*
Y87961D01*
X114368Y87952D01*
X114369Y87929D01*
X114371Y87920D01*
X114372Y87913D01*
X114373Y87910D01*
X114378Y87904D01*
X114383Y87898D01*
X114393Y87891D01*
X114396Y87889D01*
X114402Y87886D01*
X114415Y87884D01*
X114433Y87882D01*
X114447D01*
X114454Y87884D01*
X114464D01*
X114475Y87885D01*
X114486Y87886D01*
X114501Y87782D01*
X114498D01*
X114493Y87781D01*
X114483Y87780D01*
X114470Y87778D01*
X114457Y87775D01*
X114441Y87774D01*
X114411Y87773D01*
X114400D01*
X114389Y87774D01*
X114375Y87775D01*
X114358Y87777D01*
X114341Y87781D01*
X114326Y87785D01*
X114311Y87792D01*
X114310Y87793D01*
X114305Y87796D01*
X114300Y87800D01*
X114292Y87807D01*
X114285Y87814D01*
X114276Y87824D01*
X114268Y87834D01*
X114262Y87846D01*
Y87848D01*
X114260Y87853D01*
X114258Y87863D01*
X114255Y87877D01*
X114253Y87895D01*
X114251Y87906D01*
Y87918D01*
X114250Y87934D01*
X114249Y87949D01*
Y87965D01*
Y87985D01*
Y88387D01*
X114161D01*
Y88479D01*
X114249D01*
Y88651D01*
X114366Y88721D01*
Y88479D01*
D02*
G37*
G36*
X115283Y88492D02*
X115294Y88491D01*
X115308Y88488D01*
X115323Y88486D01*
X115341Y88481D01*
X115358Y88477D01*
X115377Y88470D01*
X115395Y88463D01*
X115415Y88454D01*
X115434Y88443D01*
X115454Y88430D01*
X115472Y88415D01*
X115488Y88398D01*
X115490Y88397D01*
X115493Y88394D01*
X115497Y88388D01*
X115502Y88380D01*
X115509Y88370D01*
X115516Y88359D01*
X115524Y88345D01*
X115533Y88329D01*
X115541Y88311D01*
X115549Y88291D01*
X115556Y88269D01*
X115563Y88246D01*
X115569Y88219D01*
X115573Y88192D01*
X115576Y88162D01*
X115577Y88131D01*
Y88129D01*
Y88124D01*
Y88114D01*
X115576Y88100D01*
X115056D01*
Y88099D01*
Y88094D01*
X115057Y88089D01*
Y88081D01*
X115058Y88071D01*
X115061Y88060D01*
X115065Y88035D01*
X115074Y88007D01*
X115085Y87977D01*
X115100Y87949D01*
X115119Y87924D01*
X115121D01*
X115122Y87921D01*
X115131Y87914D01*
X115143Y87904D01*
X115160Y87895D01*
X115182Y87884D01*
X115207Y87874D01*
X115235Y87867D01*
X115250Y87866D01*
X115266Y87864D01*
X115278D01*
X115290Y87866D01*
X115305Y87868D01*
X115322Y87873D01*
X115341Y87878D01*
X115359Y87886D01*
X115377Y87898D01*
X115379Y87899D01*
X115386Y87904D01*
X115394Y87913D01*
X115404Y87924D01*
X115415Y87939D01*
X115427Y87959D01*
X115440Y87981D01*
X115451Y88007D01*
X115573Y87992D01*
Y87990D01*
X115572Y87988D01*
X115570Y87982D01*
X115567Y87974D01*
X115563Y87965D01*
X115559Y87954D01*
X115548Y87931D01*
X115534Y87904D01*
X115515Y87877D01*
X115493Y87850D01*
X115465Y87825D01*
X115463D01*
X115461Y87823D01*
X115456Y87820D01*
X115451Y87816D01*
X115443Y87812D01*
X115434Y87807D01*
X115423Y87802D01*
X115411Y87796D01*
X115397Y87791D01*
X115383Y87785D01*
X115348Y87777D01*
X115309Y87770D01*
X115266Y87767D01*
X115251D01*
X115242Y87769D01*
X115229Y87770D01*
X115214Y87773D01*
X115197Y87775D01*
X115179Y87778D01*
X115140Y87789D01*
X115119Y87798D01*
X115100Y87806D01*
X115079Y87817D01*
X115060Y87830D01*
X115042Y87843D01*
X115024Y87860D01*
X115022Y87861D01*
X115020Y87864D01*
X115015Y87870D01*
X115010Y87878D01*
X115003Y87888D01*
X114996Y87899D01*
X114988Y87913D01*
X114979Y87928D01*
X114971Y87946D01*
X114963Y87965D01*
X114956Y87988D01*
X114949Y88011D01*
X114943Y88036D01*
X114939Y88064D01*
X114936Y88093D01*
X114935Y88124D01*
Y88125D01*
Y88132D01*
Y88140D01*
X114936Y88153D01*
X114938Y88168D01*
X114939Y88185D01*
X114942Y88204D01*
X114946Y88223D01*
X114957Y88268D01*
X114964Y88290D01*
X114972Y88314D01*
X114984Y88336D01*
X114996Y88357D01*
X115010Y88377D01*
X115025Y88397D01*
X115027Y88398D01*
X115029Y88401D01*
X115035Y88405D01*
X115042Y88412D01*
X115050Y88419D01*
X115061Y88427D01*
X115074Y88437D01*
X115089Y88445D01*
X115104Y88455D01*
X115122Y88463D01*
X115142Y88472D01*
X115162Y88479D01*
X115185Y88486D01*
X115208Y88490D01*
X115233Y88492D01*
X115260Y88494D01*
X115273D01*
X115283Y88492D01*
D02*
G37*
G36*
X99085Y101428D02*
X98895D01*
X98668Y102109D01*
Y102110D01*
X98667Y102113D01*
X98665Y102117D01*
X98662Y102124D01*
X98657Y102141D01*
X98650Y102161D01*
X98643Y102185D01*
X98635Y102209D01*
X98628Y102231D01*
X98622Y102250D01*
X98621Y102247D01*
X98619Y102240D01*
X98615Y102228D01*
X98610Y102211D01*
X98603Y102189D01*
X98593Y102163D01*
X98583Y102132D01*
X98571Y102096D01*
X98341Y101428D01*
X98170D01*
Y102387D01*
X98292D01*
Y101584D01*
X98572Y102387D01*
X98686D01*
X98963Y101571D01*
Y102387D01*
X99085D01*
Y101428D01*
D02*
G37*
G36*
X97577Y102403D02*
X97589D01*
X97604Y102401D01*
X97621Y102398D01*
X97640Y102396D01*
X97681Y102389D01*
X97722Y102378D01*
X97764Y102362D01*
X97783Y102353D01*
X97803Y102342D01*
X97804Y102340D01*
X97807Y102339D01*
X97812Y102335D01*
X97818Y102329D01*
X97826Y102324D01*
X97836Y102315D01*
X97847Y102306D01*
X97858Y102294D01*
X97869Y102282D01*
X97882Y102270D01*
X97907Y102238D01*
X97930Y102200D01*
X97951Y102159D01*
Y102157D01*
X97954Y102153D01*
X97955Y102146D01*
X97959Y102138D01*
X97962Y102127D01*
X97966Y102113D01*
X97972Y102098D01*
X97976Y102081D01*
X97980Y102063D01*
X97986Y102042D01*
X97993Y101999D01*
X97998Y101951D01*
X98001Y101901D01*
Y101899D01*
Y101894D01*
Y101885D01*
X98000Y101876D01*
Y101862D01*
X97998Y101848D01*
X97997Y101830D01*
X97994Y101812D01*
X97987Y101772D01*
X97977Y101727D01*
X97963Y101683D01*
X97944Y101640D01*
X97943Y101639D01*
X97941Y101634D01*
X97938Y101629D01*
X97933Y101622D01*
X97927Y101612D01*
X97920Y101601D01*
X97902Y101576D01*
X97879Y101548D01*
X97851Y101521D01*
X97819Y101493D01*
X97782Y101469D01*
X97780Y101468D01*
X97776Y101467D01*
X97771Y101464D01*
X97764Y101460D01*
X97753Y101455D01*
X97742Y101451D01*
X97728Y101446D01*
X97712Y101440D01*
X97696Y101435D01*
X97678Y101429D01*
X97639Y101421D01*
X97595Y101414D01*
X97549Y101411D01*
X97535D01*
X97525Y101412D01*
X97513Y101414D01*
X97497Y101415D01*
X97482Y101417D01*
X97464Y101421D01*
X97427Y101429D01*
X97385Y101442D01*
X97364Y101450D01*
X97345Y101460D01*
X97326Y101472D01*
X97306Y101485D01*
X97305Y101486D01*
X97302Y101487D01*
X97296Y101492D01*
X97289Y101498D01*
X97283Y101505D01*
X97273Y101515D01*
X97263Y101526D01*
X97252Y101537D01*
X97241Y101551D01*
X97230Y101568D01*
X97217Y101584D01*
X97206Y101602D01*
X97197Y101623D01*
X97185Y101644D01*
X97177Y101666D01*
X97169Y101691D01*
X97294Y101720D01*
Y101719D01*
X97295Y101716D01*
X97298Y101711D01*
X97301Y101704D01*
X97303Y101695D01*
X97307Y101684D01*
X97319Y101662D01*
X97332Y101637D01*
X97349Y101612D01*
X97370Y101589D01*
X97392Y101568D01*
X97395Y101565D01*
X97403Y101559D01*
X97417Y101553D01*
X97435Y101543D01*
X97459Y101534D01*
X97485Y101526D01*
X97517Y101521D01*
X97552Y101519D01*
X97563D01*
X97570Y101521D01*
X97579D01*
X97590Y101522D01*
X97617Y101526D01*
X97646Y101532D01*
X97676Y101541D01*
X97708Y101555D01*
X97737Y101573D01*
X97739D01*
X97740Y101576D01*
X97750Y101583D01*
X97762Y101594D01*
X97778Y101611D01*
X97796Y101632D01*
X97812Y101655D01*
X97828Y101684D01*
X97841Y101716D01*
Y101718D01*
X97843Y101720D01*
X97844Y101724D01*
X97846Y101731D01*
X97848Y101740D01*
X97851Y101749D01*
X97855Y101773D01*
X97861Y101801D01*
X97866Y101831D01*
X97869Y101865D01*
X97871Y101901D01*
Y101902D01*
Y101906D01*
Y101913D01*
Y101921D01*
X97869Y101931D01*
Y101944D01*
X97868Y101957D01*
X97866Y101973D01*
X97862Y102006D01*
X97855Y102042D01*
X97847Y102078D01*
X97836Y102114D01*
Y102116D01*
X97834Y102118D01*
X97832Y102123D01*
X97829Y102129D01*
X97821Y102146D01*
X97808Y102166D01*
X97793Y102188D01*
X97773Y102211D01*
X97751Y102232D01*
X97725Y102251D01*
X97724D01*
X97721Y102253D01*
X97717Y102256D01*
X97711Y102258D01*
X97704Y102261D01*
X97696Y102265D01*
X97676Y102274D01*
X97651Y102282D01*
X97624Y102289D01*
X97593Y102294D01*
X97561Y102296D01*
X97552D01*
X97543Y102294D01*
X97534D01*
X97524Y102293D01*
X97499Y102288D01*
X97470Y102281D01*
X97441Y102270D01*
X97410Y102254D01*
X97395Y102246D01*
X97381Y102235D01*
X97380Y102233D01*
X97378Y102232D01*
X97374Y102228D01*
X97368Y102224D01*
X97363Y102217D01*
X97356Y102209D01*
X97348Y102200D01*
X97341Y102189D01*
X97332Y102177D01*
X97323Y102163D01*
X97314Y102149D01*
X97306Y102132D01*
X97299Y102114D01*
X97292Y102095D01*
X97285Y102074D01*
X97280Y102052D01*
X97152Y102084D01*
Y102085D01*
X97154Y102091D01*
X97156Y102099D01*
X97160Y102110D01*
X97165Y102123D01*
X97170Y102138D01*
X97177Y102154D01*
X97185Y102172D01*
X97205Y102211D01*
X97230Y102250D01*
X97245Y102270D01*
X97260Y102289D01*
X97277Y102306D01*
X97296Y102322D01*
X97298Y102324D01*
X97301Y102326D01*
X97307Y102329D01*
X97314Y102335D01*
X97326Y102342D01*
X97337Y102349D01*
X97352Y102355D01*
X97367Y102362D01*
X97385Y102371D01*
X97405Y102378D01*
X97425Y102385D01*
X97448Y102392D01*
X97471Y102397D01*
X97496Y102400D01*
X97522Y102403D01*
X97550Y102404D01*
X97565D01*
X97577Y102403D01*
D02*
G37*
%LPC*%
G36*
X79119Y80685D02*
X78817D01*
Y80368D01*
X79102D01*
X79119Y80369D01*
X79139Y80370D01*
X79161Y80372D01*
X79183Y80374D01*
X79205Y80379D01*
X79225Y80384D01*
X79227Y80386D01*
X79233Y80388D01*
X79241Y80392D01*
X79252Y80398D01*
X79265Y80406D01*
X79277Y80416D01*
X79290Y80429D01*
X79299Y80442D01*
X79301Y80444D01*
X79304Y80449D01*
X79308Y80458D01*
X79313Y80469D01*
X79317Y80481D01*
X79322Y80495D01*
X79324Y80512D01*
X79326Y80528D01*
Y80530D01*
Y80531D01*
X79324Y80539D01*
X79323Y80552D01*
X79320Y80569D01*
X79313Y80585D01*
X79305Y80605D01*
X79292Y80623D01*
X79276Y80641D01*
X79273Y80642D01*
X79266Y80648D01*
X79255Y80655D01*
X79237Y80663D01*
X79216Y80671D01*
X79188Y80678D01*
X79157Y80684D01*
X79119Y80685D01*
D02*
G37*
G36*
Y84698D02*
X78817D01*
Y84381D01*
X79102D01*
X79119Y84382D01*
X79139Y84383D01*
X79161Y84385D01*
X79183Y84388D01*
X79205Y84392D01*
X79225Y84397D01*
X79227Y84399D01*
X79233Y84402D01*
X79241Y84406D01*
X79252Y84411D01*
X79265Y84420D01*
X79277Y84429D01*
X79290Y84442D01*
X79299Y84456D01*
X79301Y84457D01*
X79304Y84463D01*
X79308Y84471D01*
X79313Y84482D01*
X79317Y84494D01*
X79322Y84508D01*
X79324Y84525D01*
X79326Y84542D01*
Y84543D01*
Y84544D01*
X79324Y84553D01*
X79323Y84565D01*
X79320Y84582D01*
X79313Y84598D01*
X79305Y84618D01*
X79292Y84636D01*
X79276Y84654D01*
X79273Y84655D01*
X79266Y84661D01*
X79255Y84668D01*
X79237Y84676D01*
X79216Y84684D01*
X79188Y84691D01*
X79157Y84697D01*
X79119Y84698D01*
D02*
G37*
G36*
X67083Y78464D02*
X67069D01*
X67060Y78462D01*
X67047Y78461D01*
X67033Y78458D01*
X67018Y78455D01*
X67001Y78451D01*
X66982Y78446D01*
X66964Y78440D01*
X66945Y78432D01*
X66924Y78422D01*
X66904Y78411D01*
X66885Y78397D01*
X66866Y78383D01*
X66847Y78365D01*
X66846Y78364D01*
X66843Y78361D01*
X66839Y78356D01*
X66834Y78347D01*
X66825Y78338D01*
X66818Y78325D01*
X66810Y78310D01*
X66802Y78293D01*
X66792Y78274D01*
X66784Y78252D01*
X66777Y78228D01*
X66770Y78202D01*
X66763Y78174D01*
X66759Y78143D01*
X66756Y78110D01*
X66755Y78075D01*
Y78073D01*
Y78067D01*
Y78057D01*
X66756Y78045D01*
X66757Y78030D01*
X66760Y78012D01*
X66763Y77991D01*
X66766Y77970D01*
X66777Y77923D01*
X66784Y77899D01*
X66793Y77876D01*
X66803Y77852D01*
X66816Y77830D01*
X66829Y77808D01*
X66846Y77788D01*
X66847Y77787D01*
X66850Y77784D01*
X66856Y77779D01*
X66863Y77773D01*
X66872Y77765D01*
X66884Y77756D01*
X66896Y77748D01*
X66911Y77738D01*
X66927Y77729D01*
X66945Y77720D01*
X66964Y77712D01*
X66985Y77704D01*
X67008Y77698D01*
X67032Y77693D01*
X67057Y77690D01*
X67083Y77689D01*
X67096D01*
X67108Y77690D01*
X67125Y77691D01*
X67146Y77694D01*
X67166Y77700D01*
X67190Y77705D01*
X67212Y77713D01*
X67209Y77715D01*
X67203Y77720D01*
X67190Y77727D01*
X67175Y77736D01*
X67155Y77744D01*
X67135Y77754D01*
X67111Y77762D01*
X67086Y77769D01*
X67118Y77860D01*
X67119D01*
X67123Y77859D01*
X67129Y77858D01*
X67136Y77855D01*
X67146Y77852D01*
X67157Y77848D01*
X67182Y77838D01*
X67211Y77824D01*
X67241Y77809D01*
X67270Y77791D01*
X67300Y77769D01*
X67301Y77770D01*
X67305Y77773D01*
X67311Y77780D01*
X67318Y77788D01*
X67326Y77799D01*
X67336Y77812D01*
X67345Y77827D01*
X67356Y77845D01*
X67366Y77866D01*
X67376Y77890D01*
X67386Y77915D01*
X67394Y77941D01*
X67402Y77971D01*
X67408Y78003D01*
X67411Y78038D01*
X67412Y78075D01*
Y78077D01*
Y78081D01*
Y78087D01*
Y78095D01*
X67411Y78106D01*
Y78117D01*
X67409Y78131D01*
X67406Y78145D01*
X67402Y78177D01*
X67395Y78211D01*
X67386Y78246D01*
X67372Y78279D01*
Y78281D01*
X67370Y78283D01*
X67368Y78288D01*
X67365Y78293D01*
X67355Y78310D01*
X67343Y78329D01*
X67326Y78351D01*
X67305Y78374D01*
X67282Y78396D01*
X67255Y78415D01*
X67254D01*
X67252Y78418D01*
X67248Y78419D01*
X67241Y78424D01*
X67234Y78426D01*
X67226Y78430D01*
X67205Y78440D01*
X67180Y78449D01*
X67151Y78457D01*
X67118Y78462D01*
X67083Y78464D01*
D02*
G37*
G36*
X112016Y103254D02*
X112002D01*
X111992Y103253D01*
X111980Y103251D01*
X111966Y103249D01*
X111951Y103246D01*
X111934Y103242D01*
X111915Y103236D01*
X111897Y103231D01*
X111877Y103222D01*
X111856Y103213D01*
X111837Y103201D01*
X111818Y103188D01*
X111798Y103174D01*
X111780Y103156D01*
X111779Y103154D01*
X111776Y103152D01*
X111772Y103146D01*
X111766Y103138D01*
X111758Y103128D01*
X111751Y103115D01*
X111743Y103100D01*
X111734Y103084D01*
X111725Y103064D01*
X111716Y103042D01*
X111709Y103018D01*
X111702Y102992D01*
X111695Y102964D01*
X111691Y102934D01*
X111689Y102901D01*
X111687Y102866D01*
Y102863D01*
Y102858D01*
Y102848D01*
X111689Y102835D01*
X111690Y102820D01*
X111693Y102802D01*
X111695Y102781D01*
X111698Y102760D01*
X111709Y102713D01*
X111716Y102690D01*
X111726Y102666D01*
X111736Y102643D01*
X111748Y102620D01*
X111762Y102598D01*
X111779Y102579D01*
X111780Y102577D01*
X111783Y102575D01*
X111788Y102569D01*
X111795Y102564D01*
X111805Y102555D01*
X111816Y102547D01*
X111829Y102539D01*
X111844Y102529D01*
X111859Y102519D01*
X111877Y102511D01*
X111897Y102503D01*
X111917Y102494D01*
X111941Y102489D01*
X111965Y102483D01*
X111989Y102480D01*
X112016Y102479D01*
X112028D01*
X112041Y102480D01*
X112057Y102482D01*
X112078Y102484D01*
X112099Y102490D01*
X112123Y102496D01*
X112145Y102504D01*
X112142Y102505D01*
X112135Y102511D01*
X112123Y102518D01*
X112107Y102526D01*
X112088Y102534D01*
X112067Y102544D01*
X112044Y102552D01*
X112019Y102559D01*
X112051Y102651D01*
X112052D01*
X112056Y102650D01*
X112062Y102648D01*
X112069Y102645D01*
X112078Y102643D01*
X112089Y102638D01*
X112114Y102629D01*
X112143Y102615D01*
X112174Y102600D01*
X112203Y102582D01*
X112232Y102559D01*
X112234Y102561D01*
X112238Y102564D01*
X112243Y102570D01*
X112250Y102579D01*
X112259Y102590D01*
X112268Y102602D01*
X112278Y102618D01*
X112289Y102636D01*
X112299Y102656D01*
X112308Y102680D01*
X112318Y102705D01*
X112326Y102731D01*
X112335Y102762D01*
X112340Y102794D01*
X112343Y102828D01*
X112345Y102866D01*
Y102867D01*
Y102871D01*
Y102877D01*
Y102885D01*
X112343Y102896D01*
Y102907D01*
X112342Y102921D01*
X112339Y102935D01*
X112335Y102967D01*
X112328Y103002D01*
X112318Y103036D01*
X112304Y103070D01*
Y103071D01*
X112303Y103074D01*
X112300Y103078D01*
X112297Y103084D01*
X112288Y103100D01*
X112275Y103120D01*
X112259Y103142D01*
X112238Y103164D01*
X112214Y103186D01*
X112188Y103206D01*
X112186D01*
X112185Y103208D01*
X112181Y103210D01*
X112174Y103214D01*
X112167Y103217D01*
X112159Y103221D01*
X112138Y103231D01*
X112113Y103239D01*
X112084Y103247D01*
X112051Y103253D01*
X112016Y103254D01*
D02*
G37*
G36*
X113928Y88132D02*
X113927D01*
X113925Y88131D01*
X113921Y88129D01*
X113916Y88128D01*
X113909Y88125D01*
X113900Y88122D01*
X113891Y88119D01*
X113880Y88117D01*
X113867Y88112D01*
X113852Y88110D01*
X113837Y88106D01*
X113819Y88101D01*
X113799Y88097D01*
X113780Y88093D01*
X113758Y88090D01*
X113734Y88086D01*
X113731D01*
X113723Y88085D01*
X113709Y88082D01*
X113694Y88079D01*
X113677Y88076D01*
X113661Y88072D01*
X113645Y88068D01*
X113631Y88063D01*
X113630D01*
X113626Y88060D01*
X113620Y88057D01*
X113615Y88053D01*
X113598Y88042D01*
X113584Y88025D01*
Y88024D01*
X113581Y88021D01*
X113580Y88015D01*
X113577Y88008D01*
X113575Y88000D01*
X113572Y87992D01*
X113570Y87981D01*
X113569Y87970D01*
Y87968D01*
Y87961D01*
X113570Y87953D01*
X113573Y87942D01*
X113577Y87929D01*
X113584Y87917D01*
X113593Y87903D01*
X113604Y87891D01*
X113605Y87889D01*
X113611Y87886D01*
X113619Y87881D01*
X113630Y87875D01*
X113645Y87870D01*
X113663Y87864D01*
X113684Y87861D01*
X113709Y87860D01*
X113720D01*
X113734Y87861D01*
X113749Y87864D01*
X113769Y87867D01*
X113788Y87873D01*
X113809Y87879D01*
X113830Y87889D01*
X113832Y87891D01*
X113838Y87895D01*
X113848Y87902D01*
X113859Y87911D01*
X113871Y87922D01*
X113885Y87936D01*
X113896Y87953D01*
X113907Y87971D01*
X113909Y87972D01*
X113910Y87978D01*
X113913Y87988D01*
X113917Y88000D01*
X113921Y88017D01*
X113924Y88036D01*
X113925Y88060D01*
X113927Y88088D01*
X113928Y88132D01*
D02*
G37*
G36*
X112953Y88628D02*
X112726D01*
Y88340D01*
X112962D01*
X112980Y88341D01*
X112999Y88343D01*
X113018Y88344D01*
X113038Y88347D01*
X113053Y88350D01*
X113056Y88351D01*
X113061Y88352D01*
X113070Y88357D01*
X113081Y88362D01*
X113092Y88368D01*
X113104Y88376D01*
X113117Y88387D01*
X113127Y88398D01*
X113128Y88400D01*
X113131Y88404D01*
X113135Y88412D01*
X113139Y88422D01*
X113143Y88433D01*
X113147Y88447D01*
X113150Y88463D01*
X113152Y88481D01*
Y88484D01*
Y88490D01*
X113150Y88498D01*
X113149Y88509D01*
X113146Y88523D01*
X113142Y88537D01*
X113136Y88551D01*
X113128Y88565D01*
X113127Y88566D01*
X113124Y88570D01*
X113118Y88577D01*
X113111Y88584D01*
X113102Y88592D01*
X113091Y88601D01*
X113077Y88609D01*
X113061Y88615D01*
X113060D01*
X113053Y88617D01*
X113043Y88619D01*
X113028Y88621D01*
X113007Y88624D01*
X112984Y88626D01*
X112953Y88628D01*
D02*
G37*
G36*
X112978Y88226D02*
X112726D01*
Y87896D01*
X112999D01*
X113028Y87898D01*
X113041Y87899D01*
X113052Y87900D01*
X113053D01*
X113059Y87902D01*
X113067Y87903D01*
X113077Y87906D01*
X113100Y87914D01*
X113124Y87925D01*
X113125Y87927D01*
X113129Y87929D01*
X113135Y87934D01*
X113142Y87939D01*
X113149Y87947D01*
X113158Y87956D01*
X113165Y87967D01*
X113174Y87979D01*
X113175Y87981D01*
X113177Y87985D01*
X113179Y87993D01*
X113183Y88003D01*
X113188Y88014D01*
X113190Y88028D01*
X113192Y88045D01*
X113193Y88061D01*
Y88064D01*
Y88069D01*
X113192Y88081D01*
X113189Y88093D01*
X113186Y88107D01*
X113181Y88122D01*
X113174Y88137D01*
X113164Y88153D01*
X113163Y88154D01*
X113158Y88160D01*
X113153Y88167D01*
X113145Y88175D01*
X113134Y88185D01*
X113120Y88194D01*
X113104Y88203D01*
X113086Y88210D01*
X113084Y88211D01*
X113078Y88212D01*
X113066Y88215D01*
X113050Y88218D01*
X113031Y88221D01*
X113007Y88223D01*
X112978Y88226D01*
D02*
G37*
G36*
X115261Y88397D02*
X115253D01*
X115247Y88395D01*
X115232Y88394D01*
X115214Y88390D01*
X115192Y88383D01*
X115168Y88373D01*
X115146Y88359D01*
X115124Y88341D01*
X115121Y88339D01*
X115115Y88332D01*
X115106Y88319D01*
X115096Y88302D01*
X115085Y88283D01*
X115075Y88258D01*
X115067Y88229D01*
X115063Y88197D01*
X115452D01*
Y88198D01*
Y88201D01*
X115451Y88205D01*
Y88211D01*
X115448Y88228D01*
X115444Y88246D01*
X115437Y88268D01*
X115430Y88289D01*
X115419Y88309D01*
X115407Y88327D01*
Y88329D01*
X115404Y88330D01*
X115397Y88339D01*
X115384Y88350D01*
X115368Y88362D01*
X115347Y88375D01*
X115322Y88386D01*
X115293Y88394D01*
X115278Y88395D01*
X115261Y88397D01*
D02*
G37*
%LPD*%
D10*
X121500Y58000D02*
G03*
X121500Y58000I-1500J0D01*
G01*
D11*
X82650Y72000D02*
G03*
X82650Y72000I-300J0D01*
G01*
X85950Y95150D02*
G03*
X85950Y95150I-300J0D01*
G01*
X103760Y66410D02*
G03*
X103760Y66410I-300J0D01*
G01*
D12*
X80315Y73110D02*
G03*
X80315Y73110I-125J0D01*
G01*
X87935Y93810D02*
G03*
X87935Y93810I-125J0D01*
G01*
X114125Y89675D02*
G03*
X114125Y89675I-125J0D01*
G01*
X105745Y65300D02*
G03*
X105745Y65300I-125J0D01*
G01*
D13*
X83365Y73000D02*
G03*
X84635Y73000I635J0D01*
G01*
X70000Y62640D02*
G03*
X70000Y62740I0J50D01*
G01*
D02*
G03*
X70000Y62640I0J-50D01*
G01*
D02*
G03*
X70000Y62740I0J50D01*
G01*
X84635Y94150D02*
G03*
X83365Y94150I-635J0D01*
G01*
X112500Y101675D02*
G03*
X111675Y100850I0J-825D01*
G01*
X116325Y100850D02*
G03*
X115500Y101675I-825J0D01*
G01*
X115500Y90325D02*
G03*
X116325Y91150I0J825D01*
G01*
X111675D02*
G03*
X112500Y90325I825J0D01*
G01*
X102445Y65410D02*
G03*
X101175Y65410I-635J0D01*
G01*
X67025Y80655D02*
Y89345D01*
X64975D02*
X67025D01*
X64975Y80655D02*
Y89345D01*
X64975Y80655D02*
X67025D01*
X73620Y94725D02*
Y105275D01*
X67270D02*
X73620D01*
X67270Y94725D02*
Y105275D01*
Y94725D02*
X73620D01*
X114795Y105935D02*
X117205D01*
X114795D02*
Y111525D01*
X117205D01*
Y105935D02*
Y111525D01*
X87150Y76800D02*
Y79200D01*
X80850Y76800D02*
X87150D01*
X80850Y79200D02*
X87150D01*
X80850Y76800D02*
Y79200D01*
X87150Y80800D02*
Y83200D01*
X80850Y80800D02*
X87150D01*
X80850Y83200D02*
X87150D01*
X80850Y80800D02*
Y83200D01*
X81350Y63000D02*
X86650D01*
X84635Y73000D02*
X86650D01*
X81350D02*
X83365D01*
X86650Y63000D02*
Y73000D01*
X81350Y63000D02*
Y73000D01*
X119100Y71300D02*
X119600D01*
X119350Y71050D02*
Y71550D01*
X112700Y81750D02*
Y82250D01*
X113700Y66500D02*
X118150D01*
Y72475D02*
Y86800D01*
Y66500D02*
Y70125D01*
X113700Y86800D02*
X118150D01*
X113700Y83175D02*
Y86800D01*
Y66500D02*
Y80825D01*
X81350Y113850D02*
X86650D01*
X81350Y94150D02*
X83365D01*
X84635D02*
X86650D01*
X81350D02*
Y113850D01*
X86650Y94150D02*
Y113850D01*
X112095Y63050D02*
Y63270D01*
X115905Y63050D02*
Y63270D01*
Y60730D02*
Y60950D01*
X112095Y60730D02*
Y60950D01*
Y63270D02*
X115905D01*
X112095Y60730D02*
X115905D01*
X98410Y105460D02*
X98975D01*
X101025D02*
X101590D01*
Y110540D01*
X98410D02*
X98975D01*
X101025D02*
X101590D01*
X98410Y105460D02*
Y110540D01*
X68410Y107460D02*
X68975D01*
X71025D02*
X71590D01*
Y112540D01*
X68410D02*
X68975D01*
X71025D02*
X71590D01*
X68410Y107460D02*
Y112540D01*
X115500Y90325D02*
X115500Y90325D01*
X112500Y90325D02*
X115500D01*
X112500Y101675D02*
X115500D01*
X111675Y91150D02*
Y100850D01*
X116325Y91150D02*
Y100850D01*
X107365Y109050D02*
Y109270D01*
X111175Y109050D02*
Y109270D01*
Y106730D02*
Y106950D01*
X107365Y106730D02*
Y106950D01*
Y109270D02*
X111175D01*
X107365Y106730D02*
X111175D01*
X99160Y100810D02*
X104460D01*
X99160Y65410D02*
X101175D01*
X102445D02*
X104460D01*
X99160D02*
Y100810D01*
X104460Y65410D02*
Y100810D01*
D14*
X67675Y64915D02*
Y75965D01*
X72325D01*
Y64915D02*
Y75965D01*
X67675Y64915D02*
X72325D01*
M02*
