G04*
G04 #@! TF.GenerationSoftware,Altium Limited,Altium Designer,22.8.2 (66)*
G04*
G04 Layer_Physical_Order=2*
G04 Layer_Color=16711680*
%FSLAX43Y43*%
%MOMM*%
G71*
G04*
G04 #@! TF.SameCoordinates,B507F7F0-0314-43D2-82EB-6D1F289CE23D*
G04*
G04*
G04 #@! TF.FilePolarity,Positive*
G04*
G01*
G75*
%ADD19C,2.200*%
%ADD26R,1.600X1.600*%
%ADD27C,1.600*%
%ADD30C,1.300*%
%ADD31R,1.300X1.300*%
%ADD34C,0.800*%
%ADD35C,1.800*%
%ADD37C,1.250*%
%ADD38R,1.250X1.250*%
%ADD39C,1.500*%
%ADD40R,1.500X1.500*%
%ADD41C,1.550*%
%ADD42R,1.550X1.550*%
%ADD43R,1.350X1.350*%
%ADD44C,1.350*%
%ADD45R,1.500X1.500*%
%ADD46C,1.192*%
%ADD47R,1.300X1.300*%
%ADD48R,1.200X1.200*%
%ADD49C,1.200*%
D19*
X120000Y58000D02*
D03*
D26*
X114000Y82000D02*
D03*
D27*
X117850Y71300D02*
D03*
D30*
X115270Y62000D02*
D03*
X100000Y110540D02*
D03*
X70000Y112540D02*
D03*
X110540Y108000D02*
D03*
D31*
X100000Y105460D02*
D03*
X70000Y107460D02*
D03*
D34*
X100810Y99620D02*
X105620D01*
X87810Y107810D02*
X92620D01*
X100810Y99620D01*
X72987Y94987D02*
Y98214D01*
X80043Y105270D01*
X80190D01*
X66000Y88000D02*
X72987Y94987D01*
X109475Y65255D02*
Y83425D01*
Y65255D02*
X112730Y62000D01*
X106469Y86430D02*
X109475Y83425D01*
X106299Y86430D02*
X106469D01*
X105809Y86920D02*
X106299Y86430D01*
X105620Y86920D02*
X105809D01*
X106000Y58000D02*
X120000D01*
X102000Y62000D02*
X106000Y58000D01*
X102000Y62000D02*
Y75447D01*
X87737Y66730D02*
X87801Y66665D01*
X87737Y66730D02*
X87810D01*
X87663D02*
X87737D01*
X93690Y62290D02*
X98000Y66600D01*
X87023Y62290D02*
X93690D01*
X85910Y63403D02*
Y64977D01*
Y63403D02*
X87023Y62290D01*
X85910Y64977D02*
X87663Y66730D01*
X92903Y64190D02*
X97853Y69140D01*
X98000D01*
X87810Y64190D02*
X92903D01*
X97935Y66665D02*
X98000Y66600D01*
Y79300D02*
X98147D01*
X102000Y75447D01*
X105620Y89460D02*
X109900D01*
X114000Y93560D01*
X108000Y99560D02*
Y108000D01*
Y99560D02*
X114000Y93560D01*
X66000Y84000D02*
X77500D01*
X79500Y82000D01*
X87810Y97650D02*
X87999D01*
X97811Y92000D02*
X98000D01*
X87810Y100190D02*
X87957D01*
X87810Y102730D02*
X87957D01*
X87810Y105270D02*
X87957D01*
X80001Y95110D02*
X80190D01*
X80001Y97650D02*
X80190D01*
X66000Y100000D02*
X66095Y100095D01*
X80095D02*
X80190Y100190D01*
X80001Y102730D02*
X80190D01*
X79500Y75626D02*
X83504Y71622D01*
Y70889D02*
Y71622D01*
X79500Y75626D02*
Y78000D01*
X83504Y70889D02*
X87663Y66730D01*
D35*
X98000Y86920D02*
X98140Y86780D01*
X88500Y82000D02*
X90790D01*
X95710Y86920D02*
X98000D01*
X98140Y86780D02*
X99410D01*
X90790Y82000D02*
X95710Y86920D01*
X104350Y81840D02*
X105620D01*
X99410Y86780D02*
X104350Y81840D01*
X75300Y117840D02*
X103953D01*
X114218Y107575D01*
X115885D01*
X70000Y112540D02*
X75300Y117840D01*
X115885Y107575D02*
X116000Y107460D01*
X75460D02*
X77598Y109598D01*
Y113692D01*
X79196Y115290D02*
X84710D01*
X87110Y112890D01*
X87810D01*
X77598Y113692D02*
X79196Y115290D01*
X70000Y107460D02*
X75460D01*
D37*
X66000Y88000D02*
D03*
Y86000D02*
D03*
Y84000D02*
D03*
D38*
Y82000D02*
D03*
D39*
Y104000D02*
D03*
Y102000D02*
D03*
Y100000D02*
D03*
Y98000D02*
D03*
X87810Y64190D02*
D03*
Y66730D02*
D03*
Y69270D02*
D03*
Y71810D02*
D03*
X80190Y64190D02*
D03*
Y66730D02*
D03*
Y69270D02*
D03*
Y112890D02*
D03*
Y110350D02*
D03*
Y107810D02*
D03*
Y105270D02*
D03*
Y102730D02*
D03*
Y100190D02*
D03*
Y97650D02*
D03*
Y95110D02*
D03*
X87810Y112890D02*
D03*
Y110350D02*
D03*
Y107810D02*
D03*
Y105270D02*
D03*
Y102730D02*
D03*
Y100190D02*
D03*
Y97650D02*
D03*
X98000Y99620D02*
D03*
Y97080D02*
D03*
Y94540D02*
D03*
Y92000D02*
D03*
Y89460D02*
D03*
Y86920D02*
D03*
Y84380D02*
D03*
Y81840D02*
D03*
Y79300D02*
D03*
Y76760D02*
D03*
Y74220D02*
D03*
Y71680D02*
D03*
Y69140D02*
D03*
Y66600D02*
D03*
X105620Y99620D02*
D03*
Y97080D02*
D03*
Y94540D02*
D03*
Y92000D02*
D03*
Y89460D02*
D03*
Y86920D02*
D03*
Y84380D02*
D03*
Y81840D02*
D03*
Y79300D02*
D03*
Y76760D02*
D03*
Y74220D02*
D03*
Y71680D02*
D03*
Y69140D02*
D03*
D40*
X66000Y96000D02*
D03*
D41*
X116000Y107460D02*
D03*
D42*
Y110000D02*
D03*
D43*
X79500Y78000D02*
D03*
Y82000D02*
D03*
D44*
X88500Y78000D02*
D03*
Y82000D02*
D03*
D45*
X80190Y71810D02*
D03*
X87810Y95110D02*
D03*
X105620Y66600D02*
D03*
D46*
X70000Y68000D02*
D03*
Y72880D02*
D03*
D47*
X112730Y62000D02*
D03*
X108000Y108000D02*
D03*
D48*
X114000Y93560D02*
D03*
D49*
Y98440D02*
D03*
M02*
