G04*
G04 #@! TF.GenerationSoftware,Altium Limited,Altium Designer,22.8.2 (66)*
G04*
G04 Layer_Color=32768*
%FSLAX43Y43*%
%MOMM*%
G71*
G04*
G04 #@! TF.SameCoordinates,B507F7F0-0314-43D2-82EB-6D1F289CE23D*
G04*
G04*
G04 #@! TF.FilePolarity,Positive*
G04*
G01*
G75*
%ADD14C,0.100*%
%ADD50C,0.050*%
D14*
X84000Y77500D02*
Y78500D01*
X83500Y78000D02*
X84500D01*
X84000Y81500D02*
Y82500D01*
X83500Y82000D02*
X84500D01*
X84000Y67500D02*
Y68500D01*
X83500Y68000D02*
X84500D01*
X66675Y61640D02*
Y76965D01*
X73325D01*
Y61640D02*
Y76965D01*
X66675Y61640D02*
X73325D01*
X84000Y103500D02*
Y104500D01*
X83500Y104000D02*
X84500D01*
X113500Y62000D02*
X114500D01*
X114000Y61500D02*
Y62500D01*
Y95500D02*
Y96500D01*
X113500Y96000D02*
X114500D01*
X108770Y108000D02*
X109770D01*
X109270Y107500D02*
Y108500D01*
X101810Y82610D02*
Y83610D01*
X101310Y83110D02*
X102310D01*
D50*
X115599Y90244D02*
G03*
X116425Y91150I-50J875D01*
G01*
X111575Y91169D02*
G03*
X112400Y90244I875J-50D01*
G01*
Y101775D02*
G03*
X111575Y100850I50J-875D01*
G01*
X116425Y100869D02*
G03*
X115599Y101775I-876J31D01*
G01*
X64750Y80430D02*
Y89570D01*
Y80430D02*
X67250D01*
Y89570D01*
X64750D02*
X67250D01*
X73845Y94500D02*
Y105500D01*
X65125Y105500D02*
X73845D01*
X65125Y94500D02*
Y105500D01*
Y94500D02*
X73845D01*
X114570Y105710D02*
X117430D01*
X114570Y111750D02*
X117430D01*
X114570Y105710D02*
Y111750D01*
X117430Y105710D02*
Y111750D01*
X89275Y76700D02*
Y79300D01*
X78725D02*
X89275D01*
X78725Y76700D02*
X89275D01*
X78725D02*
Y79300D01*
X89275Y80700D02*
Y83300D01*
X78725D02*
X89275D01*
X78725Y80700D02*
X89275D01*
X78725D02*
Y83300D01*
X79150Y62750D02*
X88850D01*
X79150Y73250D02*
X88850D01*
Y62750D02*
Y73250D01*
X79150Y62750D02*
Y73250D01*
Y114100D02*
X88850D01*
X79150Y93900D02*
X88850D01*
X79150D02*
Y114100D01*
X88850Y93900D02*
Y114100D01*
X111980Y63370D02*
X116020D01*
X111980Y60630D02*
Y63370D01*
Y60630D02*
X116020D01*
Y63370D01*
X112400Y90244D02*
X115599D01*
X112400Y101775D02*
X115599D01*
X116425Y91150D02*
Y100850D01*
X111575Y91150D02*
Y100850D01*
X107250Y109370D02*
X111290D01*
X107250Y106630D02*
Y109370D01*
Y106630D02*
X111290D01*
Y109370D01*
M02*
